<?xml version="1.0" encoding="UTF-8"?>
<svg width="139px" height="40px" viewBox="0 0 139 40" version="1.1" xmlns="http://www.w3.org/2000/svg" xmlns:xlink="http://www.w3.org/1999/xlink">
    <!-- Generator: Sketch 47.1 (45422) - http://www.bohemiancoding.com/sketch -->
    <title>blueberry</title>
    <desc>Created with Sketch.</desc>
    <defs>
        <polygon id="path-1" points="0 28.6663331 0 0.447017544 21.4113928 0.447017544 21.4113928 28.6663331"></polygon>
        <polygon id="path-3" points="0 33.9389972 137.583727 33.9389972 137.583727 0.498397152 0 0.498397152"></polygon>
    </defs>
    <g id="Footer" stroke="none" stroke-width="1" fill="none" fill-rule="evenodd">
        <g id="blueberry">
            <g id="Group">
                <g id="logo">
                    <g id="Group-3" transform="translate(0.000000, 0.051380)">
                        <mask id="mask-2" fill="white">
                            <use xlink:href="#path-1"></use>
                        </mask>
                        <g id="Clip-2"></g>
                        <path d="M10.6779883,7.39587287 C13.6336862,7.39587287 16.1623005,8.44539232 18.2623361,10.5449296 C20.3618734,12.6454635 21.4113928,15.1730811 21.4113928,18.1297757 C21.4113928,21.0301571 20.4132032,23.5109301 18.4168238,25.5730913 C16.4209428,27.6347541 13.9825294,28.6663331 11.1010852,28.6663331 C8.10701449,28.6663331 5.52657208,27.7254533 3.36125299,25.8441922 C1.1201851,23.9066178 -9.96694635e-05,21.5080722 -9.96694635e-05,18.648057 L-9.96694635e-05,0.446917874 L4.46260056,0.446917874 L4.46260056,18.5040346 C4.46260056,20.12167 5.09899008,21.5000987 6.3692774,22.6378256 C7.64105975,23.7750542 9.10520417,24.3446651 10.7627073,24.3446651 L11.1010852,24.3446651 C11.21421,24.3446651 11.4025853,24.3262263 11.666211,24.2878535 C13.1722166,24.0616039 14.396656,23.3325217 15.3390308,22.0986138 C16.2794122,20.8652042 16.7508487,19.457373 16.7508487,17.8751203 C16.7508487,17.461492 16.7040041,16.999524 16.6093181,16.4917081 C16.3083163,15.060953 15.5737524,13.9491401 14.4061246,13.1582629 C13.3700605,12.4431345 12.1461195,12.0848228 10.7343016,12.0848228 C9.75455072,12.0848228 8.82762471,12.2682146 7.95202848,12.6359949 C7.07593389,13.0032769 6.36529062,13.5255449 5.81910196,14.2032972 L5.81910196,8.75187592 C6.72260564,8.24356166 7.51348284,7.89023341 8.19173354,7.69238952 C8.86998424,7.49404729 9.69773913,7.39587287 10.6779883,7.39587287" id="Fill-1" fill="#346275" mask="url(#mask-2)"></path>
                    </g>
                    <mask id="mask-4" fill="white">
                        <use xlink:href="#path-3"></use>
                    </mask>
                    <g id="Clip-5"></g>
                    <polygon id="Fill-4" fill="#346275" mask="url(#mask-4)" points="23.3156776 28.717314 26.953613 28.717314 26.953613 7.34020748 23.3156776 7.34020748"></polygon>
                    <path d="M29.0934666,12.0691248 L32.8380483,12.0691248 L32.8380483,21.6398851 C32.8380483,22.5513623 33.2157956,23.3063585 33.9722868,23.9043753 C34.7282797,24.5023921 35.605371,24.8014005 36.604059,24.8014005 C37.5887933,24.8014005 38.4479441,24.5198342 39.182508,23.9567018 C39.9175703,23.3930709 40.2848523,22.6614971 40.2848523,21.7629769 L40.2848523,12.0691248 L44.2003671,12.0691248 L44.2003671,21.5915454 C44.2003671,23.5460636 43.3516817,25.2509097 41.6543107,26.7060839 C40.0705629,28.0755423 38.3657168,28.7602715 36.5397722,28.7602715 C34.4716308,28.7602715 32.7129631,28.0805258 31.2652642,26.7190409 C29.8170669,25.3590511 29.0934666,23.6880926 29.0934666,21.7076603 L29.0934666,12.0691248 Z" id="Fill-6" fill="#346275" mask="url(#mask-4)"></path>
                    <path d="M59.3938307,19.1520854 C59.0798719,18.0113684 58.4843468,17.1193267 57.6072555,16.4774554 C56.7296659,15.835584 55.6846316,15.51415 54.4721526,15.51415 C53.1310999,15.51415 51.9649672,15.9960519 50.9737544,16.9588589 C49.9815449,17.9216659 49.4861876,19.0593928 49.4861876,20.3720397 C49.4861876,20.6002827 49.4931645,20.7717142 49.5076166,20.8858357 C49.664596,22.2976537 50.2566326,23.4104633 51.2842248,24.2237661 C52.1966987,24.9513532 53.2806041,25.3151467 54.5364394,25.3151467 C55.2495744,25.3151467 55.9198515,25.1905599 56.5477691,24.9403895 C57.1756868,24.6912159 57.7104134,24.3164587 58.1529458,23.8171147 L60.5918576,26.3422405 C59.7217432,27.226807 58.8087709,27.8686784 57.8529408,28.2683529 C56.8971106,28.6680275 55.7912779,28.8673664 54.5364394,28.8673664 C52.1822466,28.8673664 50.16394,28.0540636 48.4805228,26.4279563 C46.7971055,24.8013506 45.9553969,22.8259019 45.9553969,20.5006133 C45.9553969,18.1464205 46.7721882,16.1385792 48.4057707,14.4765909 C50.0393532,12.8146026 52.0252672,11.9833593 54.3650079,11.9833593 C56.7192006,11.9833593 58.7768767,12.8574605 60.5390328,14.6051645 C62.3006906,16.3528685 63.1817686,18.389614 63.1817686,20.7144043 L63.1817686,21.4634203 C63.1389108,21.6772113 63.1100066,21.834689 63.0960529,21.9338602 L51.0270775,21.9338602 C50.7699303,21.9338602 50.6059741,21.8272138 50.5352087,21.6129245 C50.4634467,21.3991335 50.4280641,21.107102 50.4280641,20.7358332 L50.4280641,20.3934686 L50.4280641,19.9653883 C50.4280641,19.6947857 50.4559715,19.49146 50.5137798,19.3554111 C50.5700931,19.220359 50.7056435,19.1520854 50.9199329,19.1520854 L59.3938307,19.1520854 Z" id="Fill-7" fill="#346275" mask="url(#mask-4)"></path>
                    <path d="M72.9392596,12.6044994 C75.1783341,12.6044994 77.0939812,13.3998617 78.6847058,14.990088 C80.2754305,16.5808126 81.0702944,18.4959614 81.0702944,20.7355342 C81.0702944,22.9332459 80.3143016,24.8120153 78.8023158,26.3743341 C77.2898317,27.9366529 75.4424582,28.7175632 73.2601953,28.7175632 C70.9917183,28.7175632 69.0372001,28.0049265 67.3966407,26.5796532 C65.6992698,25.1120203 64.8505843,23.295046 64.8505843,21.1282319 L64.8505843,7.34045665 L68.2313725,7.34045665 L68.2313725,21.0195922 C68.2313725,22.2450282 68.7132743,23.2885675 69.675583,24.1507084 C70.6388884,25.0123509 71.7477112,25.4439197 73.0035464,25.4439197 L73.2601953,25.4439197 C73.3454127,25.4439197 73.4884383,25.4294676 73.6882756,25.4010618 C74.8289926,25.2296303 75.756417,24.6769631 76.4700503,23.7425619 C77.1831854,22.8081607 77.5395037,21.7416974 77.5395037,20.5431721 C77.5395037,20.2297117 77.504121,19.8798719 77.4328574,19.4946494 C77.2046143,18.410744 76.6479603,17.5690353 75.7638922,16.9695235 C74.9789952,16.42782 74.0515708,16.156719 72.9821175,16.156719 C72.2400783,16.156719 71.5374086,16.2952596 70.8741083,16.5738357 C70.210808,16.8519136 69.6720946,17.2476013 69.2584663,17.7613974 L69.2584663,13.6315932 C69.9431955,13.2463707 70.542209,12.9787582 71.0560051,12.8287557 C71.5698012,12.6787531 72.1972204,12.6044994 72.9392596,12.6044994" id="Fill-8" fill="#346275" mask="url(#mask-4)"></path>
                    <path d="M96.0277407,19.1520854 C95.7137818,18.0113684 95.1182568,17.1193267 94.2411655,16.4774554 C93.3635759,15.835584 92.3185416,15.51415 91.1060625,15.51415 C89.7650099,15.51415 88.5988772,15.9960519 87.6076644,16.9588589 C86.6154549,17.9216659 86.1200976,19.0593928 86.1200976,20.3720397 C86.1200976,20.6002827 86.1270745,20.7717142 86.1415266,20.8858357 C86.298506,22.2976537 86.8905426,23.4104633 87.9181348,24.2237661 C88.8306087,24.9513532 89.9145141,25.3151467 91.1703494,25.3151467 C91.8834844,25.3151467 92.5537615,25.1905599 93.1816791,24.9403895 C93.8095967,24.6912159 94.3443234,24.3164587 94.7868558,23.8171147 L97.2257676,26.3422405 C96.3556532,27.226807 95.4426809,27.8686784 94.4868508,28.2683529 C93.5310206,28.6680275 92.4251879,28.8673664 91.1703494,28.8673664 C88.8161566,28.8673664 86.79785,28.0540636 85.1144327,26.4279563 C83.4310155,24.8013506 82.5893069,22.8259019 82.5893069,20.5006133 C82.5893069,18.1464205 83.4060981,16.1385792 85.0396807,14.4765909 C86.6732632,12.8146026 88.6591772,11.9833593 90.9989179,11.9833593 C93.3531106,11.9833593 95.4107867,12.8574605 97.1729428,14.6051645 C98.9346006,16.3528685 99.8156786,18.389614 99.8156786,20.7144043 L99.8156786,21.4634203 C99.7728207,21.6772113 99.7439166,21.834689 99.7299629,21.9338602 L87.6609875,21.9338602 C87.4038403,21.9338602 87.2398841,21.8272138 87.1691187,21.6129245 C87.0973567,21.3991335 87.0619741,21.107102 87.0619741,20.7358332 L87.0619741,20.3934686 L87.0619741,19.9653883 C87.0619741,19.6947857 87.0898815,19.49146 87.1476898,19.3554111 C87.2040031,19.220359 87.3395535,19.1520854 87.5538429,19.1520854 L96.0277407,19.1520854 Z" id="Fill-9" fill="#346275" mask="url(#mask-4)"></path>
                    <path d="M105.828737,28.7603712 L101.827507,28.7389423 L101.827507,19.4088838 C101.827507,17.9826138 102.087146,16.7482075 102.607919,15.7071599 C103.128692,14.6661124 103.959437,13.7596186 105.10115,12.989672 C105.799833,12.5187338 106.456157,12.1798576 107.069622,11.9725451 C107.683088,11.7662293 108.353365,11.6625731 109.080952,11.6625731 C109.266337,11.6625731 109.488102,11.6735367 109.744252,11.6949657 C110.001399,11.7163946 110.293929,11.755764 110.621842,11.8125756 L110.621842,15.6000153 C110.265025,15.5008441 109.894255,15.4505111 109.509531,15.4505111 C108.766993,15.4505111 108.054356,15.7001831 107.369627,16.1995271 C106.869785,16.5563438 106.488051,16.9624968 106.224425,17.418983 C105.960799,17.8754691 105.828737,18.4032189 105.828737,19.0027307 L105.828737,28.7603712 Z" id="Fill-10" fill="#346275" mask="url(#mask-4)"></path>
                    <path d="M116.741746,28.7603712 L112.740516,28.7389423 L112.740516,19.4088838 C112.740516,17.9826138 113.000155,16.7482075 113.520928,15.7071599 C114.0417,14.6661124 114.872445,13.7596186 116.014159,12.989672 C116.712842,12.5187338 117.369166,12.1798576 117.982631,11.9725451 C118.596097,11.7662293 119.266374,11.6625731 119.993961,11.6625731 C120.179346,11.6625731 120.401111,11.6735367 120.657261,11.6949657 C120.914408,11.7163946 121.206938,11.755764 121.534851,11.8125756 L121.534851,15.6000153 C121.178034,15.5008441 120.807264,15.4505111 120.42254,15.4505111 C119.680002,15.4505111 118.967365,15.7001831 118.282636,16.1995271 C117.782794,16.5563438 117.40106,16.9624968 117.137434,17.418983 C116.873808,17.8754691 116.741746,18.4032189 116.741746,19.0027307 L116.741746,28.7603712 Z" id="Fill-11" fill="#346275" mask="url(#mask-4)"></path>
                    <path d="M123.631996,12.1547907 L127.269433,12.1547907 L127.269433,22.2124363 C127.269433,23.0680987 127.604821,23.7742568 128.275098,24.3309108 C128.945873,24.8870664 129.737249,25.1651442 130.65072,25.1651442 C131.520336,25.1651442 132.287292,24.9050069 132.951091,24.3842339 C133.614391,23.863461 133.945792,23.1966723 133.945792,22.3833694 L133.945792,12.1547907 L137.583727,12.1547907 L137.583727,29.2740178 C137.583727,30.4007811 137.055978,31.406446 135.99998,32.2910125 C135.101459,33.0470053 134.131177,33.4965146 133.09013,33.639042 C132.604739,33.7392098 132.09493,33.8139619 131.559705,33.8642949 C131.024978,33.9136313 130.479288,33.939047 129.923132,33.939047 C129.409336,33.939047 128.935408,33.9066545 128.500351,33.842866 C128.064795,33.7785792 127.654655,33.6679461 127.269433,33.5109667 L127.269433,29.7020981 C127.811635,30.0016049 128.332408,30.2049306 128.831752,30.3120753 C129.331096,30.4187216 129.937086,30.4725431 130.65072,30.4725431 L131.121159,30.4725431 C131.820341,30.4725431 132.31221,30.4296852 132.597763,30.3439695 C133.082654,30.2009438 133.432494,29.9014371 133.646784,29.4449509 C133.803265,29.1309921 133.881505,28.8175317 133.881505,28.5035728 C133.881505,28.3326397 133.846123,28.1043966 133.774859,27.8188436 C133.161393,28.1472545 132.572347,28.3720092 132.009713,28.4926092 C131.445584,28.6142059 130.779293,28.674506 130.008848,28.674506 C129.009662,28.674506 128.164963,28.5250018 127.472759,28.225495 C126.780554,27.92549 126.08536,27.4052154 125.386677,26.6631762 C124.772713,26.0073511 124.327689,25.3475393 124.049113,24.684239 C123.770536,24.0209387 123.631996,23.2534839 123.631996,22.3833694 L123.631996,12.1547907 Z" id="Fill-12" fill="#346275" mask="url(#mask-4)"></path>
                    <path d="M13.9537249,18.2571035 C13.9537249,20.0461704 12.5035342,21.496361 10.7144673,21.496361 C8.92540046,21.496361 7.47520976,20.0461704 7.47520976,18.2571035 C7.47520976,16.4680366 8.92540046,15.0178459 10.7144673,15.0178459 C12.5035342,15.0178459 13.9537249,16.4680366 13.9537249,18.2571035" id="Fill-13" fill="#346275" mask="url(#mask-4)"></path>
                </g>
                <path d="M46.1574836,37.8947368 L46.1574836,31.3644463 L47.8947368,31.3644463 C48.5421268,31.3644463 48.9652996,31.3956274 49.1642681,31.4579907 C49.4820237,31.5589598 49.7440939,31.7742582 49.9504866,32.1038925 C50.1568792,32.4335269 50.260074,32.8581845 50.260074,33.3778783 C50.260074,33.8500572 50.170985,34.2457609 49.9928043,34.5650014 C49.8146236,34.8842418 49.591901,35.1084492 49.3246299,35.2376302 C49.0573589,35.3668112 48.5970656,35.4314008 47.9437363,35.4314008 L47.2354715,35.4314008 L47.2354715,37.8947368 L46.1574836,37.8947368 Z M47.2354715,32.4691612 L47.2354715,34.3222314 L47.8323739,34.3222314 C48.2332805,34.3222314 48.5057444,34.2940198 48.6497738,34.2375959 C48.7938033,34.181172 48.9118462,34.0794621 49.0039062,33.932463 C49.0959663,33.7854639 49.1419956,33.6050586 49.1419956,33.3912418 C49.1419956,33.1744552 49.0944815,32.9918227 48.9994518,32.8433388 C48.904422,32.6948549 48.7871215,32.5953721 48.6475466,32.5448876 C48.5079717,32.4944031 48.2124931,32.4691612 47.761102,32.4691612 L47.2354715,32.4691612 Z M51.68929,34.6073191 L50.7583005,34.4024123 C50.8711482,33.924294 51.0574928,33.5805589 51.3173397,33.3711965 C51.5771865,33.1618342 51.950618,33.0571546 52.4376453,33.0571546 C52.8712184,33.0571546 53.2023326,33.1180321 53.4309978,33.2397889 C53.6596631,33.3615457 53.8229929,33.5271028 53.9209923,33.7364652 C54.0189917,33.9458275 54.0679907,34.3266831 54.0679907,34.8790433 L54.0590817,36.3401179 C54.0590817,36.7499335 54.0754147,37.0550634 54.1080812,37.2555167 C54.1407476,37.45597 54.2016251,37.6690413 54.2907155,37.8947368 L53.2750905,37.8947368 L53.1414556,37.3780154 C52.9662446,37.5858929 52.7784152,37.7417986 52.5779619,37.8457374 C52.3775086,37.9496761 52.1644374,38.0016447 51.9387418,38.0016447 C51.5615926,38.0016447 51.2527507,37.8746929 51.0122067,37.6207854 C50.7716627,37.3668778 50.6513926,37.029082 50.6513926,36.6073876 C50.6513926,36.3401165 50.7003915,36.1070003 50.7983909,35.9080318 C50.8963903,35.7090633 51.0344783,35.5501879 51.212659,35.4314008 C51.3908397,35.3126136 51.6759246,35.2071916 52.0679222,35.1151316 C52.5430707,35.0052535 52.8741849,34.9028011 53.0612747,34.8077714 C53.0612747,34.5464397 53.0427145,34.3749433 53.0055935,34.2932771 C52.9684725,34.211611 52.9001709,34.1447942 52.8006867,34.0928248 C52.7012025,34.0408555 52.5608873,34.0148712 52.3797369,34.0148712 C52.1956168,34.0148712 52.0508471,34.056446 51.9454235,34.139597 C51.8399999,34.222748 51.754623,34.3786538 51.68929,34.6073191 Z M53.0612747,35.6229441 C52.9306088,35.6763983 52.7271889,35.7387606 52.4510088,35.8100329 C52.1332532,35.8931839 51.9253788,35.9852426 51.8273794,36.0862116 C51.72938,36.1871807 51.680381,36.3178446 51.680381,36.4782072 C51.680381,36.6593576 51.7345769,36.8115514 51.8429701,36.934793 C51.9513634,37.0580347 52.0872242,37.1196546 52.2505565,37.1196546 C52.3960707,37.1196546 52.540098,37.0699132 52.6826426,36.970429 C52.8251871,36.8709448 52.9239275,36.7529018 52.9788665,36.6162966 C53.0338056,36.4796914 53.0612747,36.2317269 53.0612747,35.8723958 L53.0612747,35.6229441 Z M54.3746738,33.1640625 L55.4704797,33.1640625 L56.3925603,36.5227522 L57.3012774,33.1640625 L58.3614474,33.1640625 L56.9939172,37.716557 L56.731102,38.6030016 C56.6152845,38.9356056 56.5002112,39.1791156 56.3858786,39.3335389 C56.271546,39.4879622 56.1260339,39.6067476 55.949338,39.6898986 C55.7726422,39.7730496 55.5551165,39.8146245 55.2967544,39.8146245 C55.097786,39.8146245 54.9032749,39.7893826 54.7132155,39.738898 L54.6241256,38.758909 C54.7844882,38.7975148 54.9285155,38.8168174 55.0562117,38.8168174 C55.2522104,38.8168174 55.4133131,38.7514855 55.5395244,38.6208196 C55.6657358,38.4901538 55.7689306,38.252583 55.8491119,37.9081003 L54.3746738,33.1640625 Z M58.726039,33.1640625 L59.670392,33.1640625 L59.670392,33.8099644 C59.8396637,33.5575417 60.0252659,33.3689699 60.227204,33.2442434 C60.4291421,33.1195169 60.6474102,33.0571546 60.8820149,33.0571546 C61.1314679,33.0571546 61.3475087,33.1195169 61.530144,33.2442434 C61.7127792,33.3689699 61.8620033,33.5575417 61.9778208,33.8099644 C62.1500621,33.5575417 62.3349219,33.3689699 62.5324055,33.2442434 C62.7298891,33.1195169 62.9399907,33.0571546 63.1627166,33.0571546 C63.427018,33.0571546 63.6549374,33.1202593 63.8464817,33.2464707 C64.038026,33.372682 64.183538,33.5530873 64.2830223,33.7876919 C64.3825065,34.0222965 64.4322479,34.383107 64.4322479,34.8701343 L64.4322479,37.8947368 L63.4032594,37.8947368 L63.4032594,35.190858 C63.4032594,34.7186791 63.3616845,34.4046403 63.2785335,34.2487322 C63.1953825,34.0928241 63.0558097,34.0148712 62.8598109,34.0148712 C62.6311457,34.0148712 62.4470283,34.1240052 62.3074534,34.3422766 C62.1678786,34.560548 62.0980922,34.9874329 62.0980922,35.6229441 L62.0980922,37.8947368 L61.0691037,37.8947368 L61.0691037,35.3022204 C61.0691037,34.788466 61.0408921,34.4573518 60.9844683,34.3088679 C60.9102263,34.1128691 60.7602598,34.0148712 60.5345642,34.0148712 C60.3831106,34.0148712 60.2435378,34.0653549 60.1158416,34.166324 C59.9881454,34.2672931 59.8960868,34.4150324 59.8396629,34.6095463 C59.783239,34.8040603 59.7550275,35.1329472 59.7550275,35.5962171 L59.7550275,37.8947368 L58.726039,37.8947368 L58.726039,33.1640625 Z M67.4873548,36.3891173 L68.5074343,36.5984786 C68.3708291,37.0736272 68.1585002,37.4262712 67.8704414,37.6564213 C67.5823826,37.8865714 67.2319658,38.0016447 66.8191804,38.0016447 C66.2460325,38.0016447 65.803557,37.8101033 65.4917407,37.4270148 C65.1235006,36.981563 64.9393833,36.3579399 64.9393833,35.5561266 C64.9393833,34.7661921 65.1249854,34.1336601 65.4961952,33.6585115 C65.8109812,33.2576049 66.217821,33.0571546 66.716727,33.0571546 C67.2720569,33.0571546 67.7071083,33.2620594 68.0218943,33.671875 C68.384195,34.1410842 68.5653427,34.833009 68.5653427,35.74767 L68.5608882,35.8902138 L65.9906443,35.8902138 C65.9965836,36.2643933 66.0804758,36.5539326 66.2423233,36.7588405 C66.4041707,36.9637483 66.5994242,37.0662007 66.8280894,37.0662007 C67.1577238,37.0662007 67.3774767,36.8405085 67.4873548,36.3891173 Z M67.5452632,35.1240406 C67.5363542,34.7558004 67.4576589,34.4788821 67.309175,34.2932771 C67.160691,34.1076722 66.9839978,34.0148712 66.77909,34.0148712 C66.5623034,34.0148712 66.3796709,34.1113843 66.231187,34.3044134 C66.0797334,34.5004122 66.0054926,34.7736185 66.0084622,35.1240406 L67.5452632,35.1240406 Z M72.7073466,37.8947368 L71.6783581,37.8947368 L71.6783581,35.4804002 C71.6783581,34.9963426 71.6590555,34.6741373 71.6204496,34.5137747 C71.5818438,34.353412 71.5098302,34.2301722 71.4044066,34.1440515 C71.298983,34.0579309 71.1794552,34.0148712 71.0458197,34.0148712 C70.8735784,34.0148712 70.7176726,34.0705518 70.5780977,34.1819147 C70.4385228,34.2932777 70.3405249,34.4469563 70.284101,34.642955 C70.2276771,34.8389538 70.1994655,35.2086733 70.1994655,35.7521245 L70.1994655,37.8947368 L69.1704771,37.8947368 L69.1704771,33.1640625 L70.1237391,33.1640625 L70.1237391,33.8589638 C70.2930108,33.5916927 70.4838098,33.3912424 70.6961418,33.2576069 C70.9084738,33.1239714 71.1438173,33.0571546 71.4021794,33.0571546 C71.7021169,33.0571546 71.9552782,33.1351075 72.1616709,33.2910156 C72.3680635,33.4469238 72.510606,33.647374 72.5893024,33.8923725 C72.6679989,34.137371 72.7073466,34.4914999 72.7073466,34.9547697 L72.7073466,37.8947368 Z M75.3036404,33.1640625 L75.3036404,34.1618695 L74.6042846,34.1618695 L74.6042846,36.0683936 C74.6042846,36.481179 74.6146784,36.7202345 74.6354661,36.7855674 C74.6770416,36.9043546 74.7616762,36.9637473 74.8893724,36.9637473 C74.9844021,36.9637473 75.1210052,36.9236572 75.299186,36.8434759 L75.3882759,37.8145559 C75.1507016,37.9392824 74.8819497,38.0016447 74.5820122,38.0016447 C74.3206804,38.0016447 74.1113212,37.9392824 73.9539283,37.8145559 C73.7965353,37.6898294 73.6911133,37.5101666 73.6376591,37.275562 C73.5960836,37.1033206 73.5752962,36.7529038 73.5752962,36.224301 L73.5752962,34.1618695 L73.1031196,34.1618695 L73.1031196,33.1640625 L73.5752962,33.1640625 L73.5752962,32.2241639 L74.6042846,31.4936266 L74.6042846,33.1640625 L75.3036404,33.1640625 Z M77.3958993,35.7699424 L78.4516147,35.6452166 C78.5704019,36.4796962 78.9594239,36.8969298 79.6186926,36.8969298 C79.9453572,36.8969298 80.2022306,36.8115528 80.3893203,36.6407963 C80.5764101,36.4700398 80.6699535,36.2584534 80.6699535,36.0060307 C80.6699535,35.8575468 80.6372876,35.7313373 80.5719546,35.6273986 C80.5066217,35.5234598 80.407139,35.4380828 80.2735034,35.3712651 C80.1398679,35.3044473 79.8161778,35.1923436 79.3024234,35.0349507 C78.8421232,34.8953758 78.5050697,34.7439244 78.2912529,34.5805921 C78.077436,34.4172598 77.9074245,34.2027037 77.7812131,33.9369175 C77.6550018,33.6711313 77.5918971,33.385304 77.5918971,33.0794271 C77.5918971,32.7230657 77.6728196,32.4023452 77.8346671,32.117256 C77.9965146,31.8321669 78.2199795,31.6168684 78.5050687,31.4713542 C78.7901578,31.3258399 79.1420594,31.2530839 79.5607841,31.2530839 C80.190356,31.2530839 80.6818304,31.4238378 81.0352222,31.7653509 C81.3886139,32.1068639 81.5757009,32.5953687 81.5964886,33.2308799 L80.5140462,33.2887884 C80.4665313,32.9383663 80.364079,32.6933715 80.206686,32.5537966 C80.049293,32.4142217 79.8250857,32.3444353 79.5340571,32.3444353 C79.2430286,32.3444353 79.0188213,32.4053128 78.8614283,32.5270696 C78.7040353,32.6488264 78.62534,32.8002778 78.62534,32.9814282 C78.62534,33.1596089 78.6966113,33.3095754 78.8391558,33.4313322 C78.9817004,33.5530891 79.309845,33.6867226 79.8235994,33.8322368 C80.3670505,33.9896298 80.7597846,34.1551869 81.0018135,34.3289131 C81.2438423,34.5026393 81.428702,34.7268467 81.5563982,35.0015419 C81.6840943,35.2762372 81.7479415,35.6095786 81.7479415,36.0015762 C81.7479415,36.5687848 81.5734755,37.0454111 81.2245382,37.4314693 C80.875601,37.8175275 80.3299307,38.0105537 79.5875111,38.0105537 C78.2749132,38.0105537 77.5443832,37.2636908 77.3958993,35.7699424 Z M82.192714,35.4625822 C82.192714,34.9993124 82.2847726,34.5776243 82.4688927,34.1975055 C82.6530128,33.8173866 82.8935531,33.5323018 83.190521,33.3422423 C83.4874888,33.1521829 83.8215727,33.0571546 84.1927825,33.0571546 C84.816415,33.0571546 85.3064046,33.301407 85.662766,33.7899191 C86.0191275,34.2784313 86.1973055,34.8493434 86.1973055,35.5026727 C86.1973055,35.9897 86.1045045,36.4292058 85.9188995,36.8212034 C85.7332946,37.213201 85.4897846,37.5079372 85.1883623,37.7054208 C84.8869399,37.9029044 84.5565681,38.0016447 84.197237,38.0016447 C83.6211193,38.0016447 83.1430083,37.7818918 82.7628894,37.3423794 C82.3827705,36.902867 82.192714,36.2762742 82.192714,35.4625822 Z M83.2439749,35.5293997 C83.2439749,36.0075179 83.3375184,36.3690709 83.5246082,36.6140694 C83.7116979,36.8590678 83.9373901,36.9815652 84.2016915,36.9815652 C84.4600535,36.9815652 84.6812913,36.8583254 84.8654113,36.6118421 C85.0495314,36.3653588 85.1415901,36.0015786 85.1415901,35.5204907 C85.1415901,35.0512815 85.0480466,34.6934406 84.8609568,34.4469572 C84.6738671,34.2004739 84.4496597,34.0772341 84.188328,34.0772341 C83.929966,34.0772341 83.7079858,34.2004739 83.5223809,34.4469572 C83.336776,34.6934406 83.2439749,35.0542511 83.2439749,35.5293997 Z M86.7846219,37.8947368 L86.7846219,31.3644463 L87.8136104,31.3644463 L87.8136104,37.8947368 L86.7846219,37.8947368 Z M91.1938955,37.8947368 L91.1938955,37.186472 C91.0513509,37.4418644 90.8642639,37.6415723 90.632629,37.7856017 C90.4009941,37.9296311 90.1589689,38.0016447 89.9065462,38.0016447 C89.6511539,38.0016447 89.4224921,37.934828 89.2205539,37.8011924 C89.0186158,37.6675569 88.8679068,37.4775003 88.7684226,37.231017 C88.6689384,36.9845337 88.619197,36.6266928 88.619197,36.1574836 L88.619197,33.1640625 L89.6481855,33.1640625 L89.6481855,35.3378564 C89.6481855,35.9585192 89.6637761,36.3527381 89.6949577,36.5205249 C89.7261393,36.6883118 89.7951833,36.8182333 89.9020917,36.9102933 C90.0090002,37.0023533 90.1381792,37.0483827 90.2896329,37.0483827 C90.4618742,37.0483827 90.6207496,36.9882476 90.7662639,36.8679756 C90.9117781,36.7477036 91.0075488,36.5932826 91.0535789,36.4047081 C91.0996089,36.2161335 91.1226235,35.8011271 91.1226235,35.1596765 L91.1226235,33.1640625 L92.1471575,33.1640625 L92.1471575,37.8947368 L91.1938955,37.8947368 Z M94.7701784,33.1640625 L94.7701784,34.1618695 L94.0708226,34.1618695 L94.0708226,36.0683936 C94.0708226,36.481179 94.0812163,36.7202345 94.102004,36.7855674 C94.1435795,36.9043546 94.2282141,36.9637473 94.3559103,36.9637473 C94.45094,36.9637473 94.5875432,36.9236572 94.7657239,36.8434759 L94.8548138,37.8145559 C94.6172395,37.9392824 94.3484876,38.0016447 94.0485501,38.0016447 C93.7872184,38.0016447 93.5778592,37.9392824 93.4204662,37.8145559 C93.2630732,37.6898294 93.1576512,37.5101666 93.104197,37.275562 C93.0626215,37.1033206 93.0418341,36.7529038 93.0418341,36.224301 L93.0418341,34.1618695 L92.5696575,34.1618695 L92.5696575,33.1640625 L93.0418341,33.1640625 L93.0418341,32.2241639 L94.0708226,31.4936266 L94.0708226,33.1640625 L94.7701784,33.1640625 Z M95.2684048,32.5226151 L95.2684048,31.3644463 L96.2973933,31.3644463 L96.2973933,32.5226151 L95.2684048,32.5226151 Z M95.2684048,37.8947368 L95.2684048,33.1640625 L96.2973933,33.1640625 L96.2973933,37.8947368 L95.2684048,37.8947368 Z M96.8891642,35.4625822 C96.8891642,34.9993124 96.9812228,34.5776243 97.1653429,34.1975055 C97.349463,33.8173866 97.5900033,33.5323018 97.8869712,33.3422423 C98.183939,33.1521829 98.5180229,33.0571546 98.8892327,33.0571546 C99.5128652,33.0571546 100.002855,33.301407 100.359216,33.7899191 C100.715578,34.2784313 100.893756,34.8493434 100.893756,35.5026727 C100.893756,35.9897 100.800955,36.4292058 100.61535,36.8212034 C100.429745,37.213201 100.186235,37.5079372 99.8848125,37.7054208 C99.5833901,37.9029044 99.2530183,38.0016447 98.8936872,38.0016447 C98.3175695,38.0016447 97.8394585,37.7818918 97.4593396,37.3423794 C97.0792207,36.902867 96.8891642,36.2762742 96.8891642,35.4625822 Z M97.9404251,35.5293997 C97.9404251,36.0075179 98.0339686,36.3690709 98.2210583,36.6140694 C98.4081481,36.8590678 98.6338403,36.9815652 98.8981417,36.9815652 C99.1565037,36.9815652 99.3777415,36.8583254 99.5618615,36.6118421 C99.7459816,36.3653588 99.8380403,36.0015786 99.8380403,35.5204907 C99.8380403,35.0512815 99.7444968,34.6934406 99.557407,34.4469572 C99.3703173,34.2004739 99.1461099,34.0772341 98.8847782,34.0772341 C98.6264162,34.0772341 98.404436,34.2004739 98.2188311,34.4469572 C98.0332262,34.6934406 97.9404251,35.0542511 97.9404251,35.5293997 Z M105.009033,37.8947368 L103.980044,37.8947368 L103.980044,35.4804002 C103.980044,34.9963426 103.960741,34.6741373 103.922136,34.5137747 C103.88353,34.353412 103.811516,34.2301722 103.706093,34.1440515 C103.600669,34.0579309 103.481141,34.0148712 103.347506,34.0148712 C103.175264,34.0148712 103.019359,34.0705518 102.879784,34.1819147 C102.740209,34.2932777 102.642211,34.4469563 102.585787,34.642955 C102.529363,34.8389538 102.501152,35.2086733 102.501152,35.7521245 L102.501152,37.8947368 L101.472163,37.8947368 L101.472163,33.1640625 L102.425425,33.1640625 L102.425425,33.8589638 C102.594697,33.5916927 102.785496,33.3912424 102.997828,33.2576069 C103.21016,33.1239714 103.445503,33.0571546 103.703865,33.0571546 C104.003803,33.0571546 104.256964,33.1351075 104.463357,33.2910156 C104.66975,33.4469238 104.812292,33.647374 104.890988,33.8923725 C104.969685,34.137371 105.009033,34.4914999 105.009033,34.9547697 L105.009033,37.8947368 Z M105.471623,36.5450247 L106.500612,36.3534814 C106.589702,36.8494177 106.865878,37.0973821 107.329148,37.0973821 C107.575631,37.0973821 107.759748,37.049868 107.881505,36.9548383 C108.003262,36.8598086 108.06414,36.7365687 108.06414,36.5851151 C108.06414,36.4811764 108.037413,36.3995114 107.983959,36.3401179 C107.927535,36.2807243 107.816173,36.2287557 107.649871,36.1842105 C106.806483,35.9614846 106.270464,35.7491558 106.041799,35.5472177 C105.756709,35.294795 105.614167,34.9488326 105.614167,34.5093202 C105.614167,34.0698077 105.75374,33.7179061 106.03289,33.4536047 C106.312039,33.1893033 106.717394,33.0571546 107.248967,33.0571546 C107.756782,33.0571546 108.142834,33.1558949 108.407136,33.3533786 C108.671437,33.5508622 108.857039,33.8693554 108.963948,34.3088679 L107.997322,34.5271382 C107.911201,34.1470193 107.667691,33.9569627 107.266785,33.9569627 C107.014362,33.9569627 106.834699,33.9933407 106.727791,34.0660979 C106.620882,34.138855 106.567429,34.2331409 106.567429,34.3489583 C106.567429,34.4528971 106.616428,34.5390165 106.714427,34.6073191 C106.812427,34.6785914 107.116814,34.7854982 107.627599,34.9280428 C108.200747,35.0884054 108.589769,35.2829164 108.794677,35.5115817 C108.996615,35.7402469 109.097582,36.0446344 109.097582,36.4247533 C109.097582,36.8820838 108.940934,37.2592273 108.627633,37.5561952 C108.314332,37.853163 107.881508,38.0016447 107.329148,38.0016447 C106.827272,38.0016447 106.417463,37.8776625 106.099707,37.6296944 C105.781951,37.3817262 105.572592,37.0201732 105.471623,36.5450247 Z M111.670927,37.8947368 L111.670927,31.4179002 L112.748915,31.4179002 L112.748915,36.7944764 L115.43943,36.7944764 L115.43943,37.8947368 L111.670927,37.8947368 Z M116.650376,37.8947368 L116.650376,32.4691612 L115.060121,32.4691612 L115.060121,31.3644463 L119.314164,31.3644463 L119.314164,32.4691612 L117.728364,32.4691612 L117.728364,37.8947368 L116.650376,37.8947368 Z M119.790118,31.3644463 L121.76346,31.3644463 C122.262366,31.3644463 122.638767,31.4201269 122.892674,31.5314899 C123.146582,31.6428528 123.380441,31.8306822 123.594257,32.0949836 C123.808074,32.3592849 123.975859,32.7022777 124.097615,33.123972 C124.219372,33.5456664 124.28025,34.0698068 124.28025,34.696409 C124.28025,35.2606479 124.216403,35.7513799 124.088706,36.1686198 C123.96101,36.5858596 123.799165,36.9162314 123.603166,37.1597451 C123.407168,37.4032587 123.170339,37.5866336 122.892674,37.7098753 C122.615009,37.8331169 122.257911,37.8947368 121.821368,37.8947368 L119.790118,37.8947368 L119.790118,31.3644463 Z M120.868106,32.4691612 L120.868106,36.7944764 L121.678824,36.7944764 C122.026277,36.7944764 122.277953,36.7618105 122.433861,36.6964775 C122.589769,36.6311446 122.717464,36.5324043 122.816948,36.4002536 C122.916432,36.2681029 122.99884,36.0594861 123.064172,35.7743969 C123.129505,35.4893078 123.162171,35.1136491 123.162171,34.6474095 C123.162171,34.1633519 123.128763,33.781754 123.061945,33.5026042 C122.995127,33.2234544 122.89119,33.0037015 122.750131,32.8433388 C122.609071,32.6829762 122.437574,32.5775542 122.235636,32.5270696 C122.084183,32.4884638 121.791674,32.4691612 121.358101,32.4691612 L120.868106,32.4691612 Z" id="Payment-Solutions-LT" fill="#346275"></path>
            </g>
        </g>
    </g>
</svg>