<?xml version="1.0" encoding="UTF-8" standalone="no"?>
<svg width="35px" height="40px" viewBox="0 0 35 40" version="1.1" xmlns="http://www.w3.org/2000/svg" xmlns:xlink="http://www.w3.org/1999/xlink">
    <!-- Generator: Sketch 39.1 (31720) - http://www.bohemiancoding.com/sketch -->
    <title>laser</title>
    <desc>Created with Sketch.</desc>
    <defs></defs>
    <g id="Payments" stroke="none" stroke-width="1" fill="none" fill-rule="evenodd">
        <g id="laser" transform="translate(-78.000000, 0.000000)" fill="#346275">
            <path d="M102.12106,18.4226391 L112.533931,18.4226391 L112.533931,18.8654075 L101.862344,18.8654075 L101.445621,19.5842551 L94.5366972,18.8654075 L78.3478682,18.8654075 L78.3478682,18.4226391 L93.980198,18.4226391 L102.541256,17.7029234 L102.12106,18.4226391 L102.12106,18.4226391 L102.12106,18.4226391 Z M101.329286,19.9158973 L94.3517763,20.6356131 L78.3478682,20.6356131 L78.3478682,21.0792497 L94.7485315,21.0792497 L100.236255,21.797229 L100.652979,21.0792497 L112.534799,21.0792497 L112.534799,20.6356131 L100.910826,20.6356131 L101.329286,19.9158973 L101.329286,19.9158973 L101.329286,19.9158973 Z M100.121656,22.1288713 L94.7233545,22.8477188 L78.3478682,22.8477188 L78.3478682,23.2913554 L94.961234,23.2913554 L99.0260217,24.010203 L99.4444813,23.2913554 L112.534799,23.2913554 L112.534799,22.8477188 L99.7014606,22.8477188 L100.121656,22.1288713 L100.121656,22.1288713 L100.121656,22.1288713 Z M98.9096865,24.3418452 L95.0931963,25.061561 L78.3478682,25.061561 L78.3478682,25.5043294 L95.1739364,25.5043294 L97.8149199,26.2231769 L98.2333794,25.5043294 L112.534799,25.5043294 L112.534799,25.061561 L98.4920951,25.061561 L98.9096865,24.3418452 L98.9096865,24.3418452 L98.9096865,24.3418452 Z M97.7020573,26.5548192 L94.861394,27.2745349 L78.3487363,27.2745349 L78.3487363,27.7190397 L94.8440306,27.7190397 L96.6072907,28.4370191 L97.0257503,27.7190397 L112.534799,27.7190397 L112.534799,27.2745349 L97.2818614,27.2745349 L97.7020573,26.5548192 L97.7020573,26.5548192 L97.7020573,26.5548192 Z M106.169352,11.1568961 L94.5731605,11.7845855 L78.3478682,11.7845855 L78.3478682,12.2273539 L92.4661037,12.2273539 L105.076322,13.039096 L105.54774,12.2273539 L112.535668,12.2273539 L112.535668,11.7845855 L105.805588,11.7845855 L106.169352,11.1568961 L106.169352,11.1568961 L106.169352,11.1568961 Z M103.748885,15.4908176 L93.6086198,16.2096652 L78.3478682,16.2096652 L78.3478682,16.6524336 L94.3239947,16.6524336 L102.656723,17.3712812 L103.074314,16.6524336 L112.533931,16.6524336 L112.533931,16.2096652 L103.330425,16.2096652 L103.748885,15.4908176 L103.748885,15.4908176 L103.748885,15.4908176 Z M104.959987,13.2778437 L93.238778,13.9975594 L78.3478682,13.9975594 L78.3478682,14.4403278 L94.1112922,14.4403278 L103.86522,15.1600436 L104.28368,14.4403278 L112.534799,14.4403278 L112.534799,13.9975594 L104.539791,13.9975594 L104.959987,13.2778437 L104.959987,13.2778437 L104.959987,13.2778437 Z M95.7998895,37.369655 C95.5568009,37.2541879 95.311976,37.1430617 95.071492,37.0249901 C94.9516841,36.9668225 94.8301398,36.904314 94.7242226,36.8235739 C94.5705559,36.7063705 94.5288836,36.5422857 94.575765,36.3530239 C94.62091,36.173312 94.7424543,36.077813 94.9169571,36.0561086 C95.0619421,36.037877 95.2121361,36.0309316 95.3579892,36.0448224 C95.6106277,36.0717358 95.8623979,36.1177489 96.128059,36.1568167 C96.1853584,35.9172009 96.2452624,35.672376 96.3112436,35.397165 C96.0247464,35.3494155 95.7521399,35.2886434 95.4786653,35.2599936 C95.0549967,35.2157168 94.6374053,35.2426302 94.2328365,35.4041104 C93.2196782,35.807811 93.1684559,37.1526116 93.8169815,37.6474704 C93.9975615,37.7846418 94.2033186,37.8879545 94.4047348,37.9964761 C94.6061511,38.1049978 94.8223262,38.1848698 95.0185334,38.301205 C95.2538084,38.4392446 95.3163169,38.6120111 95.2564129,38.8603086 C95.2095316,39.052175 95.056733,39.1806646 94.7997537,39.1858737 C94.5462471,39.1910827 94.2892678,39.1745874 94.0374975,39.137256 C93.8273995,39.1060017 93.6233788,39.0330752 93.40894,38.9766439 C93.3377497,39.227546 93.2674277,39.4749754 93.193633,39.7328229 C93.6824146,39.9125348 94.170328,40.008902 94.6790776,39.9993521 C95.0940645,39.9906704 95.4847425,39.9038531 95.8493753,39.6920187 C96.5682229,39.2718228 96.8173887,37.850623 95.7998895,37.369655 L95.7998895,37.369655 L95.7998895,37.369655 Z M82.6236221,35.3563609 L81.476765,35.3563609 L81.476765,39.9029849 L84.2236656,39.9029849 C84.2601289,39.6494783 84.3834095,39.4072579 84.4224773,39.1320469 L82.6236221,39.1320469 L82.6236221,35.3563609 L82.6236221,35.3563609 L82.6236221,35.3563609 Z M91.1681845,39.8456854 C91.1777344,39.8725988 91.1829434,39.9047212 91.190757,39.93858 L89.9648962,39.9403163 L89.9293011,39.8404764 C89.8485609,39.5557155 89.7634799,39.2735592 89.678399,38.9896665 C89.66364,38.9367079 89.643672,38.8898265 89.623704,38.8333953 C89.1514177,38.8333953 88.6400636,38.8316589 88.1729863,38.8394725 C88.1373912,38.8394725 88.1295776,38.8906947 88.1156869,38.9297625 C88.0071652,39.2336232 87.9038526,39.5383521 87.8048808,39.8456854 L87.7519222,39.9359755 L86.7396321,39.9160075 C86.8203722,39.6816007 86.8976396,39.428094 86.9766434,39.207578 C87.4133346,37.9695628 87.8248488,36.8678507 88.2571991,35.6280992 C88.2980033,35.5091594 87.9750428,35.3381292 88.0991916,35.3407338 C88.4542745,35.3502837 89.2139262,35.3450746 89.5681409,35.3424701 C89.6428038,35.3424701 89.688817,35.3554927 89.7157304,35.4379692 C90.1984348,36.8869506 90.6837437,38.3967041 91.1681845,39.8456854 L91.1681845,39.8456854 L91.1681845,39.8456854 Z M89.4049243,38.1032615 C89.2408396,37.5571804 89.077623,37.0197811 88.9083292,36.4598093 C88.7286173,37.0163084 88.5541144,37.5528395 88.3770071,38.1032615 L89.4049243,38.1032615 L89.4049243,38.1032615 L89.4049243,38.1032615 Z M111.297652,1.88133171 L112.392419,0 L91.0475084,0.719715732 L78.3478682,0.719715732 L78.3478682,1.16248416 L92.8819587,1.16248416 L111.297652,1.88133171 L111.297652,1.88133171 L111.297652,1.88133171 Z M100.594811,37.9391767 L102.160128,37.9391767 L102.160128,37.1838659 L100.596547,37.1838659 L100.596547,36.1064627 L102.246945,36.1064627 C102.284276,35.8486152 102.321608,35.6037903 102.358939,35.3563609 L99.4366677,35.3563609 L99.4366677,39.9021167 L102.397139,39.9021167 C102.436207,39.6451374 102.473538,39.4003125 102.512606,39.1355196 L100.594811,39.1355196 L100.594811,37.9391767 L100.594811,37.9391767 L100.594811,37.9391767 Z M107.974285,37.6257661 C107.995121,37.6188207 108.016825,37.610139 108.035925,37.6049299 C108.391876,37.4703631 108.666219,37.2472425 108.762586,36.8661144 C108.902362,36.3104834 108.781686,35.7409617 108.173096,35.5056867 C108.02898,35.4492554 107.920458,35.4075831 107.765923,35.3798016 C107.673029,35.3633063 107.531516,35.3528882 107.438622,35.3416019 L105.388864,35.346811 L105.388864,39.9142711 L106.547008,39.9142711 L106.545271,36.0969128 C106.804855,36.0691312 107.057494,36.0604495 107.303187,36.1516077 C107.469008,36.2115117 107.581002,36.3330559 107.613125,36.5092951 C107.69126,36.9277547 107.57232,37.2984647 107.026239,37.3505551 C106.926399,37.360105 106.690256,37.3583687 106.586944,37.3557642 L108.058498,39.9498662 L109.260918,39.9516026 L107.910908,37.6448659 C107.931744,37.6370524 107.95258,37.6335797 107.974285,37.6257661 L107.974285,37.6257661 L107.974285,37.6257661 Z M96.4900873,28.8433242 L94.8179854,29.4892452 L78.3478682,29.4892452 L78.3478682,29.9320136 L94.4229665,29.9320136 L95.3961888,30.7237877 L95.8580571,29.9320136 L112.534799,29.9320136 L112.534799,29.4892452 L96.1150364,29.4892452 L96.4900873,28.8433242 L96.4900873,28.8433242 L96.4900873,28.8433242 Z M107.552352,8.85276395 L92.5294803,9.57161151 L78.3478682,9.57161151 L78.3478682,10.0143799 L93.7336368,10.0143799 L106.457586,10.7340957 L106.876045,10.0143799 L112.534799,10.0143799 L112.534799,9.57161151 L107.132157,9.57161151 L107.552352,8.85276395 L107.552352,8.85276395 L107.552352,8.85276395 Z M95.2807218,30.9798989 L93.7883317,31.6987464 L78.3478682,31.6987464 L78.3478682,32.1415149 L93.6381377,32.1415149 L94.1868233,32.8603624 L94.6052829,32.1415149 L112.534799,32.1415149 L112.534799,31.6987464 L94.8622622,31.6987464 L95.2807218,30.9798989 L95.2807218,30.9798989 L95.2807218,30.9798989 Z M108.762586,6.63979001 L92.1596385,7.35863757 L78.347,7.35863757 L78.347,7.80140599 L93.5200662,7.80140599 L107.666083,8.52112172 L108.084543,7.80140599 L112.533931,7.80140599 L112.533931,7.35863757 L108.34239,7.35863757 L108.762586,6.63979001 L108.762586,6.63979001 L108.762586,6.63979001 Z M111.181317,2.21297394 L91.4182184,2.93268968 L78.3478682,2.93268968 L78.3478682,3.3754581 L93.0946612,3.3754581 L110.088287,4.09430566 L110.50501,3.3754581 L112.534799,3.3754581 L112.534799,2.93268968 L110.762858,2.93268968 L111.181317,2.21297394 L111.181317,2.21297394 L111.181317,2.21297394 Z M109.970215,4.42681606 L91.7889284,5.14566362 L78.3478682,5.14566362 L78.3478682,5.58843205 L93.3073637,5.58843205 L108.878053,6.30814778 L109.295645,5.58843205 L112.533931,5.58843205 L112.533931,5.14566362 L109.551756,5.14566362 L109.970215,4.42681606 L109.970215,4.42681606 L109.970215,4.42681606 Z"></path>
        </g>
    </g>
</svg>