<?xml version="1.0" encoding="UTF-8"?>
<svg width="67px" height="40px" id="Layer_2" data-name="Layer 2" xmlns="http://www.w3.org/2000/svg" viewBox="0 0 55.44 40">
  <defs>
    <style>
      .cls-1, .cls-2 {
        fill: #346275;
      }

      .cls-2 {
        fill-rule: evenodd;
      }
    </style>
  </defs>
  <g id="Layer_2-2" data-name="Layer 2">
    <g id="Payments">
      <g id="maestro">
        <path class="cls-2" d="M47.4,16.79c0,.29-.03,.54-.07,.78-.17,1.01-1.08,1.6-1.5,1.6-.7,0-1.13-.58-1.13-1.46,0-1.04,.61-2.22,1.62-2.22,.79,0,1.08,.64,1.08,1.32h0Zm2.22,3.12h-.05v.12h.12s.03-.03,.03-.06c0-.02,0-.04-.03-.05,0,0-.05,0-.06,0h0Zm4.61,5.61c.05,.08,.07,.18,.07,.27s-.03,.18-.07,.27c-.05,.08-.11,.16-.19,.2s-.18,.07-.27,.07-.18-.03-.27-.07-.15-.12-.2-.2c-.05-.08-.07-.18-.07-.27s.03-.18,.07-.27c.05-.08,.12-.15,.2-.2,.08-.05,.18-.07,.27-.07s.18,.03,.26,.07c.09,.05,.16,.11,.2,.2h0Zm-.35,.27s.07-.06,.07-.12c0-.05-.02-.09-.05-.11-.05-.03-.09-.03-.12-.03h-.18v.45h.09v-.18h.07l.07,.18h.12l-.07-.19h0Zm-26.43-9.57c0-.53-.33-.83-.91-.83-.64,0-1.08,.42-1.26,1.16h2.18v-.33h0Zm22.58,3.83c0,.21-.17,.39-.38,.39s-.4-.18-.4-.39,.18-.39,.4-.39,.38,.18,.38,.39h0Zm-.26,.03s.07-.06,.07-.12-.03-.09-.05-.11c-.05-.03-.09-.03-.12-.03h-.18v.45h.09v-.18h.07l.07,.18h.12l-.07-.19h0Zm-10.92,13.1c-4.28,0-8.2-1.62-11.13-4.29-2.94,2.66-6.84,4.28-11.12,4.28C7.43,33.19,0,25.76,0,16.6S7.38,.06,16.49,0c4.39,0,8.28,1.62,11.23,4.29,2.94-2.67,6.85-4.29,11.13-4.29,9.16,0,16.59,7.42,16.59,16.59s-7.42,16.6-16.59,16.61h0ZM17.23,12.58h-3.18l-2.18,4.95-.14-4.95h-3.07l-1.52,7.99h1.78l1.17-6.1,.33,6.1h1.78l2.7-6.15-1.17,6.15h1.97l1.55-7.99h0Zm5.56,3.25c0-1.25-.9-1.9-2.58-1.9-.73,0-1.36,.09-2.34,.34l-.26,1.47,.17-.05,.29-.07c.42-.11,1.05-.18,1.62-.18,.91,0,1.26,.16,1.26,.59,0,.12-.03,.21-.07,.42-.3-.03-.58-.05-.79-.05-2.18,0-3.44,.92-3.44,2.51,0,1.05,.73,1.77,1.78,1.77,.89,0,1.57-.25,2.06-.78l-.05,.67h1.64l.02-.18,.03-.22,.05-.33,.07-.42,.42-2.31c.12-.72,.14-.97,.14-1.28h0v-.02Zm.34,1.95c0,1.91,1.14,2.92,3.35,2.92,.68,0,1.34-.08,1.99-.26l.32-1.62c-.7,.29-1.34,.42-2.04,.42-1.13,0-1.71-.39-1.71-1.14,0-.06,0-.11,.03-.2h3.89c.17-.66,.24-1.13,.24-1.61,0-1.44-1.03-2.36-2.65-2.36-1.97,0-3.42,1.64-3.42,3.87h0Zm11.42-3.74c-.52-.07-1.28-.13-1.75-.13-2.21,0-2.98,1-2.98,2.2,0,.82,.47,1.38,1.52,1.81,.79,.32,.91,.42,.91,.72,0,.41-.35,.58-1.13,.58-.61,0-1.14-.07-1.78-.26l-.29,1.5,.09,.02,.35,.06c.12,.03,.3,.05,.54,.06,.47,.04,.82,.06,1.08,.06,2.11,0,3.07-.68,3.07-2.17,0-.9-.4-1.41-1.4-1.81-.82-.33-.91-.41-.91-.71,0-.35,.32-.53,.96-.53,.4,0,.91,.04,1.43,.09l.28-1.5h0v.02Zm2.11,4.58c0-.06,0-.15,.03-.27l.52-2.71h1.01l.29-1.58h-1.01l.28-1.5h-1.95l-.91,4.97-.09,.52-.12,.64c-.03,.2-.05,.4-.05,.58,0,.92,.54,1.43,1.55,1.43,.44,0,.87-.06,1.4-.21l.26-1.44c-.14,.05-.3,.06-.52,.06-.47,0-.68-.15-.68-.48h0Zm5.72-2.72l.23,.05,.7-1.84c-.17-.06-.18-.06-.21-.07-.09-.02-.17-.04-.17-.04-.07,0-.14-.02-.21-.02-.64,0-1.1,.29-1.71,1.05l.18-.99h-1.78l-1.2,6.5h1.97c.7-3.98,1.01-4.67,1.95-4.67,.07,0,.15,0,.24,.02h0Zm7.06,1.72c.05-.38,.05-.41,.05-.81,0-1.65-1.08-2.94-3.12-2.94-2.34,0-3.87,1.56-3.87,3.87,0,1.65,.89,3,3.12,3,2.01,0,3.52-.96,3.82-3.12h0Zm.73,2.44c0-.28-.23-.51-.52-.51s-.52,.23-.52,.51,.23,.51,.52,.51,.52-.23,.52-.51h0Zm-31.65-1.42c0,.41,.26,.66,.7,.66,.79,0,1.36-.66,1.4-1.62-.21-.02-.3-.03-.44-.03-1.1,0-1.66,.33-1.66,.99h0Zm35.23,7h-.05v.12h.12s.03-.03,.03-.06c0-.02,0-.04-.03-.05h-.07v-.02Z"/>
      </g>
    </g>
    <g>
      <g>
        <path class="cls-1" d="M18.22,34.63c-.62,.29-1.13,.54-1.13,.56,0,.05,1.84,3.95,1.93,4.08,.11,.17,.31,.34,.51,.44,.15,.08,.2,.09,.48,.09s.34,0,.49-.09c.16-.08,.43-.32,.53-.48,.03-.05,.04-.05,.06-.01,.04,.11,.37,.4,.54,.49,.16,.08,.21,.09,.5,.09s.33,0,.49-.09c.23-.13,.45-.34,.57-.56,.06-.1,.5-1.04,.98-2.09l.88-1.9-.22-.1c-.13-.06-.64-.3-1.16-.54s-.94-.42-.95-.4-.38,.8-.82,1.75c-.44,.95-.81,1.73-.82,1.73,0,0-.39-.78-.84-1.74-.45-.95-.83-1.74-.85-1.75-.01,0-.54,.23-1.16,.52h0Zm1.61,1.95c.41,.87,.77,1.64,.8,1.71l.06,.13-.08,.18c-.18,.4-.34,.54-.61,.54-.18,0-.32-.08-.44-.26-.04-.06-.26-.52-.5-1.02-.23-.51-.58-1.23-.76-1.62s-.34-.72-.34-.74c0-.04,1.04-.52,1.09-.51,.02,0,.37,.72,.77,1.59h0Zm3.78-1.34c.33,.15,.53,.27,.52,.29,0,.02-.35,.77-.76,1.67-.87,1.89-.9,1.93-1.22,1.95-.16,0-.2,0-.32-.08-.09-.06-.16-.17-.26-.35-.07-.14-.13-.27-.13-.3,0-.02,.34-.77,.76-1.67,.42-.89,.77-1.66,.79-1.7,.01-.04,.04-.07,.05-.07s.27,.11,.56,.25h0Z"/>
        <path class="cls-1" d="M29.98,34.85c-.3,.16-.29,.65,.02,.78,.18,.08,.38,.04,.51-.09,.11-.13,.15-.23,.12-.38-.06-.29-.39-.45-.64-.31Z"/>
        <path class="cls-1" d="M46.94,36.93v2.1h.7v-4.2h-.7v2.1h0Z"/>
        <path class="cls-1" d="M48.46,36.93v2.1h.7v-4.2h-.7v2.1h0Z"/>
        <path class="cls-1" d="M53.45,35.79v.42h-.54v.66h.53v.71c.03,.64,.03,.74,.09,.89,.15,.39,.42,.57,.9,.59,.15,0,.34,0,.42-.02,.18-.04,.58-.22,.58-.27,0-.02-.05-.15-.11-.3-.08-.18-.13-.26-.16-.25-.03,0-.14,.05-.25,.09-.31,.13-.59,.08-.7-.13-.03-.06-.04-.26-.05-.71v-.62s1.1,0,1.1,0v-.66h-1.11v-.85h-.7v.42h0Z"/>
        <path class="cls-1" d="M35.22,36.16c-.35,.09-.7,.37-.85,.67-.26,.51-.23,1.2,.08,1.66,.25,.37,.59,.56,1.06,.59,.32,.02,.56-.06,.76-.23,.06-.06,.13-.11,.14-.11,0,0,.02,.06,.02,.14v.14h.7v-2.83h-.35l-.34-.02v.15c0,.08,0,.14-.02,.14s-.07-.04-.13-.09c-.18-.16-.37-.23-.65-.24-.14,0-.32,0-.39,.03h-.01Zm.7,.68c.18,.06,.39,.27,.45,.45s.06,.46,0,.64c-.15,.43-.63,.62-1.04,.42-.28-.13-.42-.38-.42-.75,0-.18,.01-.26,.08-.39,.17-.35,.56-.5,.94-.37h0Z"/>
        <path class="cls-1" d="M40.35,36.18c-.05,.03-.11,.08-.15,.11-.04,.04-.37,.93-.73,1.95-.01,.05-.04,.08-.05,.06-.01-.01-.19-.49-.39-1.05s-.37-1.03-.37-1.04c0,0-.16,.04-.34,.11-.21,.08-.32,.13-.32,.16,.04,.18,.91,2.28,.97,2.36,.18,.23,.51,.3,.75,.15,.18-.11,.27-.28,.56-1.01,.14-.36,.27-.65,.28-.64s.14,.32,.28,.68c.27,.69,.38,.87,.57,.97,.13,.07,.34,.08,.48,.02,.23-.09,.3-.23,.78-1.42,.24-.62,.44-1.14,.44-1.15s-.15-.08-.33-.14c-.24-.08-.34-.11-.35-.08-.18,.51-.7,1.93-.72,2.01-.04,.11-.04,.09-.4-.89-.2-.54-.39-1.03-.42-1.08-.13-.18-.37-.23-.54-.12h-.01Z"/>
        <path class="cls-1" d="M44.29,36.17c-.23,.06-.41,.18-.6,.38-.2,.2-.3,.43-.37,.76-.14,.68,.19,1.38,.78,1.66,.17,.08,.25,.1,.49,.11,.24,0,.31,0,.47-.06,.1-.04,.23-.12,.3-.18,.06-.06,.12-.11,.13-.11,0,0,.01,.06,0,.13v.13h.35l.35,.02v-2.83h-.71v.13c0,.07,0,.13-.01,.13s-.06-.04-.12-.09c-.06-.06-.18-.13-.25-.16-.19-.08-.59-.1-.82-.04h0Zm.72,.67c.49,.17,.66,.88,.33,1.32-.12,.16-.37,.27-.58,.27-.2,0-.45-.1-.56-.22-.21-.23-.27-.7-.11-1,.17-.35,.56-.5,.93-.37h0Z"/>
        <path class="cls-1" d="M50.84,36.16c-.52,.13-.89,.51-1.01,1.04-.06,.25-.06,.59,0,.83,.15,.55,.53,.92,1.08,1.02,.26,.05,.73,.03,.95-.05,.2-.07,.53-.26,.56-.32,0-.03-.08-.13-.2-.26l-.21-.21-.15,.09c-.19,.12-.32,.15-.58,.15-.28,0-.51-.11-.65-.33-.2-.28-.25-.27,.9-.27,.89,0,1.01,0,1.02-.05,.03-.08,.02-.34-.03-.56-.1-.47-.35-.81-.76-1-.18-.08-.25-.09-.5-.11-.16,0-.35,0-.44,.03h0Zm.7,.68c.13,.08,.27,.26,.3,.43l.02,.09h-1.35l.03-.12c.1-.41,.61-.61,.99-.39h0Z"/>
        <path class="cls-1" d="M29.85,37.61v1.42h.7v-2.83h-.35l-.34-.02v1.42h0Z"/>
        <path class="cls-1" d="M26.75,36.33c-.15,.05-.29,.11-.32,.12-.04,.02,.01,.18,.4,1.16,.25,.63,.49,1.19,.54,1.25,.18,.24,.53,.31,.76,.15,.14-.09,.18-.14,.27-.3,.06-.13,.88-2.18,.88-2.23,0-.03-.64-.27-.66-.25,0,0-.71,1.93-.77,2.11,0,.03-.18-.44-.67-1.81-.06-.18-.12-.32-.13-.32,0,0-.14,.04-.28,.1h0Z"/>
        <path class="cls-1" d="M31.44,36.34c-.18,.06-.32,.12-.32,.13,0,.03,.82,2.1,.87,2.22,.06,.13,.22,.3,.33,.35,.22,.11,.56,.01,.73-.22,.04-.07,.28-.63,.52-1.24l.44-1.11-.08-.03c-.27-.1-.58-.21-.59-.2,0,0-.16,.44-.35,.97-.45,1.26-.41,1.16-.44,1.11-.01-.03-.18-.49-.38-1.04s-.37-1.01-.37-1.01c0-.01-.16,.03-.34,.09h0Z"/>
      </g>
      <g>
        <path class="cls-1" d="M13.41,37.92c.08,.06,.13,.13,.18,.22,.04,.09,.06,.18,.06,.28,0,.13-.03,.24-.09,.34s-.16,.18-.28,.24-.27,.09-.43,.09h-.92v-2.47h.89c.16,0,.31,.03,.43,.08s.21,.13,.27,.23,.09,.2,.09,.32c0,.15-.04,.27-.12,.36s-.18,.16-.32,.21c.09,.01,.17,.05,.25,.11h0Zm-1.16-.25h.54c.15,0,.27-.04,.35-.11,.08-.07,.13-.17,.13-.3s-.04-.22-.13-.3c-.08-.07-.2-.11-.36-.11h-.54v.8h0Zm.95,1.03c.09-.08,.13-.18,.13-.32s-.04-.25-.14-.32-.22-.12-.38-.12h-.56v.87h.57c.16,0,.28-.04,.37-.11h0Z"/>
        <path class="cls-1" d="M15.78,37.14l-1.17,2.86h-.34l.39-.94-.78-1.92h.36l.61,1.57,.6-1.57h.34Z"/>
        <path class="cls-1" d="M16.04,37.52s-.06-.09-.06-.16,.02-.11,.06-.16,.09-.06,.16-.06,.11,.02,.15,.06,.06,.09,.06,.16-.02,.11-.06,.16-.09,.06-.15,.06-.11-.02-.16-.06Zm0,1.52s-.06-.09-.06-.16,.02-.11,.06-.16,.09-.06,.16-.06,.11,.02,.15,.06,.06,.09,.06,.16-.02,.11-.06,.16-.09,.06-.15,.06-.11-.02-.16-.06Z"/>
      </g>
    </g>
  </g>
</svg>