<?xml version="1.0" encoding="UTF-8"?>
<svg width="67px" height="40px" id="Layer_2" data-name="Layer 2" xmlns="http://www.w3.org/2000/svg" viewBox="0 0 55.91 40">
  <defs>
    <style>
      .cls-1, .cls-2 {
        fill: #346275;
      }

      .cls-2 {
        fill-rule: evenodd;
      }
    </style>
  </defs>
  <g id="Layer_2-2" data-name="Layer 2">
    <g id="Payments">
      <g id="master">
        <path class="cls-2" d="M54.49,25.55c-.09-.05-.17-.08-.27-.08s-.18,.03-.27,.08-.15,.11-.2,.2c-.05,.09-.08,.18-.08,.27s.03,.18,.08,.27c.05,.09,.11,.15,.2,.2s.18,.08,.27,.08,.18-.03,.27-.08,.15-.11,.2-.2c.05-.09,.08-.17,.08-.27s-.03-.18-.08-.27c-.05-.09-.11-.15-.21-.2h0Zm-.13,.77l-.05-.09c-.04-.08-.08-.12-.09-.13-.02,0-.04-.02-.08-.02h-.06v.25h-.09v-.59h.2c.07,0,.12,0,.14,.02,.03,0,.06,.03,.08,.06,.02,.03,.03,.06,.03,.09,0,.05-.02,.08-.05,.11-.03,.03-.08,.05-.12,.06,.02,0,.04,.02,.05,.03,.03,.02,.05,.06,.09,.11l.08,.11s-.11,0-.11,0Zm-.06-.35s-.06,.03-.11,.03h-.11v-.17h.1s.08,0,.09,0,.03,.02,.04,.03c0,.02,0,.03,0,.05,0,.03,0,.05-.03,.07h0Zm-.53-5.88c-.08,.04-.13,.09-.17,.17s-.06,.15-.06,.23,.02,.15,.06,.23c.05,.08,.09,.12,.17,.17,.08,.04,.14,.07,.23,.07s.15-.02,.23-.07c.08-.04,.12-.09,.17-.17,.04-.08,.06-.14,.06-.23s-.02-.15-.06-.23-.09-.12-.17-.17c-.08-.04-.14-.06-.22-.06s-.15,.02-.22,.06h-.02Zm.41,.18s.03,.06,.03,.09c0,.05-.02,.08-.05,.11s-.08,.05-.12,.06c.02,0,.04,.02,.05,.03,.03,.03,.05,.06,.09,.11l.08,.11h-.11l-.05-.09c-.04-.08-.08-.12-.09-.13-.02-.02-.05-.02-.08-.02h-.06v.25h-.09v-.58h.2c.07,0,.12,0,.15,.02,.03,0,.06,.03,.08,.06h0Zm-.22,0s.08,0,.09,0c.02,0,.03,.02,.04,.03,0,.02,.02,.03,.02,.05,0,.03,0,.05-.03,.07s-.06,.03-.11,.03h-.11v-.18s.1,0,.1,0Zm-12.36-2.4c.3,0,.33,.03,.39,.04,.04,.3-.19,1.71-1.26,1.71-.55,0-.7-.42-.7-.67,0-.49,.27-1.07,1.57-1.07h0Zm-28.88,0c.3,0,.34,.03,.39,.04,.04,.3-.19,1.71-1.26,1.71-.55,0-.7-.42-.7-.67,0-.49,.27-1.07,1.57-1.07h0ZM27.95,4.33C24.98,1.64,21.05,0,16.73,0,7.44,.07,0,7.54,0,16.74s7.49,16.73,16.73,16.73c4.31,0,8.25-1.64,11.22-4.32,2.97,2.69,6.91,4.33,11.23,4.33,9.24,0,16.73-7.49,16.73-16.74S48.41,0,39.17,0c-4.32,0-8.25,1.64-11.23,4.33ZM6.83,20.99l1.01-6.39-2.29,6.39h-1.23l-.16-6.39-1.08,6.39H1.36l1.42-8.49h2.6l.09,5.21,1.75-5.21h2.82l-1.4,8.49h-1.82Zm6.07,0l.06-.68s-.57,.81-1.83,.81c-.65,0-1.72-.36-1.72-1.92,0-1.98,1.62-2.64,3.15-2.64,.25,0,.77,.05,.77,.05,0,0,.06-.12,.06-.45,0-.54-.48-.62-1.15-.62-1.17,0-1.94,.31-1.94,.31l.26-1.53s.94-.39,2.16-.39c.63,0,2.44,.07,2.44,2.15l-.7,4.91h-1.55Zm6.63-2.16c0,2.37-2.29,2.26-2.69,2.26-1.5,0-1.96-.21-2-.22l.24-1.55s.75,.27,1.58,.27c.48,0,1.1-.05,1.1-.63,0-.86-2.23-.65-2.23-2.69,0-1.8,1.34-2.33,2.65-2.33,1.01,0,1.65,.14,1.65,.14l-.23,1.57s-.97-.08-1.21-.08c-.63,0-.98,.14-.98,.58,0,.89,2.12,.45,2.12,2.66h0Zm2.76,.62c.16,0,.34-.06,.45-.06l-.23,1.52c-.18,.05-.68,.23-1.34,.24-.83,0-1.42-.45-1.42-1.51,0-.71,1.01-6.53,1.05-6.57h1.78l-.18,1.04h.89l-.23,1.68h-.95l-.5,3.09c-.04,.25,.03,.58,.65,.58h0Zm3.92-5.55c1.95,0,2.54,1.43,2.54,2.61,0,.47-.24,1.62-.24,1.62h-3.62s-.33,1.42,1.58,1.42c.9,0,1.89-.44,1.89-.44l-.31,1.71s-.58,.29-1.89,.29c-1.41,0-3.08-.6-3.08-3.12,0-2.18,1.33-4.11,3.12-4.11h0Zm4.32,7.11h-1.83l1.11-6.91h1.66l-.16,1s.59-1.09,1.39-1.09c.23,0,.34,.02,.34,.02-.24,.48-.45,.93-.66,2.07-1.24-.44-1.34,1.95-1.86,4.91h0Zm6.96-.1s-.96,.25-1.55,.25c-2.12,0-3.2-1.47-3.2-3.69,0-3.35,2-5.13,4.05-5.13,.93,0,2.01,.44,2.01,.44l-.29,1.89s-.73-.51-1.64-.51c-1.21,0-2.3,1.16-2.3,3.26,0,1.03,.5,2,1.77,2,.6,0,1.47-.44,1.47-.44l-.32,1.94h0Zm4.29,.09l.06-.68s-.57,.81-1.83,.81c-.65,0-1.72-.36-1.72-1.92,0-1.98,1.62-2.64,3.15-2.64,.25,0,.77,.05,.77,.05,0,0,.06-.12,.06-.45,0-.54-.48-.62-1.15-.62-1.17,0-1.94,.31-1.94,.31l.26-1.53s.94-.39,2.16-.39c.63,0,2.44,.07,2.44,2.15l-.7,4.91h-1.55Zm3.7,.02h-1.83l1.11-6.91h1.66l-.16,1s.6-1.09,1.39-1.09c.23,0,.34,.02,.34,.02-.24,.48-.45,.93-.66,2.07-1.24-.44-1.34,1.95-1.86,4.91h0Zm8.98-.8c.05,.09,.08,.18,.08,.27s-.02,.18-.08,.27c-.05,.09-.11,.15-.2,.2s-.17,.08-.27,.08-.18-.03-.27-.08-.15-.11-.2-.2c-.05-.09-.08-.17-.08-.27s.03-.18,.08-.27c.05-.09,.11-.15,.2-.2s.17-.08,.27-.08,.18,.03,.27,.08,.15,.11,.2,.2h0Zm-2.6-5.31l.39-2.39h1.78l-1.36,8.47h-1.73l.08-.63s-.59,.75-1.66,.75c-1.48,0-2.21-1.43-2.21-2.89,0-2.26,1.36-4.23,2.99-4.23,1.05,0,1.72,.93,1.72,.93h0Zm-24.83,1.82h-1.98c0-.11,.19-1.22,1.16-1.22s.82,1.13,.82,1.22h0Zm23.42-1.02c.64,0,.97,.44,.97,1.48,0,.94-.46,2.2-1.43,2.2-.64,0-.94-.54-.94-1.38,0-1.38,.62-2.29,1.4-2.29h0Z"/>
      </g>
    </g>
    <g>
      <g>
        <path class="cls-1" d="M20.65,34.91c-.59,.28-1.07,.51-1.07,.53,0,.05,1.74,3.74,1.83,3.87,.11,.16,.29,.32,.48,.42,.14,.07,.19,.08,.46,.08s.32,0,.47-.08c.15-.07,.41-.31,.5-.46,.03-.05,.04-.05,.05-.01,.04,.1,.35,.38,.51,.47,.16,.08,.2,.08,.47,.08s.31,0,.46-.08c.22-.12,.43-.32,.54-.53,.05-.1,.47-.99,.93-1.98l.83-1.8-.21-.1c-.12-.05-.61-.28-1.1-.51s-.89-.4-.9-.38-.36,.76-.78,1.66c-.42,.9-.77,1.64-.77,1.64,0,0-.37-.74-.8-1.65-.43-.9-.79-1.65-.81-1.66-.01,0-.51,.22-1.1,.49h0Zm1.53,1.84c.39,.82,.73,1.55,.76,1.62l.05,.12-.08,.17c-.17,.38-.32,.52-.57,.52-.17,0-.3-.08-.41-.25-.04-.05-.25-.49-.47-.96-.22-.48-.55-1.17-.72-1.54s-.32-.68-.32-.7c0-.04,.98-.5,1.03-.49,.02,0,.35,.68,.73,1.5h0Zm3.58-1.27c.31,.14,.5,.25,.5,.28,0,.02-.33,.73-.72,1.58-.83,1.79-.85,1.83-1.16,1.85-.16,0-.19,0-.3-.08-.08-.06-.16-.16-.25-.33-.07-.13-.13-.26-.13-.28,0-.02,.32-.73,.72-1.58,.4-.84,.73-1.57,.75-1.61,.01-.04,.04-.07,.05-.07s.25,.11,.53,.24h0Z"/>
        <path class="cls-1" d="M31.79,35.12c-.29,.16-.28,.62,.02,.74,.17,.07,.36,.04,.48-.09,.11-.12,.14-.22,.11-.36-.05-.28-.37-.43-.61-.29Z"/>
        <path class="cls-1" d="M47.86,37.09v1.99h.66v-3.98h-.66v1.99h0Z"/>
        <path class="cls-1" d="M49.29,37.09v1.99h.66v-3.98h-.66v1.99h0Z"/>
        <path class="cls-1" d="M54.02,36.01v.4h-.51v.63h.5v.68c.02,.61,.03,.7,.09,.84,.14,.37,.4,.54,.85,.56,.14,0,.32,0,.4-.02,.17-.04,.55-.21,.55-.25,0-.02-.05-.14-.11-.28-.08-.17-.13-.25-.16-.23-.02,0-.13,.05-.23,.09-.29,.13-.56,.07-.66-.13-.03-.05-.04-.25-.05-.67v-.59s1.04,0,1.04,0v-.63h-1.05v-.81h-.66v.4h0Z"/>
        <path class="cls-1" d="M36.75,36.36c-.33,.09-.66,.35-.8,.63-.25,.49-.22,1.14,.07,1.57,.23,.35,.56,.53,1,.56,.3,.02,.53-.05,.72-.22,.06-.05,.12-.1,.13-.1,0,0,.02,.06,.02,.13v.13h.66v-2.68h-.33l-.32-.02v.14c0,.07,0,.13-.02,.13s-.07-.04-.13-.09c-.17-.15-.35-.22-.62-.23-.13,0-.3,0-.37,.03h-.01Zm.66,.64c.17,.06,.37,.25,.43,.43s.06,.44,0,.6c-.14,.41-.59,.59-.99,.4-.26-.12-.4-.36-.4-.71,0-.17,.01-.25,.07-.37,.16-.33,.53-.47,.89-.35h0Z"/>
        <path class="cls-1" d="M41.61,36.38s-.11,.08-.14,.11c-.04,.04-.35,.88-.69,1.84-.01,.05-.04,.07-.05,.06-.01-.01-.18-.46-.37-.99s-.35-.98-.35-.98c0,0-.15,.04-.32,.11-.2,.07-.31,.13-.3,.16,.04,.17,.86,2.16,.92,2.23,.17,.22,.49,.28,.71,.14,.17-.11,.26-.26,.53-.95,.13-.34,.26-.62,.27-.6s.13,.31,.26,.65c.26,.65,.36,.83,.54,.92,.12,.07,.32,.07,.46,.02,.22-.09,.29-.22,.74-1.35,.23-.59,.42-1.08,.42-1.09s-.14-.07-.31-.13c-.23-.08-.32-.1-.33-.07-.17,.48-.66,1.83-.68,1.9-.04,.1-.04,.08-.38-.84-.19-.52-.37-.98-.4-1.02-.12-.17-.35-.22-.52-.11h-.01Z"/>
        <path class="cls-1" d="M45.35,36.37c-.22,.06-.39,.17-.57,.36-.19,.19-.29,.41-.35,.72-.13,.64,.18,1.31,.74,1.57,.16,.08,.24,.1,.47,.11,.23,0,.29,0,.44-.05,.1-.04,.22-.11,.29-.17,.06-.05,.11-.1,.13-.1,0,0,.01,.05,0,.13v.13h.34l.34,.02v-2.68h-.67v.13c0,.07,0,.13-.01,.13s-.05-.04-.11-.09c-.06-.05-.17-.12-.24-.16-.18-.08-.56-.1-.77-.04h0Zm.68,.63c.46,.16,.63,.83,.31,1.25-.11,.15-.35,.26-.55,.26-.19,0-.43-.1-.53-.21-.2-.22-.25-.66-.11-.95,.16-.33,.53-.47,.88-.35h0Z"/>
        <path class="cls-1" d="M51.55,36.36c-.49,.13-.84,.48-.96,.98-.05,.24-.05,.56,0,.78,.14,.52,.5,.87,1.02,.97,.25,.05,.69,.02,.9-.05,.19-.07,.5-.25,.53-.3,0-.02-.07-.13-.19-.25l-.2-.2-.14,.08c-.18,.11-.31,.14-.55,.14-.27,0-.48-.11-.62-.31-.19-.27-.23-.26,.86-.26,.84,0,.96,0,.97-.05,.03-.08,.02-.32-.02-.53-.1-.45-.34-.77-.72-.95-.17-.08-.24-.09-.47-.1-.16,0-.34,0-.42,.02h0Zm.66,.64c.13,.07,.25,.25,.29,.41l.02,.08h-1.28l.03-.11c.1-.39,.57-.58,.94-.37h0Z"/>
        <path class="cls-1" d="M31.67,37.74v1.35h.66v-2.68h-.33l-.32-.02v1.35h0Z"/>
        <path class="cls-1" d="M28.73,36.52c-.14,.05-.28,.1-.31,.11-.04,.02,.01,.17,.38,1.1,.23,.59,.46,1.13,.51,1.18,.17,.23,.5,.29,.72,.14,.13-.09,.17-.13,.25-.29,.06-.12,.83-2.07,.83-2.11,0-.02-.6-.25-.62-.23,0,0-.67,1.83-.73,2,0,.02-.17-.41-.63-1.71-.06-.17-.11-.31-.13-.3,0,0-.13,.04-.27,.1h0Z"/>
        <path class="cls-1" d="M33.17,36.53c-.17,.06-.31,.11-.31,.13,0,.03,.77,1.99,.83,2.1,.06,.12,.21,.28,.31,.34,.21,.11,.53,.01,.69-.21,.04-.07,.27-.59,.5-1.17l.41-1.05-.08-.03c-.26-.1-.55-.2-.56-.19,0,0-.16,.42-.34,.92-.43,1.19-.39,1.1-.42,1.05-.01-.02-.17-.47-.36-.99s-.35-.95-.35-.96c0-.01-.16,.03-.32,.09h0Z"/>
      </g>
      <g>
        <path class="cls-1" d="M16.09,38.03c.07,.05,.13,.13,.17,.21,.04,.08,.06,.17,.06,.26,0,.12-.03,.23-.09,.32s-.15,.17-.26,.23-.25,.08-.41,.08h-.87v-2.34h.84c.16,0,.29,.02,.41,.08s.2,.13,.25,.22,.08,.19,.08,.31c0,.14-.04,.25-.11,.34s-.17,.16-.3,.2c.08,.01,.16,.05,.23,.1h0Zm-1.1-.23h.52c.14,0,.25-.04,.34-.1,.08-.07,.12-.16,.12-.28s-.04-.21-.12-.28c-.08-.07-.19-.1-.34-.1h-.51v.76h0Zm.9,.98c.08-.07,.13-.17,.13-.3s-.04-.23-.13-.31-.21-.11-.36-.11h-.53v.83h.54c.15,0,.27-.04,.35-.11h0Z"/>
        <path class="cls-1" d="M18.33,37.29l-1.11,2.71h-.32l.37-.89-.74-1.82h.34l.57,1.49,.57-1.49h.32Z"/>
        <path class="cls-1" d="M18.58,37.65s-.06-.09-.06-.15,.02-.11,.06-.15,.09-.06,.15-.06,.1,.02,.14,.06,.06,.09,.06,.15-.02,.11-.06,.15-.09,.06-.14,.06-.11-.02-.15-.06Zm0,1.44s-.06-.09-.06-.15,.02-.11,.06-.15,.09-.06,.15-.06,.1,.02,.14,.06,.06,.09,.06,.15-.02,.11-.06,.15-.09,.06-.14,.06-.11-.02-.15-.06Z"/>
      </g>
    </g>
  </g>
</svg>