<svg xmlns="http://www.w3.org/2000/svg" width="35" height="40" viewBox="0 0 35 40">
  <path fill="#346275" d="M34.6014257,0 L34.6014257,40 L0,40 L0,0 L34.6014257,0 Z M33.5396833,8.85977336 L1.06162634,8.85977336 L1.06162634,38.9975851 L33.5396833,38.9975851 L33.5396833,8.85977336 Z M26.7660568,11.189674 L26.7660568,14.5128291 L30.1141736,20.1847049 L26.8660196,20.1847049 L25.3168857,17.1363605 L23.7677518,20.1847049 L20.4696744,20.1847049 L23.8176752,14.4627897 L23.8176752,11.189674 L26.7660568,11.189674 Z M14.9723564,11.189732 L15.3097455,12.3765151 L18.2455882,12.3765151 L18.5955162,11.189732 L21.5313589,11.189732 L18.3080504,20.1846468 L15.3097455,20.1846468 L12.0865532,11.189732 L14.9723564,11.189732 Z M7.82652209,11.1896972 L7.82652209,13.9880764 L9.3131937,13.9880764 C11.8992245,13.9880764 13.048623,15.2124762 13.048623,17.1488065 C13.048623,18.9361949 11.8811642,20.1047573 9.46727672,20.1806755 L9.21311475,20.184612 L4.87814054,20.184612 L4.87814054,11.1896972 L7.82652209,11.1896972 Z M9.05080575,16.0869479 L7.82652209,16.0869479 L7.82652209,18.0858566 L8.66349324,18.0858566 C9.28811591,18.0858566 10.2375888,17.9734709 10.2375888,17.1363837 C10.2375888,16.3617587 9.73789067,16.0869479 9.05080575,16.0869479 Z M17.7334672,14.2504992 L15.872022,14.2504992 L16.7839944,17.4736916 L17.7334672,14.2504992 Z M22.9977941,1.59974226 L22.0956903,1.59974226 L22.0956903,4.04041472 L21.6978127,4.04041472 L21.6978127,4.83617005 L22.0956903,4.83617005 L22.0956903,5.07498955 L22.1008066,5.21770012 C22.148494,5.86246718 22.5286382,6.20906284 23.2032926,6.20906284 C23.3956718,6.20906284 23.6476107,6.17597407 23.7803139,6.14938698 L23.7803139,6.14938698 L23.7803139,5.38010262 L23.6560915,5.39749236 C23.5407761,5.41241496 23.4487589,5.41992522 23.3492314,5.41992522 C23.1104119,5.41992522 22.9977941,5.31380904 22.9977941,5.00207822 L22.9977941,5.00207822 L22.9977941,4.83617005 L23.5680815,4.83617005 L23.5680815,4.04041472 L22.9977941,4.04041472 L22.9977941,1.59974226 Z M9.1937259,1.59968421 L8.29835602,1.59968421 L8.29835602,5.94383039 L9.49210513,5.94383039 L10.4339154,3.24448521 L10.4339154,5.94383039 L11.3292853,5.94383039 L11.3292853,1.59968421 L10.1620071,1.59968421 L9.1937259,4.29902938 L9.1937259,1.59968421 Z M14.1325988,1.59976548 L11.6256328,1.59976548 L11.6256328,5.94379558 L14.1325988,5.94379558 L14.1325988,5.08163051 L12.5607092,5.08163051 L12.5607092,4.23270099 L13.9998955,4.23270099 L13.9998955,3.37715367 L12.5607092,3.37715367 L12.5607092,2.46193053 L14.1325988,2.46193053 L14.1325988,1.59976548 Z M16.3146101,1.59976548 L15.3727999,1.59976548 L15.3727999,5.08163051 L14.3912832,5.08163051 L14.3912832,5.94379558 L17.2961269,5.94379558 L17.2961269,5.08163051 L16.3146101,5.08163051 L16.3146101,1.59976548 Z M18.0102169,5.05608834 C17.7650119,5.05608834 17.5663632,5.25485303 17.5663632,5.49994196 C17.5663632,5.74503089 17.7650119,5.94379558 18.0102169,5.94379558 C18.2553058,5.94379558 18.4540705,5.74503089 18.4540705,5.49994196 C18.4540705,5.25485303 18.2553058,5.05608834 18.0102169,5.05608834 Z M19.8607022,1.59973065 L18.9585984,1.59973065 L18.9585984,4.83627457 L19.7876747,4.83627457 L19.7876747,4.41180977 L19.8765783,4.53626673 C20.0883851,4.80406927 20.3307365,4.91580365 20.6033994,4.91580365 C21.0942739,4.91580365 21.3926531,4.57098406 21.3926531,3.78173036 L21.3926531,3.78173036 L21.3926531,1.59973065 L20.4840478,1.59973065 L20.4840478,3.69546741 L20.4803665,3.79523207 C20.4633092,4.00601185 20.3878292,4.06699021 20.2718154,4.06699021 C20.1391121,4.06699021 19.9866716,3.95414016 19.8607022,3.76849486 L19.8607022,3.76849486 L19.8607022,1.59973065 Z M24.9941834,1.52015511 C24.1717248,1.52015511 23.7604955,1.95123764 23.7604955,2.76707844 L23.7604955,2.76707844 L23.7604955,3.66894997 L23.7653146,3.81628892 C23.8135056,4.5310597 24.2231285,4.9157572 24.9941834,4.9157572 C25.8297613,4.9157572 26.2342567,4.47805693 26.2342567,3.66894997 L26.2342567,3.66894997 L26.2342567,2.76707844 L26.2295828,2.61971906 C26.1827864,1.90485262 25.7837418,1.52015511 24.9941834,1.52015511 Z M18.4611991,1.59975387 L17.5592115,1.59975387 L17.5592115,4.83618166 L18.4611991,4.83618166 L18.4611991,1.59975387 Z M25.000685,2.31602656 C25.2130335,2.31602656 25.3390029,2.45534761 25.3390029,2.72063809 L25.3390029,2.72063809 L25.3390029,3.71539033 L25.3331754,3.80865402 C25.3061609,4.01175592 25.1864899,4.113268 25.000685,4.113268 C24.7884526,4.113268 24.6691009,3.9806808 24.6691009,3.70877258 L24.6691009,3.70877258 L24.6691009,2.72063809 L24.6746438,2.62708505 C24.7003901,2.42269424 24.8149817,2.31602656 25.000685,2.31602656 Z" transform="matrix(1 0 0 -1 0 40)"/>
</svg>
