<?xml version="1.0" encoding="UTF-8"?>
<svg width="124px" height="40px" id="Layer_2" data-name="Layer 2" xmlns="http://www.w3.org/2000/svg" viewBox="0 0 92.57 39.31">
  <defs>
    <style>
      .cls-1, .cls-2 {
        fill: #346275;
      }

      .cls-2 {
        fill-rule: evenodd;
      }
    </style>
  </defs>
  <g id="Layer_1-2" data-name="Layer 1">
    <g id="Payments">
      <g id="visa">
        <path class="cls-2" d="M28.05,29.16L36.69,.56h7.75l-8.7,28.61h-7.7ZM24.54,.61l-6.91,12.1c-1.78,3.18-2.79,4.8-3.29,6.8h-.11c.11-2.57-.22-5.69-.28-7.42L13.16,.61H.11l-.11,.78c3.35,0,5.35,1.67,5.86,5.13l2.57,22.7h8.03L32.62,.61h-8.09Zm60.17,28.55l-.22-4.24h-9.65l-1.95,4.24h-8.42L79.68,.61h10.32l2.57,28.55h-7.86Zm-.89-16.84c-.11-2.12-.17-4.96,0-6.69h-.11c-.45,1.39-2.51,5.69-3.4,7.75l-2.84,6.25h6.8l-.45-7.3h0Zm-31.28,17.68c-5.46,0-9.09-1.73-11.65-3.29l3.68-5.63c2.34,1.28,4.13,2.79,8.36,2.79,1.34,0,2.68-.33,3.4-1.62,1.06-1.84-.22-2.84-3.29-4.57l-1.51-.95c-4.46-3.07-6.41-5.97-4.29-11.04,1.34-3.23,4.91-5.69,10.76-5.69,4.07,0,7.86,1.73,10.04,3.46l-4.24,4.96c-2.17-1.73-3.96-2.62-6.02-2.62-1.62,0-2.9,.61-3.29,1.51-.78,1.62,.28,2.68,2.62,4.13l1.78,1.12c5.46,3.46,6.75,7.03,5.35,10.37-2.29,5.8-6.91,7.08-11.71,7.08h0Z"/>
      </g>
    </g>
    <g>
      <path class="cls-1" d="M33.69,30.82c-.98,.46-1.79,.85-1.79,.88,0,.08,2.91,6.25,3.05,6.46,.18,.27,.49,.54,.8,.7,.24,.12,.31,.14,.76,.14s.53-.01,.78-.14c.25-.12,.68-.51,.84-.76,.05-.08,.06-.08,.09-.02,.07,.17,.58,.64,.85,.78,.26,.13,.33,.14,.79,.14s.52-.01,.77-.14c.37-.2,.71-.53,.9-.88,.09-.16,.79-1.65,1.55-3.3l1.39-3-.35-.16c-.2-.09-1.02-.47-1.83-.85s-1.48-.66-1.5-.64-.6,1.27-1.3,2.77-1.28,2.73-1.29,2.74c-.01,0-.61-1.24-1.33-2.76-.71-1.51-1.32-2.76-1.35-2.77-.02,0-.85,.36-1.83,.82Zm2.55,3.09c.65,1.37,1.22,2.59,1.27,2.7l.09,.2-.13,.29c-.29,.64-.54,.86-.96,.86-.28,0-.5-.13-.69-.41-.06-.09-.41-.82-.79-1.61-.37-.8-.91-1.95-1.2-2.57s-.53-1.14-.53-1.17c0-.06,1.64-.83,1.72-.81,.03,0,.58,1.14,1.22,2.51Zm5.98-2.13c.52,.24,.84,.42,.83,.46,0,.03-.55,1.22-1.21,2.64-1.38,2.99-1.42,3.05-1.93,3.09-.26,.01-.31,0-.5-.13-.14-.1-.26-.27-.41-.55-.11-.22-.21-.43-.21-.47,0-.03,.54-1.22,1.2-2.64,.66-1.41,1.22-2.62,1.25-2.69,.02-.06,.06-.11,.08-.11s.42,.18,.89,.4Z"/>
      <path class="cls-1" d="M52.29,31.17c-.48,.26-.46,1.03,.03,1.24,.29,.12,.6,.06,.8-.15,.18-.2,.24-.36,.19-.6-.09-.46-.61-.71-1.02-.49Z"/>
      <path class="cls-1" d="M79.12,34.45v3.32h1.1v-6.65h-1.1v3.32Z"/>
      <path class="cls-1" d="M81.52,34.45v3.32h1.1v-6.65h-1.1v3.32Z"/>
      <path class="cls-1" d="M89.42,32.65v.67h-.85v1.05h.84l.02,1.13c.02,1.02,.03,1.17,.13,1.41,.24,.62,.67,.9,1.42,.94,.24,.01,.54,0,.67-.03,.29-.07,.91-.35,.91-.42,0-.03-.08-.24-.18-.47-.13-.29-.21-.41-.26-.39-.04,.01-.22,.08-.39,.15-.49,.21-.94,.12-1.11-.21-.05-.09-.07-.41-.08-1.12l-.02-.98h1.76v-1.05h-1.75v-1.35h-1.1v.67Z"/>
      <path class="cls-1" d="M60.58,33.24c-.55,.15-1.1,.59-1.34,1.06-.41,.81-.36,1.9,.12,2.62,.39,.59,.93,.89,1.67,.93,.5,.03,.89-.09,1.2-.36,.1-.09,.2-.17,.22-.17,.01,0,.03,.1,.03,.22v.22h1.1v-2.24s-.02-2.23-.02-2.23h-.53s-.54-.03-.54-.03v.23c0,.12-.01,.22-.03,.22-.02,0-.11-.07-.21-.15-.28-.25-.58-.36-1.03-.38-.22,0-.5,.01-.62,.05Zm1.11,1.06c.29,.1,.61,.42,.71,.71,.1,.29,.1,.73,0,1.01-.24,.68-.99,.98-1.65,.67-.44-.2-.67-.6-.67-1.19,0-.29,.02-.41,.12-.62,.27-.55,.88-.79,1.48-.59Z"/>
      <path class="cls-1" d="M68.7,33.27c-.08,.05-.18,.13-.23,.18-.06,.07-.59,1.47-1.16,3.08-.02,.08-.06,.12-.08,.1-.02-.02-.3-.77-.62-1.66-.32-.89-.59-1.63-.59-1.64,0,0-.25,.07-.53,.18-.34,.12-.51,.21-.5,.26,.07,.29,1.44,3.6,1.54,3.73,.28,.36,.81,.47,1.19,.24,.28-.18,.43-.44,.88-1.59,.22-.57,.43-1.03,.45-1.01s.22,.51,.44,1.08c.43,1.09,.6,1.38,.9,1.54,.2,.11,.54,.12,.76,.03,.36-.15,.48-.36,1.23-2.25,.38-.98,.7-1.8,.7-1.82s-.23-.12-.52-.22c-.38-.13-.53-.17-.55-.12-.29,.8-1.1,3.05-1.14,3.18-.06,.17-.07,.14-.63-1.4-.31-.86-.61-1.63-.66-1.71-.2-.28-.58-.36-.86-.19Z"/>
      <path class="cls-1" d="M74.93,33.25c-.37,.1-.65,.28-.95,.6-.31,.32-.48,.68-.59,1.21-.22,1.07,.3,2.18,1.23,2.62,.27,.13,.4,.16,.78,.18,.38,.01,.49,0,.74-.09,.16-.06,.37-.19,.48-.28,.1-.09,.19-.17,.21-.17,0,0,.02,.09,.01,.21v.21h.56s.56,.03,.56,.03v-2.24s-.02-2.24-.02-2.24h-1.1v.21c0,.11,0,.21-.02,.21s-.09-.07-.19-.15c-.1-.09-.28-.2-.4-.26-.3-.13-.93-.16-1.29-.06Zm1.14,1.05c.77,.27,1.05,1.39,.52,2.09-.19,.25-.58,.43-.92,.43-.31,0-.71-.16-.89-.35-.34-.37-.42-1.1-.18-1.58,.27-.55,.89-.79,1.47-.58Z"/>
      <path class="cls-1" d="M85.29,33.24c-.82,.21-1.4,.8-1.6,1.64-.09,.4-.09,.94,0,1.31,.23,.87,.84,1.45,1.71,1.62,.41,.08,1.15,.04,1.51-.08,.32-.11,.84-.41,.88-.5,.01-.04-.12-.21-.31-.41l-.33-.34-.23,.14c-.3,.19-.51,.24-.91,.24-.45,0-.8-.18-1.03-.52-.31-.45-.39-.43,1.43-.43,1.41,0,1.6,0,1.62-.08,.05-.13,.03-.53-.04-.89-.16-.75-.56-1.28-1.2-1.58-.28-.13-.4-.15-.79-.17-.26,0-.56,0-.7,.04Zm1.11,1.06c.21,.12,.42,.41,.48,.68l.03,.14h-2.14l.05-.19c.16-.65,.96-.97,1.57-.62Z"/>
      <path class="cls-1" d="M52.09,35.53v2.25h1.1v-2.24s-.02-2.23-.02-2.23h-.53s-.54-.03-.54-.03v2.25Z"/>
      <path class="cls-1" d="M47.19,33.5c-.23,.08-.46,.17-.51,.19-.07,.03,.02,.29,.63,1.84,.39,.99,.77,1.88,.85,1.97,.29,.38,.84,.49,1.2,.24,.22-.15,.28-.22,.42-.48,.1-.2,1.39-3.45,1.39-3.52,0-.04-1.01-.42-1.04-.39-.01,.01-1.12,3.05-1.22,3.34-.01,.04-.28-.69-1.06-2.86-.1-.28-.19-.51-.21-.5-.01,0-.22,.07-.45,.16Z"/>
      <path class="cls-1" d="M54.6,33.52c-.28,.1-.51,.19-.51,.21,0,.05,1.29,3.32,1.38,3.51,.1,.2,.35,.47,.52,.56,.35,.18,.89,.02,1.15-.35,.07-.11,.45-.99,.83-1.96l.69-1.76-.13-.05c-.43-.16-.92-.33-.93-.32,0,0-.26,.7-.56,1.53-.71,1.99-.65,1.84-.7,1.75-.02-.04-.29-.78-.6-1.65s-.58-1.59-.59-1.6c-.01-.02-.26,.05-.54,.15Z"/>
    </g>
    <g>
      <path class="cls-1" d="M26.09,36.02c.12,.09,.21,.21,.28,.35,.07,.14,.1,.29,.1,.44,0,.2-.05,.38-.15,.54-.1,.16-.25,.28-.44,.38s-.42,.14-.68,.14h-1.46v-3.91h1.4c.26,0,.49,.04,.68,.13,.19,.09,.33,.21,.42,.36,.09,.15,.14,.32,.14,.51,0,.23-.06,.42-.19,.57s-.29,.26-.5,.33c.14,.02,.27,.08,.39,.17Zm-1.84-.38h.86c.24,0,.42-.06,.56-.17,.13-.11,.2-.27,.2-.47s-.07-.35-.2-.47c-.13-.11-.32-.17-.57-.17h-.85v1.27Zm1.5,1.62c.14-.12,.21-.29,.21-.5s-.07-.39-.22-.51c-.15-.12-.35-.19-.6-.19h-.89v1.38h.9c.25,0,.45-.06,.59-.18Z"/>
      <path class="cls-1" d="M29.83,34.79l-1.85,4.52h-.53l.61-1.48-1.24-3.04h.57l.96,2.49,.95-2.49h.53Z"/>
      <path class="cls-1" d="M30.25,35.39c-.07-.07-.1-.15-.1-.25s.03-.18,.1-.25,.15-.1,.25-.1,.17,.03,.24,.1c.07,.07,.1,.15,.1,.25s-.03,.18-.1,.25c-.07,.07-.15,.1-.24,.1s-.18-.03-.25-.1Zm0,2.4c-.07-.07-.1-.15-.1-.25s.03-.18,.1-.25c.07-.07,.15-.1,.25-.1s.17,.03,.24,.1c.07,.07,.1,.15,.1,.25s-.03,.18-.1,.25c-.07,.07-.15,.1-.24,.1s-.18-.03-.25-.1Z"/>
    </g>
  </g>
</svg>