<svg width="109" height="30" viewBox="0 0 109 30" fill="none" xmlns="http://www.w3.org/2000/svg">
<path fill-rule="evenodd" clip-rule="evenodd" d="M12.6193 24.4139C13.2717 25.7636 14.2689 26.5359 15.3487 26.5434H15.3637C16.4359 26.5434 17.4331 25.7861 18.1005 24.4739L18.9778 22.5994L10.4674 4.57386L4.58885 7.31817L12.6193 24.4139V24.4139ZM23.6641 24.4739C24.3239 25.7936 25.3212 26.5509 26.3934 26.5509H26.4009C27.4881 26.5434 28.4854 25.7711 29.1302 24.4214L37.0557 7.32567L31.1772 4.58136L22.7718 22.5919L23.6566 24.4664L23.6641 24.4739ZM26.3934 30C24.1815 30 22.157 28.7328 20.8748 26.5659C19.5926 28.7253 17.5681 30 15.3562 30H15.3187C12.9043 29.985 10.7298 28.4554 9.50013 25.9135V25.8985L0 5.65359L12.1245 0L20.8673 18.5354L29.5201 0L41.6371 5.65359L32.2569 25.906C31.0272 28.4479 28.8528 29.9775 26.4384 29.9925H26.4009L26.3934 30Z" fill="#346275"/>
<path d="M57.8855 26.1535C57.3532 26.1535 56.8508 26.026 56.3859 25.7786C55.921 25.5611 55.5836 25.2237 55.3662 24.7588L50.0725 12.2969C50.005 12.012 49.9675 11.7946 49.9675 11.6521C49.9675 11.0822 50.1625 10.6399 50.5524 10.3174C50.9423 9.99502 51.3697 9.83755 51.8346 9.83755C52.157 9.83755 52.4569 9.92753 52.7418 10.1075C53.0643 10.2874 53.2967 10.5724 53.4392 10.9623L57.1807 20.6424C57.3607 21.0023 57.5931 21.1747 57.8781 21.1747C58.238 21.1747 58.4629 20.9948 58.5754 20.6424L62.2645 10.9623C62.4069 10.5724 62.6244 10.2874 62.9093 10.1075C63.2317 9.92753 63.5541 9.83755 63.8691 9.83755C64.3714 9.83755 64.7988 9.99502 65.1512 10.3174C65.5411 10.6399 65.7361 11.0672 65.7361 11.5996C65.7361 11.7796 65.6986 12.012 65.6311 12.2969L60.3899 24.7588C60.1725 25.2237 59.8351 25.5611 59.3777 25.7786C58.9128 26.026 58.4179 26.1535 57.8781 26.1535H57.8855Z" fill="#346275"/>
<path d="M70.31 26.1535C69.8451 26.1535 69.4177 26.011 69.0278 25.7261C68.6679 25.4411 68.4954 25.0287 68.4954 24.4964V11.6671C68.4954 11.0597 68.6754 10.6173 69.0278 10.3324C69.4177 10.01 69.8451 9.85253 70.31 9.85253C70.7749 9.85253 71.1798 10.01 71.5397 10.3324C71.9296 10.6173 72.1245 11.0597 72.1245 11.6671V24.5039C72.1245 25.0362 71.9296 25.4486 71.5397 25.7336C71.1798 26.0185 70.7749 26.161 70.31 26.161V26.1535ZM70.3625 6.90576C69.6876 6.90576 69.0953 6.68832 68.6004 6.26092C68.1355 5.79604 67.9031 5.24868 67.9031 4.60384C67.9031 3.99649 68.1355 3.47912 68.6004 3.05173C69.1028 2.58684 69.6876 2.3544 70.3625 2.3544C71.0073 2.3544 71.5547 2.58684 72.0196 3.05173C72.4844 3.47912 72.7169 3.99649 72.7169 4.60384C72.7169 5.24868 72.4844 5.79604 72.0196 6.26092C71.5547 6.68832 71.0073 6.90576 70.3625 6.90576Z" fill="#346275"/>
<path d="M82.7943 26.1535C82.2619 26.1535 81.7596 26.026 81.2947 25.7786C80.8298 25.5611 80.4924 25.2237 80.2824 24.7588L74.9888 12.2969C74.9138 12.012 74.8838 11.7946 74.8838 11.6521C74.8838 11.0822 75.0787 10.6399 75.4686 10.3174C75.8585 9.99502 76.2859 9.83755 76.7508 9.83755C77.0732 9.83755 77.3732 9.92753 77.6581 10.1075C77.9805 10.2874 78.213 10.5724 78.3554 10.9623L82.097 20.6424C82.2769 21.0023 82.5094 21.1747 82.7943 21.1747C83.1467 21.1747 83.3792 20.9948 83.4916 20.6424L87.1807 10.9623C87.3232 10.5724 87.5406 10.2874 87.8256 10.1075C88.148 9.92753 88.4704 9.83755 88.7853 9.83755C89.2877 9.83755 89.7151 9.99502 90.0675 10.3174C90.4574 10.6399 90.6598 11.0672 90.6598 11.5996C90.6598 11.7796 90.6224 12.012 90.5549 12.2969L85.3137 24.7588C85.1037 25.2237 84.7588 25.5611 84.3014 25.7786C83.8365 26.026 83.3417 26.1535 82.8018 26.1535H82.7943Z" fill="#346275"/>
<path d="M99.725 26.1535C98.1954 26.1535 96.8232 25.7936 95.6085 25.0812C94.3938 24.3689 93.449 23.3867 92.7742 22.142C92.0994 20.8598 91.762 19.4352 91.762 17.8605C91.762 16.2859 92.0994 14.9588 92.7742 13.7441C93.449 12.5294 94.3938 11.5846 95.6085 10.9098C96.8232 10.1975 98.1954 9.83755 99.725 9.83755C100.722 9.83755 101.615 10.0175 102.402 10.3699C103.189 10.6923 103.864 11.1197 104.434 11.6521C104.509 11.1497 104.719 10.7823 105.079 10.5274C105.431 10.2425 105.828 10.1 106.256 10.1C106.721 10.1 107.126 10.2574 107.486 10.5799C107.875 10.8648 108.07 11.3072 108.07 11.9145V24.4814C108.07 25.0138 107.875 25.4262 107.486 25.7111C107.126 25.996 106.721 26.1385 106.256 26.1385C105.791 26.1385 105.364 25.996 104.974 25.7111C104.621 25.4262 104.441 25.0138 104.441 24.4814V24.264C103.871 24.8338 103.197 25.2762 102.409 25.5986C101.622 25.9585 100.737 26.131 99.7325 26.131L99.725 26.1535ZM100.047 22.8393C101.405 22.8393 102.469 22.3969 103.257 21.5046C104.044 20.5749 104.434 19.3677 104.434 17.868C104.434 16.3684 104.044 15.3037 103.257 14.4489C102.469 13.5941 101.405 13.1667 100.047 13.1667C98.6902 13.1667 97.5355 13.5941 96.6807 14.4489C95.826 15.3037 95.3986 16.4434 95.3986 17.868C95.3986 19.3677 95.826 20.5749 96.6807 21.5046C97.5355 22.3969 98.6602 22.8393 100.047 22.8393Z" fill="#346275"/>
</svg>
