<?xml version="1.0" encoding="UTF-8" standalone="no"?>
<svg width="190px" height="33px" viewBox="0 0 190 33" version="1.1" xmlns="http://www.w3.org/2000/svg" xmlns:xlink="http://www.w3.org/1999/xlink">
    <!-- Generator: Sketch 39.1 (31720) - http://www.bohemiancoding.com/sketch -->
    <title>discover</title>
    <desc>Created with Sketch.</desc>
    <defs></defs>
    <g id="Payments" stroke="none" stroke-width="1" fill="none" fill-rule="evenodd">
        <g id="discover" transform="translate(0.000000, -4.000000)" fill="#346275">
            <g transform="translate(0.000000, 4.000000)">
                <path d="M9.66907675,0.669262143 L0.968668891,0.669262143 L0.968668891,30.7860586 L9.66907675,30.7860586 C14.3539118,30.7860586 17.7002225,29.7821654 20.377271,27.4397479 C23.7235818,24.4280682 25.7313682,20.4124954 25.7313682,15.7276604 C25.7313682,7.0272525 19.0387468,0.669262143 9.66907675,0.669262143 L9.66907675,0.669262143 Z M16.3616982,23.424175 C14.3539118,25.0973304 12.0114943,25.7665925 8.33055247,25.7665925 L6.65739711,25.7665925 L6.65739711,5.68872822 L8.33055247,5.68872822 C12.0114943,5.68872822 14.3539118,6.35799036 16.3616982,8.03114572 C18.3694846,9.70430108 19.7080089,12.7159807 19.7080089,15.7276604 C19.7080089,18.73934 18.3694846,21.7510197 16.3616982,23.424175 L16.3616982,23.424175 Z" id="Shape"></path>
                <rect id="Rectangle-path" x="28.4084168" y="0.669262143" width="6.02335929" height="30.1167964"></rect>
                <ellipse id="Oval" cx="101.023359" cy="16.0622914" rx="16.0622914" ry="16.0622914"></ellipse>
                <path d="M48.8209121,12.3813496 C45.1399703,11.0428254 44.1360771,10.0389321 44.1360771,8.70040786 C44.1360771,6.69262143 46.1438636,5.35409714 48.4862811,5.35409714 C50.1594364,5.35409714 51.8325918,6.02335929 53.1711161,7.69651465 L56.1827957,3.68094179 C53.5057471,1.33852429 50.4940675,0.334631072 47.1477568,0.334631072 C41.7936596,0.334631072 37.7780868,4.01557286 37.7780868,9.03503893 C37.7780868,13.0506118 39.7858732,15.3930293 45.1399703,17.4008157 C47.4823878,18.0700779 48.4862811,18.73934 49.1555432,19.0739711 C50.4940675,19.7432332 50.8286986,21.0817575 50.8286986,22.0856507 C50.8286986,24.4280682 48.8209121,26.4358547 46.1438636,26.4358547 C43.466815,26.4358547 41.1243975,25.0973304 39.7858732,22.4202818 L36.1049314,26.1012236 C38.78198,30.1167964 42.1282907,31.7899518 46.4784946,31.7899518 C52.5018539,31.7899518 56.8520578,27.7743789 56.8520578,21.7510197 C57.52132,17.0661846 55.5135336,14.7237671 48.8209121,12.3813496 L48.8209121,12.3813496 Z" id="Shape"></path>
                <path d="M59.5291064,16.0622914 C59.5291064,25.0973304 66.5563589,31.7899518 75.5913978,31.7899518 C78.2684464,31.7899518 80.2762329,31.4553207 82.9532814,30.1167964 L82.9532814,23.0895439 C80.6108639,25.4319614 78.6030775,26.4358547 75.9260289,26.4358547 C69.9026696,26.4358547 65.8870968,22.0856507 65.8870968,16.0622914 C65.8870968,10.3735632 70.2373007,5.68872822 75.9260289,5.68872822 C78.6030775,5.68872822 80.945495,6.69262143 83.2879125,9.03503893 L83.2879125,2.00778643 C80.2762329,0.669262143 78.2684464,0 75.5913978,0 C66.5563589,0 59.5291064,7.0272525 59.5291064,16.0622914 L59.5291064,16.0622914 Z" id="Shape"></path>
                <polygon id="Shape" points="129.801631 21.0817575 121.770486 0.669262143 115.077864 0.669262143 128.128476 31.7899518 131.140156 31.7899518 144.190768 0.669262143 137.832777 0.669262143"></polygon>
                <polygon id="Shape" points="146.867816 31.1206897 163.59937 31.1206897 163.59937 26.1012236 152.891175 26.1012236 152.891175 17.7354468 163.264739 17.7354468 163.264739 12.7159807 152.891175 12.7159807 152.891175 6.02335929 163.59937 6.02335929 163.59937 0.669262143 146.867816 0.669262143"></polygon>
                <path d="M187.023545,9.70430108 C187.023545,4.01557286 183.007972,0.669262143 176.31535,0.669262143 L167.614943,0.669262143 L167.614943,30.7860586 L173.638302,30.7860586 L173.638302,18.73934 L174.307564,18.73934 L182.33871,30.7860586 L189.700593,30.7860586 L180.330923,18.0700779 C184.681127,17.4008157 187.023545,14.3891361 187.023545,9.70430108 L187.023545,9.70430108 Z M175.311457,14.7237671 L173.638302,14.7237671 L173.638302,5.68872822 L175.311457,5.68872822 C178.992399,5.68872822 181.000185,7.36188357 181.000185,10.0389321 C181.000185,13.0506118 178.992399,14.7237671 175.311457,14.7237671 L175.311457,14.7237671 Z" id="Shape"></path>
            </g>
        </g>
    </g>
</svg>