<?xml version="1.0" encoding="UTF-8"?>
<svg width="43px" height="40px" id="Layer_2" data-name="Layer 2" xmlns="http://www.w3.org/2000/svg" viewBox="0 0 34.37 40">
  <defs>
    <style>
      .cls-1 {
        fill: #346275;
      }
    </style>
  </defs>
  <g id="Layer_2-2" data-name="Layer 2">
    <g>
      <path class="cls-1" d="M23.62,20.96c-.12-.23-.24-.47-.35-.7-.79-1.74-1.44-3.54-2.02-5.36-.06-.18-.11-.37-.17-.55,.06-.04,.11-.07,.16-.1,.26-.18,.53-.35,.77-.53,.6-.45,1.15-.95,1.6-1.57,.43-.58,.71-1.23,.82-1.95,.11-.69,.1-1.38,0-2.07-.12-.85-.47-1.61-1.02-2.27-.32-.39-.7-.69-1.14-.92-.82-.45-1.71-.65-2.65-.74-.59-.06-1.2-.1-1.8-.13-.98-.04-1.97,0-2.95,.08-.52,.05-1.04,.1-1.56,.16-.37,.04-.73,.1-1.1,.17-.18,.03-.17,.05-.17,.22,0,.46,.02,.9,0,1.36-.04,1.12-.2,2.23-.35,3.33-.11,.78-.22,1.58-.34,2.36-.12,.82-.24,1.65-.37,2.48-.15,.98-.31,1.95-.48,2.93-.15,.91-.32,1.82-.48,2.73-.07,.42-.15,.83-.11,1.26,.06,.79,.45,1.19,1.13,1.36,.35,.08,.7,.09,1.05,.05,.45-.05,.88-.12,1.32-.2,.38-.07,.74-.17,1.09-.35,.12-.06,.23-.14,.35-.21-.14-.2-.18-.4-.2-.6,0-.12,0-.23-.02-.35,0-.67,.07-1.34,.16-2.01,.12-.86,.25-1.73,.37-2.6,.03-.21,.06-.41,.1-.62h1.69c.03,.08,.05,.15,.08,.22,.55,1.69,1.12,3.39,1.67,5.07,.12,.36,.3,.69,.55,.98,.4,.47,.88,.71,1.51,.67,.55-.04,1.11-.1,1.65-.2,.44-.08,.87-.18,1.29-.34,.15-.06,.28-.13,.43-.2-.12-.16-.23-.3-.32-.44-.09-.14-.17-.29-.25-.44h.04Zm-4.17-9.67c-.48,1.03-1.31,1.57-2.42,1.65-.41,.03-.82,.02-1.23,.03-.03,0-.06,0-.09,0,.31-2.12,.61-4.22,.92-6.33,.09,0,.17-.02,.26-.02,.53-.03,1.05,0,1.57,.15,.88,.26,1.4,.88,1.48,1.79,.09,.95-.08,1.87-.48,2.73h0Z"/>
      <path class="cls-1" d="M19.95,28.64c-.39,0-.71,.13-1,.4-.28,.26-.42,.6-.42,1.03s.14,.77,.42,1.04c.28,.26,.6,.39,1,.39s.73-.13,1.01-.39c.29-.27,.43-.61,.43-1.04s-.14-.77-.43-1.03c-.28-.27-.61-.4-1.01-.4Z"/>
      <path class="cls-1" d="M9.62,28.42c-.64,0-1.17,.45-1.36,1.03h2.66c-.12-.63-.58-1.03-1.3-1.03Z"/>
      <path class="cls-1" d="M4.49,26.75h-1.66v1.81h1.66c.77,0,1.17-.31,1.17-.91s-.39-.91-1.17-.91h0Z"/>
      <path class="cls-1" d="M32.65,0H1.71C.77,0,0,.77,0,1.71v30.94c0,.95,.77,1.71,1.71,1.71h30.94c.95,0,1.71-.77,1.71-1.71V1.71c0-.95-.77-1.71-1.71-1.71ZM5.56,32.51l-1.62-2.8h-1.12v2.8H1.51v-6.92h2.98c1.53,0,2.49,.76,2.49,1.95,0,.98-.53,1.65-1.6,2.03l1.68,2.92h-1.51Zm6.52-2.58v.44h-3.81c.08,.75,.6,1.23,1.36,1.23,.6,0,1.06-.3,1.37-.9l.94,.54c-.47,.96-1.24,1.44-2.32,1.44-.7,0-1.31-.24-1.8-.72-.49-.49-.73-1.11-.73-1.86s.25-1.38,.74-1.85c.51-.49,1.13-.73,1.85-.73s1.29,.23,1.73,.69,.67,1.05,.67,1.75h0Zm3.18,2.58h-1.18l-2-4.91h1.34l1.26,3.32,1.26-3.32h1.34l-2,4.91h0Zm6.6-.55c-.53,.46-1.17,.68-1.9,.68s-1.37-.23-1.89-.68c-.53-.47-.79-1.1-.79-1.9s.27-1.45,.79-1.89c.53-.47,1.17-.69,1.89-.69s1.38,.23,1.9,.69c.54,.46,.81,1.09,.81,1.89s-.27,1.45-.81,1.9Zm-1.14-7.08c-.68,0-1.34-.14-1.95-.42-.79-.35-1.47-.85-1.96-1.59-.02,0-.04,0-.05,.02-.46,.74-1.13,1.19-1.94,1.47-1.11,.39-2.27,.52-3.44,.51-.45,0-.89-.06-1.32-.21-1.29-.45-2.05-1.36-2.36-2.68-.14-.59-.1-1.18,0-1.77,.21-1.08,.4-2.16,.58-3.25,.18-1.06,.35-2.11,.51-3.17,.16-1.05,.32-2.09,.47-3.14,.14-.96,.28-1.92,.4-2.89,.12-.91,.2-1.82,.16-2.73,0-.23,0-.47,0-.69,.02-.97,.59-1.74,1.52-2.04,.42-.14,.84-.22,1.27-.27,.74-.09,1.5-.18,2.25-.24,.74-.05,1.48-.07,2.22-.08,.79-.02,1.59,0,2.38,.07,1.06,.09,2.09,.3,3.09,.7,1.5,.6,2.61,1.63,3.38,3.03,.39,.71,.6,1.48,.72,2.27,.07,.48,.11,.95,.11,1.44,0,2.07-.73,3.84-2.19,5.31-.22,.22-.45,.42-.67,.62-.04,.04-.09,.08-.14,.12,.12,.3,.22,.6,.35,.89,.63,1.46,1.27,2.9,1.9,4.36,.08,.19,.17,.38,.26,.57,.45,1,.03,2.19-.93,2.73-.81,.45-1.67,.71-2.59,.86-.67,.11-1.35,.18-2.02,.2h0Zm3.83,7.61h-1.26v-6.78h1.26v6.78Zm5.31-1.99c0,1.11-.71,2.13-2.28,2.13h0c-1.58,0-2.29-1-2.29-2.13v-2.91h1.26v2.71c0,.65,.35,1.08,1.03,1.08s1.03-.44,1.03-1.08v-2.71h1.26v2.91h0Zm3-1.9h-1.08v2.5c0,.24,.19,.43,.43,.43h.64v1.11h-.87c-.81,0-1.47-.65-1.47-1.46v-4.92h1.26v1.33h1.08v1.01h0Z"/>
    </g>
    <g>
      <g>
        <path class="cls-1" d="M4.97,35.76c-.49,.23-.89,.42-.89,.44,0,.04,1.45,3.12,1.52,3.23,.09,.13,.24,.27,.4,.35,.12,.06,.15,.07,.38,.07s.26,0,.39-.07c.12-.06,.34-.25,.42-.38,.02-.04,.03-.04,.04,0,.03,.08,.29,.32,.42,.39,.13,.06,.16,.07,.39,.07s.26,0,.38-.07c.18-.1,.35-.26,.45-.44,.04-.08,.39-.82,.77-1.65l.69-1.5-.17-.08c-.1-.04-.51-.23-.91-.42s-.74-.33-.75-.32-.3,.63-.65,1.38c-.35,.75-.64,1.36-.64,1.37,0,0-.3-.62-.66-1.38-.35-.75-.66-1.38-.67-1.38,0,0-.42,.18-.91,.41h0Zm1.27,1.54c.32,.68,.61,1.29,.63,1.35l.04,.1-.06,.14c-.14,.32-.27,.43-.48,.43-.14,0-.25-.06-.34-.2-.03-.04-.2-.41-.39-.8-.18-.4-.45-.97-.6-1.28s-.26-.57-.26-.58c0-.03,.82-.41,.86-.4,.01,0,.29,.57,.61,1.25h0Zm2.99-1.06c.26,.12,.42,.21,.41,.23,0,.01-.27,.61-.6,1.32-.69,1.49-.71,1.52-.96,1.54-.13,0-.15,0-.25-.06-.07-.05-.13-.13-.2-.27-.05-.11-.1-.21-.1-.23,0-.01,.27-.61,.6-1.32,.33-.7,.61-1.31,.62-1.34,0-.03,.03-.05,.04-.05s.21,.09,.44,.2h0Z"/>
        <path class="cls-1" d="M14.26,35.94c-.24,.13-.23,.51,.01,.62,.14,.06,.3,.03,.4-.07,.09-.1,.12-.18,.09-.3-.04-.23-.3-.35-.51-.24Z"/>
        <path class="cls-1" d="M27.65,37.57v1.66h.55v-3.32h-.55v1.66h0Z"/>
        <path class="cls-1" d="M28.85,37.57v1.66h.55v-3.32h-.55v1.66h0Z"/>
        <path class="cls-1" d="M32.8,36.67v.33h-.42v.52h.42v.56c.02,.51,.02,.58,.07,.7,.12,.31,.33,.45,.71,.47,.12,0,.27,0,.33-.01,.14-.03,.45-.17,.45-.21,0-.01-.04-.12-.09-.23-.06-.14-.1-.2-.13-.19-.02,0-.11,.04-.19,.07-.24,.1-.47,.06-.55-.1-.02-.04-.03-.2-.04-.56v-.49s.87,0,.87,0v-.52h-.87v-.67h-.55v.33h0Z"/>
        <path class="cls-1" d="M18.4,36.97c-.27,.07-.55,.29-.67,.53-.2,.4-.18,.95,.06,1.31,.19,.29,.46,.44,.83,.46,.25,.01,.44-.04,.6-.18,.05-.04,.1-.08,.11-.08,0,0,.01,.05,.01,.11v.11h.55v-2.23h-.54s0,.1,0,.1c0,.06,0,.11-.01,.11s-.05-.03-.1-.07c-.14-.12-.29-.18-.51-.19-.11,0-.25,0-.31,.02h0Zm.55,.53c.14,.05,.3,.21,.35,.35s.05,.36,0,.5c-.12,.34-.49,.49-.82,.33-.22-.1-.33-.3-.33-.59,0-.14,0-.2,.06-.31,.13-.27,.44-.39,.74-.29h0Z"/>
        <path class="cls-1" d="M22.45,36.98s-.09,.06-.11,.09c-.03,.03-.29,.73-.58,1.54,0,.04-.03,.06-.04,.05,0,0-.15-.38-.31-.83s-.29-.81-.29-.82c0,0-.12,.03-.26,.09-.17,.06-.25,.1-.25,.13,.03,.14,.72,1.8,.77,1.86,.14,.18,.4,.23,.59,.12,.14-.09,.21-.22,.44-.79,.11-.28,.21-.51,.22-.5s.11,.25,.22,.54c.21,.54,.3,.69,.45,.77,.1,.05,.27,.06,.38,.01,.18-.07,.24-.18,.61-1.12,.19-.49,.35-.9,.35-.91s-.11-.06-.26-.11c-.19-.06-.26-.08-.27-.06-.14,.4-.55,1.52-.57,1.59-.03,.08-.03,.07-.31-.7-.15-.43-.3-.81-.33-.85-.1-.14-.29-.18-.43-.09h0Z"/>
        <path class="cls-1" d="M25.56,36.97c-.18,.05-.32,.14-.47,.3-.15,.16-.24,.34-.29,.6-.11,.53,.15,1.09,.61,1.31,.13,.06,.2,.08,.39,.09,.19,0,.24,0,.37-.04,.08-.03,.18-.09,.24-.14,.05-.04,.09-.08,.1-.08,0,0,0,.04,0,.1v.1h.56s0-1.1,0-1.1v-1.12h-.56v.1c0,.05,0,.1,0,.1s-.04-.03-.09-.07c-.05-.04-.14-.1-.2-.13-.15-.06-.46-.08-.64-.03h0Zm.57,.53c.38,.13,.52,.69,.26,1.04-.09,.12-.29,.21-.46,.21-.15,0-.35-.08-.44-.17-.17-.18-.21-.55-.09-.79,.13-.27,.44-.39,.73-.29h0Z"/>
        <path class="cls-1" d="M30.74,36.97c-.41,.1-.7,.4-.8,.82-.04,.2-.04,.47,0,.65,.11,.43,.42,.72,.85,.81,.2,.04,.57,.02,.75-.04,.16-.05,.42-.2,.44-.25,0-.02-.06-.1-.15-.2l-.16-.17-.11,.07c-.15,.09-.25,.12-.45,.12-.22,0-.4-.09-.51-.26-.15-.22-.19-.21,.71-.21,.7,0,.8,0,.81-.04,.02-.06,.01-.26-.02-.44-.08-.37-.28-.64-.6-.79-.14-.06-.2-.07-.39-.08-.13,0-.28,0-.35,.02h0Zm.55,.53c.1,.06,.21,.2,.24,.34v.07s-1.05,0-1.05,0l.02-.09c.08-.32,.48-.48,.78-.31h0Z"/>
        <path class="cls-1" d="M14.16,38.11v1.12h.55v-2.23h-.54s0,1.11,0,1.11h0Z"/>
        <path class="cls-1" d="M11.71,37.1c-.11,.04-.23,.08-.25,.09-.03,.01,0,.14,.31,.92,.19,.49,.38,.94,.42,.98,.14,.19,.42,.24,.6,.12,.11-.07,.14-.11,.21-.24,.05-.1,.69-1.72,.69-1.76,0-.02-.5-.21-.52-.19,0,0-.56,1.52-.61,1.67,0,.02-.14-.34-.53-1.43-.05-.14-.09-.25-.1-.25,0,0-.11,.03-.22,.08h0Z"/>
        <path class="cls-1" d="M15.41,37.11c-.14,.05-.25,.09-.25,.1,0,.02,.64,1.66,.69,1.75,.05,.1,.17,.23,.26,.28,.17,.09,.44,0,.57-.17,.03-.05,.22-.49,.41-.98l.34-.88-.06-.02c-.21-.08-.46-.16-.46-.16,0,0-.13,.35-.28,.76-.35,.99-.32,.92-.35,.87,0-.02-.14-.39-.3-.82s-.29-.79-.29-.8c0,0-.13,.02-.27,.07h0Z"/>
      </g>
      <g>
        <path class="cls-1" d="M1.17,38.36c.06,.04,.1,.1,.14,.17,.03,.07,.05,.14,.05,.22,0,.1-.02,.19-.07,.27s-.12,.14-.22,.19-.21,.07-.34,.07H0v-1.95H.7c.13,0,.24,.02,.34,.06s.16,.1,.21,.18,.07,.16,.07,.25c0,.11-.03,.21-.09,.28s-.14,.13-.25,.16c.07,0,.13,.04,.19,.08h0Zm-.92-.19h.43c.12,0,.21-.03,.28-.08,.06-.05,.1-.13,.1-.23s-.03-.17-.1-.23c-.06-.05-.16-.08-.28-.08H.25v.63H.25Zm.75,.81c.07-.06,.1-.14,.1-.25s-.03-.19-.11-.25-.17-.09-.3-.09H.25v.69h.45c.12,0,.22-.03,.29-.09h0Z"/>
        <path class="cls-1" d="M3.04,37.74l-.92,2.26h-.26l.3-.74-.62-1.52h.28l.48,1.24,.47-1.24h.26Z"/>
        <path class="cls-1" d="M3.25,38.04s-.05-.07-.05-.12,.01-.09,.05-.12,.07-.05,.12-.05,.08,.01,.12,.05,.05,.07,.05,.12-.01,.09-.05,.12-.07,.05-.12,.05-.09-.01-.12-.05Zm0,1.2s-.05-.07-.05-.12,.01-.09,.05-.12,.07-.05,.12-.05,.08,.01,.12,.05,.05,.07,.05,.12-.01,.09-.05,.12-.07,.05-.12,.05-.09-.01-.12-.05Z"/>
      </g>
    </g>
  </g>
</svg>