<svg width="24" height="24" viewBox="0 0 24 24" fill="none" xmlns="http://www.w3.org/2000/svg">
<g clip-path="url(#clip0_110_303)">
<path d="M12 0H0V24H12V0Z" fill="#006506"/>
<path d="M24 0H12V24H24V0Z" fill="#FF0302"/>
<path d="M11.7 16.2V17.3C10.3 17.2 9.20001 16.6 8.20001 15.7C9.50001 16.1 10.6 16.2 11.7 16.2Z" fill="#006506"/>
<path d="M11.7 6.69995V7.89995H8.70001C9.50001 7.19995 10.5 6.69995 11.7 6.69995Z" fill="#006506"/>
<path d="M13.2 11.4H13H12.9V12.1C12.9 12.2 12.9 12.2 13 12.3C13 12.3 13 12.3 13 12.4C13 12.4 13.1 12.5 13.2 12.5C13.2 12.5 13.2 12.5 13.3 12.5C13.5 12.5 13.8 12.3 13.8 12V12V11.9V11.6H13.2V11.4ZM13 11.8C12.9 11.8 12.9 11.8 13 11.8C12.9 11.7 13 11.6 13 11.6C13 11.7 13.1 11.7 13 11.8C13 11.8 13.1 11.8 13 11.8ZM13.1 12.2C13.1 12.2 13 12.3 13.1 12.2C13 12.3 12.9 12.2 12.9 12.2C12.9 12.1 12.9 12.1 13.1 12.2C13.1 12.1 13 12.1 13.1 12.2ZM13.2 12.1C13.2 12.1 13.1 12 13.2 12.1C13.1 12 13.2 11.9 13.2 11.9C13.2 11.9 13.4 11.9 13.2 12.1C13.2 12.1 13.4 12 13.2 12.1ZM13.5 12.3C13.5 12.3 13.4 12.2 13.5 12.3C13.4 12.2 13.5 12.1 13.5 12.1C13.6 12.1 13.6 12.1 13.5 12.3C13.6 12.3 13.6 12.2 13.5 12.3ZM13.6 11.8C13.5 11.8 13.5 11.8 13.6 11.8C13.5 11.9 13.4 11.9 13.4 11.8C13.4 11.8 13.4 11.8 13.4 11.7C13.5 11.7 13.5 11.7 13.6 11.8C13.6 11.7 13.6 11.7 13.6 11.8Z" fill="#063296"/>
<path d="M12.3 13H12.2H11.9H11.8H11.7V13.2V13.3V13.5C11.7 13.6 11.7 13.7 11.8 13.8C11.8 13.8 11.9 13.8 11.9 13.9H12C12.1 13.9 12.1 13.9 12.2 13.9C12.2 13.9 12.3 13.9 12.3 13.8V13.7V13V13ZM12 13.5C12 13.5 12.1 13.5 12 13.5C12.1 13.6 12.1 13.6 12.1 13.6C12 13.6 11.9 13.6 12 13.5C11.9 13.5 11.9 13.5 12 13.5C12 13.5 11.9 13.5 12 13.5ZM11.7 13.2C11.7 13.2 11.8 13.2 11.7 13.2C11.8 13.2 11.8 13.2 11.8 13.2C11.8 13.2 11.7 13.4 11.7 13.2C11.7 13.4 11.7 13.4 11.7 13.2ZM11.9 13.8C11.8 13.8 11.8 13.8 11.9 13.8C11.8 13.9 11.8 13.9 11.9 13.8C11.8 13.8 11.8 13.8 11.8 13.8C11.8 13.7 11.8 13.7 11.9 13.8C11.9 13.8 11.9 13.7 11.9 13.8ZM12.3 13.8C12.3 13.8 12.2 13.9 12.3 13.8C12.2 13.9 12.2 13.9 12.2 13.9C12.2 13.9 12.2 13.9 12.2 13.8C12.2 13.8 12.2 13.8 12.2 13.7C12.2 13.7 12.2 13.7 12.3 13.8C12.3 13.7 12.2 13.7 12.3 13.8C12.3 13.7 12.3 13.7 12.3 13.8ZM12.3 13.2C12.3 13.2 12.3 13.4 12.3 13.2C12.3 13.4 12.3 13.4 12.3 13.2C12.2 13.4 12.3 13.4 12.3 13.2C12.2 13.3 12.2 13.3 12.2 13.3C12.2 13.3 12.2 13.3 12.2 13.2C12.2 13.2 12.2 13.2 12.2 13.1C12.2 13.2 12.2 13.2 12.3 13.2C12.3 13.2 12.2 13.2 12.3 13.2Z" fill="#063296"/>
<path d="M12.3 10H12.2H11.9H11.8H11.7V10.6V10.7V10.8C11.7 10.9 11.7 10.9 11.8 11C11.8 11 11.9 11 11.9 11.1H12C12.1 11.1 12.1 11.1 12.2 11.1C12.2 11.1 12.3 11.1 12.3 11L12.4 10.9V10.8V10.1H12.3V10V10ZM12 10.3C12 10.3 12.1 10.4 12 10.3C12.1 10.4 12 10.5 12 10.5C12 10.5 11.9 10.4 12 10.3C12 10.3 11.9 10.4 12 10.3ZM11.7 10.1C11.7 10.1 11.8 10.1 11.7 10.1C11.8 10.1 11.8 10.1 11.8 10.1C11.7 10.2 11.7 10.2 11.7 10.1C11.7 10.2 11.7 10.2 11.7 10.1C11.7 10.1 11.7 10.2 11.7 10.1ZM11.8 10.8C11.7 10.8 11.7 10.8 11.8 10.8C11.7 10.8 11.7 10.6 11.8 10.8C11.7 10.6 11.7 10.6 11.8 10.8C11.7 10.6 11.7 10.6 11.8 10.8C11.7 10.7 11.7 10.7 11.7 10.7C11.7 10.7 11.7 10.7 11.8 10.7C11.8 10.7 11.8 10.7 11.9 10.7C11.9 10.6 11.9 10.6 11.8 10.8C11.9 10.6 11.9 10.6 11.8 10.8C11.9 10.8 11.9 10.6 11.8 10.8ZM12.3 10.8C12.2 10.8 12.2 10.8 12.3 10.8C12.2 10.8 12.2 10.8 12.3 10.8C12.2 10.8 12.2 10.8 12.2 10.8C12.2 10.8 12.2 10.8 12.2 10.7C12.2 10.7 12.2 10.7 12.3 10.7C12.3 10.7 12.4 10.7 12.4 10.8C12.3 10.6 12.3 10.6 12.3 10.8C12.3 10.6 12.3 10.6 12.3 10.8ZM12.3 10.2C12.3 10.3 12.2 10.3 12.3 10.2C12.2 10.3 12.2 10.3 12.2 10.3C12.2 10.3 12.2 10.3 12.2 10.2C12.2 10.1 12.2 10.2 12.2 10.1C12.2 10.1 12.2 10.1 12.3 10.2C12.3 10.1 12.2 10.1 12.3 10.2C12.3 10.1 12.3 10.1 12.3 10.2Z" fill="#063296"/>
<path d="M11.7 12.6C11.8 12.6 11.8 12.6 11.7 12.6C11.8 12.7 11.8 12.7 11.8 12.7H11.9C12 12.7 12 12.7 12.1 12.7C12.1 12.7 12.2 12.7 12.2 12.6L12.3 12.5V12.4V11.7H12.2H11.9H11.8H11.7V11.8V11.9V12.4C11.5 12.3 11.5 12.5 11.7 12.6C11.7 12.5 11.7 12.5 11.7 12.6ZM12 12.1C12 12.1 11.9 12 12 12.1C11.9 12 11.9 12 12 12.1C11.9 12 11.9 12 11.9 12C11.9 12 11.9 11.9 12 11.9C12.1 12 12.1 12 12 12.1C12.1 12 12.1 12 12 12.1C12 12.1 12 12 12 12.1ZM12.3 12.3C12.3 12.3 12.2 12.3 12.3 12.3C12.2 12.3 12.2 12.3 12.3 12.3C12.2 12.3 12.2 12.3 12.2 12.3C12.2 12.3 12.2 12.3 12.2 12.2C12.2 12.2 12.2 12.2 12.2 12.1C12.2 12.1 12.2 12.1 12.3 12.1C12.3 12.1 12.3 12.2 12.3 12.3C12.3 12.2 12.3 12.2 12.3 12.3C12.3 12.2 12.3 12.2 12.3 12.3C12.3 12.2 12.3 12.2 12.3 12.3ZM12.2 11.7C12.3 11.7 12.3 11.7 12.3 11.7C12.3 11.7 12.3 11.7 12.2 11.7C12.1 11.8 12.1 11.8 12.2 11.7C12.1 11.7 12.1 11.7 12.2 11.7ZM11.7 11.7C11.7 11.7 11.8 11.7 11.7 11.7C11.8 11.7 11.8 11.7 11.7 11.7C11.8 11.7 11.8 11.7 11.8 11.7C11.7 11.8 11.7 11.8 11.7 11.7ZM11.7 12.2C11.7 12.1 11.7 12.1 11.7 12.2C11.7 12.1 11.8 12.1 11.7 12.2C11.8 12.1 11.8 12.1 11.8 12.1C11.8 12.3 11.8 12.3 11.7 12.2C11.7 12.3 11.8 12.3 11.7 12.2C11.7 12.3 11.7 12.3 11.7 12.2Z" fill="#063296"/>
<path d="M11.1 11.4H10.3V12.1C10.3 12.3 10.5 12.6 10.8 12.6C11 12.6 11.3 12.4 11.3 12.1L11.1 11.4ZM10.5 12.3C10.4 12.3 10.4 12.2 10.5 12.3C10.4 12.2 10.5 12.1 10.5 12.1C10.5 12.1 10.6 12.1 10.5 12.3C10.5 12.3 10.6 12.2 10.5 12.3ZM10.5 11.8C10.4 11.8 10.4 11.8 10.5 11.8C10.4 11.7 10.5 11.6 10.5 11.6C10.5 11.7 10.6 11.7 10.5 11.8C10.5 11.8 10.6 11.8 10.5 11.8ZM10.8 12.1C10.6 12.1 10.6 12 10.8 12.1C10.7 12 10.8 11.9 10.8 11.9C10.8 11.9 10.9 11.9 10.8 12.1C10.8 12.1 10.9 12 10.8 12.1ZM11 12.3C11 12.3 10.9 12.2 11 12.3C10.9 12.2 11 12.1 11 12.1C11.1 12.1 11.1 12.1 11 12.3C11.1 12.3 11.1 12.2 11 12.3ZM11 11.8C11 11.8 10.9 11.8 11 11.8C10.9 11.7 11 11.6 11 11.6C11.1 11.7 11.1 11.7 11 11.8C11.1 11.8 11.1 11.8 11 11.8Z" fill="#063296"/>
<path d="M9.59998 15.4C8.79998 15.3 8.09998 15.2 7.59998 15.1C7.89998 15 8.39998 14.9 8.99998 14.8C9.19998 14.9 9.39998 15.2 9.59998 15.4Z" fill="#006506"/>
<path d="M8.59998 13.9C7.89998 14 7.49998 14.1 7.09998 14.4C6.89998 13.8 6.59998 13.3 6.59998 12.7C7.19998 12.9 7.99998 13 8.29998 13.2C8.29998 13.3 8.29998 13.4 8.39998 13.7C8.59998 13.7 8.59998 13.8 8.59998 13.9Z" fill="#006506"/>
<path d="M8.40002 7.90005V12.6C8.40002 12.7 8.40002 12.8 8.40002 12.8V13C8.40002 13.2 8.50003 13.6 8.60003 13.8V13.9C8.60003 14 8.70002 14.1 8.70002 14.2C8.70002 14.2 8.70002 14.3 8.80002 14.3C9.00002 14.5 9.30002 14.9 9.50002 15.1C9.60002 15.1 9.60002 15.2 9.70002 15.2C9.90002 15.4 10.3 15.5 10.5 15.7H10.6C10.8 15.8 11.2 15.8 11.4 15.8H11.5H11.6C11.7 15.8 11.7 15.8 11.8 15.8H12C12.1 15.8 12.2 15.8 12.2 15.8C12.4 15.8 12.7 15.7 12.9 15.6H13C13.2 15.5 13.6 15.4 13.8 15.1C13.9 15.1 13.9 15 14 15L14.1 14.9C14.1 14.9 14.1 14.9 14.2 14.8L14.3 14.7C14.5 14.5 14.6 14.2 14.8 13.9V13.8C14.9 13.6 15 13.2 15 13C15 13 15 13 15 12.9V12.8C15 12.7 15 12.7 15 12.6V7.80005H8.40002V7.90005ZM15.4 12.7C15.4 12.8 15.4 12.9 15.4 12.9V13C15.4 13.3 15.3 13.6 15.2 13.8V13.9C15.1 14.1 14.9 14.5 14.7 14.7L14.6 14.8C14.5 14.9 14.4 15 14.3 15.1C14.2 15.1 14.2 15.2 14.1 15.2C14.1 15.2 14.1 15.2 14 15.2C13.7 15.4 13.3 15.5 12.9 15.7C12.8 15.7 12.7 15.7 12.4 15.8H12.3C12.2 15.8 12.2 15.8 12.1 15.8H12H11.9H11.8C11.3 15.7 10.9 15.6 10.6 15.3C10.6 15.3 10.6 15.3 10.5 15.3C10.4 15.3 10.4 15.2 10.3 15.2C10 15 9.70002 14.7 9.50002 14.4C9.50002 14.4 9.50002 14.3 9.40002 14.3C9.00002 14.3 9.00002 14.3 8.80002 14.1V14C8.70002 13.8 8.70003 13.5 8.60003 13.2V13.1C8.60003 13 8.60003 12.9 8.60003 12.8V8.20005H15.5V12.7H15.4Z" fill="white"/>
<path d="M13.5 11.7C13.4 11.7 13.4 11.7 13.5 11.7C13.4 11.8 13.4 11.8 13.4 11.8C13.4 11.8 13.4 11.9 13.5 11.9C13.5 11.9 13.6 11.9 13.6 11.8C13.6 11.8 13.6 11.8 13.5 11.7C13.6 11.8 13.6 11.8 13.5 11.7C13.6 11.7 13.6 11.7 13.5 11.7Z" fill="white"/>
<path d="M13.5 12.1C13.5 12.1 13.4 12.1 13.5 12.1C13.4 12.2 13.5 12.3 13.5 12.3C13.6 12.3 13.6 12.2 13.5 12.1C13.6 12.1 13.6 12.1 13.5 12.1Z" fill="white"/>
<path d="M13.2 11.9C13.2 11.9 13.1 11.9 13.2 11.9C13.1 12 13.2 12.1 13.2 12.1C13.2 12.1 13.4 12 13.2 11.9C13.2 11.9 13.4 11.9 13.2 11.9Z" fill="white"/>
<path d="M13 11.7C12.9 11.7 12.9 11.7 13 11.7C12.9 11.8 13 11.9 13 11.9C13 11.8 13.1 11.8 13 11.7C13 11.7 13.1 11.7 13 11.7Z" fill="white"/>
<path d="M13 12.1C12.9 12.1 12.9 12.1 13 12.1C12.9 12.2 13 12.3 13 12.3C13 12.3 13.1 12.2 13 12.1C13 12.1 13.1 12.1 13 12.1Z" fill="white"/>
<path d="M12.3 9.40002H12.2H11.9H11.8H10V9.50002V9.70002V10.6V10.7V10.8V11.1V11.2V12.2V12.3V12.4C10 13.4 10.8 14.2 11.7 14.4H11.8H11.9C12 14.4 12 14.4 12.1 14.4H12.2C12.4 14.4 12.8 14.3 12.9 14.2L13 14.1C13.3 13.9 13.6 13.5 13.7 13.2V13.1C13.7 13 13.7 12.8 13.7 12.6V12.1V12V11.3V11.2V10.9V10.8V9.60003H12.3V9.40002V9.40002ZM11.2 11.5V12.2C11.2 12.4 11 12.7 10.7 12.7C10.5 12.7 10.2 12.5 10.2 12.2V11.5H11.2ZM12.5 13.8V13.9C12.5 13.9 12.4 13.9 12.4 14C12.4 14 12.3 14 12.2 14C12.1 14 12 14 12 14C12 14 11.9 14 11.9 13.9C11.8 13.8 11.8 13.7 11.8 13.6V13.4V13.3V13H11.9H12H12.2H12.3H12.4L12.5 13.8ZM12.5 12.3C12.5 12.3 12.5 12.4 12.4 12.4C12.4 12.4 12.3 12.4 12.3 12.5C12.3 12.5 12.2 12.5 12.1 12.5C12 12.5 12 12.5 12 12.5C12 12.5 11.9 12.5 11.9 12.4C11.8 12.3 11.8 12.2 11.8 12.1V11.6V11.5V11.4H11.9H12H12.3H12.4H12.5V12.1C12.5 12.2 12.5 12.2 12.5 12.3ZM13.7 11.8V12V12.2C13.7 12.4 13.5 12.7 13.2 12.7C13.2 12.7 13.2 12.7 13.1 12.7C13 12.7 13 12.6 12.9 12.6C12.9 12.6 12.9 12.6 12.9 12.5C12.9 12.4 12.8 12.4 12.8 12.3V11.6H12.9H13.1H13.6V11.8H13.7ZM12.5 10V10.7V10.8C12.5 10.9 12.5 10.9 12.4 10.9C12.4 10.9 12.4 10.9 12.3 11C12.3 11 12.2 11 12.1 11C12 11 12 11 12 11C12 11 11.9 11 11.9 10.9C11.9 10.9 11.8 10.8 11.8 10.7V10.6V10.5V9.90002H11.9H12H12.3H12.4H12.5V10V10Z" fill="white"/>
<path d="M12.3 10.1C12.3 10.1 12.2 10.1 12.3 10.1C12.2 10.1 12.2 10.1 12.3 10.1C12.2 10.1 12.2 10.1 12.2 10.1C12.2 10.1 12.2 10.1 12.2 10.2C12.2 10.3 12.2 10.2 12.2 10.3C12.2 10.3 12.2 10.3 12.3 10.3C12.3 10.2 12.3 10.2 12.3 10.1C12.3 10.2 12.3 10.2 12.3 10.1C12.3 10.2 12.3 10.2 12.3 10.1Z" fill="white"/>
<path d="M12.3 13.2C12.3 13.2 12.2 13.2 12.3 13.2C12.2 13.2 12.2 13.2 12.3 13.2C12.2 13.2 12.2 13.2 12.2 13.2C12.2 13.2 12.2 13.2 12.2 13.3C12.2 13.3 12.2 13.3 12.2 13.4C12.2 13.4 12.2 13.4 12.3 13.4C12.3 13.4 12.3 13.4 12.3 13.2C12.3 13.2 12.3 13.4 12.3 13.2Z" fill="white"/>
<path d="M12.3 11.7C12.3 11.7 12.2 11.7 12.3 11.7C12.2 11.7 12.2 11.7 12.3 11.7C12.2 11.7 12.2 11.7 12.2 11.7C12.2 11.7 12.2 11.7 12.2 11.8C12.2 11.8 12.2 11.8 12.2 11.9C12.2 11.9 12.2 11.9 12.3 11.9C12.3 11.8 12.3 11.8 12.3 11.7C12.3 11.8 12.3 11.8 12.3 11.7C12.3 11.7 12.3 11.8 12.3 11.7Z" fill="white"/>
<path d="M12.3 13.7C12.3 13.7 12.2 13.7 12.3 13.7C12.2 13.7 12.2 13.7 12.2 13.7C12.2 13.7 12.2 13.7 12.2 13.8C12.2 13.8 12.2 13.8 12.2 13.9C12.2 13.9 12.2 13.9 12.3 13.9C12.3 13.8 12.3 13.8 12.3 13.7C12.3 13.8 12.3 13.8 12.3 13.7C12.3 13.8 12.3 13.8 12.3 13.7Z" fill="white"/>
<path d="M12.2 10.5C12.1 10.6 12.1 10.6 12.2 10.5C12.1 10.6 12.1 10.6 12.1 10.6C12.3 10.6 12.3 10.6 12.2 10.5C12.3 10.6 12.3 10.6 12.2 10.5C12.3 10.5 12.3 10.6 12.2 10.5Z" fill="white"/>
<path d="M12.3 12.1C12.3 12.1 12.2 12.1 12.3 12.1C12.2 12.1 12.2 12.1 12.3 12.1C12.2 12.1 12.2 12.1 12.2 12.1C12.2 12.1 12.2 12.1 12.2 12.2C12.2 12.2 12.2 12.2 12.2 12.3C12.2 12.3 12.2 12.3 12.3 12.3C12.3 12.2 12.3 12.2 12.3 12.1C12.3 12.2 12.3 12.2 12.3 12.1C12.3 12.2 12.3 12.2 12.3 12.1C12.3 12.1 12.3 12.2 12.3 12.1Z" fill="white"/>
<path d="M12 10.3C12 10.3 11.9 10.4 12 10.3C11.9 10.4 12 10.5 12 10.5C12 10.5 12.1 10.4 12 10.3C12 10.3 12.1 10.4 12 10.3Z" fill="white"/>
<path d="M12 13.5C12 13.5 11.9 13.5 12 13.5C11.9 13.5 11.9 13.5 12 13.5C11.9 13.6 12 13.7 12 13.7C12.1 13.6 12.1 13.6 12 13.5C12 13.5 12.1 13.5 12 13.5Z" fill="white"/>
<path d="M12 11.9C11.9 11.9 11.9 11.9 11.9 11.9C11.9 11.9 11.9 12 12 12C12.1 12 12.1 12 12 11.9C12.1 12 12.1 12 12 11.9C12.1 11.9 12.1 11.9 12 11.9Z" fill="white"/>
<path d="M11.8 10.1C11.8 10.1 11.7 10.1 11.8 10.1C11.7 10.1 11.7 10.1 11.7 10.1C11.9 10.2 11.9 10.2 11.8 10.1C11.9 10.1 11.9 10.2 11.8 10.1Z" fill="white"/>
<path d="M11.8 13.2C11.8 13.2 11.7 13.2 11.8 13.2C11.7 13.2 11.7 13.2 11.7 13.2C11.9 13.4 11.9 13.4 11.8 13.2C11.9 13.2 11.9 13.2 11.8 13.2Z" fill="white"/>
<path d="M11.8 13.7C11.8 13.7 11.7 13.7 11.8 13.7C11.7 13.7 11.7 13.7 11.7 13.7C11.9 13.8 11.9 13.8 11.8 13.7C11.9 13.7 11.9 13.8 11.8 13.7Z" fill="white"/>
<path d="M11.8 12.1C11.8 12.1 11.7 12.1 11.8 12.1C11.7 12.1 11.7 12.1 11.7 12.1C11.9 12.2 11.9 12.2 11.8 12.1C11.9 12.2 11.9 12.2 11.8 12.1Z" fill="white"/>
<path d="M11.8 11.7C11.8 11.7 11.7 11.7 11.8 11.7C11.7 11.7 11.7 11.7 11.7 11.7C11.7 11.7 11.7 11.7 11.7 11.8C11.9 11.8 11.9 11.8 11.8 11.7C11.9 11.8 11.9 11.8 11.8 11.7C11.9 11.7 11.9 11.7 11.8 11.7Z" fill="white"/>
<path d="M11.8 10.6C11.8 10.5 11.8 10.5 11.8 10.6C11.8 10.5 11.8 10.5 11.8 10.6C11.7 10.6 11.7 10.6 11.7 10.6C11.7 10.6 11.7 10.6 11.8 10.6C11.9 10.6 11.9 10.8 11.8 10.6C11.9 10.6 11.9 10.6 11.8 10.6C11.9 10.6 11.9 10.6 11.8 10.6Z" fill="white"/>
<path d="M11 11.7C11 11.7 10.9 11.7 11 11.7C10.9 11.8 11 11.9 11 11.9C11.1 11.8 11.1 11.8 11 11.7C11.1 11.7 11.1 11.7 11 11.7Z" fill="white"/>
<path d="M11 12.1C11 12.1 10.9 12.1 11 12.1C10.9 12.2 11 12.3 11 12.3C11.1 12.3 11.1 12.2 11 12.1C11.1 12.1 11.1 12.1 11 12.1Z" fill="white"/>
<path d="M10.8 11.9C10.6 11.9 10.6 11.9 10.8 11.9C10.7 12 10.8 12.1 10.8 12.1C10.8 12.1 10.9 12 10.8 11.9C10.8 11.9 10.9 11.9 10.8 11.9Z" fill="white"/>
<path d="M10.5 11.7C10.4 11.7 10.4 11.7 10.5 11.7C10.4 11.8 10.5 11.9 10.5 11.9C10.5 11.8 10.6 11.8 10.5 11.7C10.5 11.7 10.6 11.7 10.5 11.7Z" fill="white"/>
<path d="M10.5 12.1C10.4 12.1 10.4 12.1 10.5 12.1C10.4 12.2 10.5 12.3 10.5 12.3C10.5 12.3 10.6 12.2 10.5 12.1C10.5 12.1 10.6 12.1 10.5 12.1Z" fill="white"/>
<path d="M8.40001 11.5V12.4C7.90001 12.3 7.30001 12.2 6.70001 11.9C7.20001 11.8 7.70001 11.7 8.40001 11.5Z" fill="#006506"/>
<path d="M8.40001 8.09998V8.19998C8.30001 8.19998 8.30001 8.19998 8.20001 8.19998C8.30001 8.19998 8.40001 8.19998 8.40001 8.09998Z" fill="#006506"/>
<path d="M7.70001 11C7.40001 11.1 6.90001 11.2 6.70001 11.3C6.70001 11 6.80001 10.6 6.90001 10.3C7.20001 10.4 7.40001 10.6 7.70001 11Z" fill="#006506"/>
<path d="M8.60004 8.10002V12.7C8.60004 12.8 8.60004 12.9 8.60004 13V13.1C8.60004 13.3 8.70004 13.7 8.80004 13.9V14C8.80004 14.1 8.90004 14.2 8.90004 14.3C8.90004 14.3 8.90004 14.4 9.00004 14.4C9.20004 14.7 9.50004 15 9.80004 15.2C9.90004 15.2 9.90004 15.3 10 15.3C10 15.3 10 15.3 10.1 15.3C10.4 15.5 10.9 15.6 11.3 15.8H11.4H11.5H11.6C11.7 15.8 11.7 15.8 11.8 15.8H11.9C12 15.8 12.1 15.8 12.4 15.7C12.7 15.6 13.2 15.5 13.5 15.2C13.5 15.2 13.5 15.2 13.6 15.2C13.7 15.2 13.7 15.1 13.8 15.1C13.9 15 14 14.9 14.1 14.8L14.2 14.7C14.4 14.5 14.5 14.2 14.7 13.9V13.8C14.8 13.6 14.9 13.2 14.9 13V12.9C14.9 12.8 14.9 12.7 14.9 12.7V8.10002C15.2 8.10002 8.60004 8.10002 8.60004 8.10002ZM15.4 12.7C15.4 12.8 15.4 12.9 15.4 12.9V13C15.4 13.2 15.3 13.6 15.2 13.8V13.9C15.1 14.2 14.9 14.5 14.7 14.7L14.6 14.8C14.5 14.9 14.4 15 14.3 15.1C14.2 15.1 14.2 15.2 14.1 15.2C14.1 15.2 14.1 15.2 14 15.2C13.5 15.4 13.1 15.7 12.6 15.7H12.5C12.4 15.7 12.4 15.7 12.3 15.7H12.2H12C11.5 15.7 11.1 15.5 10.6 15.2C10.6 15.2 10.6 15.2 10.5 15.2C10.4 15.2 10.4 15.1 10.3 15.1C10 14.9 9.70004 14.6 9.50004 14.3C9.50004 14.3 9.50004 14.2 9.40004 14.2C9.30004 14.1 9.30004 14 9.30004 13.9V13.8C9.20004 13.6 9.20004 13.3 9.10004 13C9.10004 12.9 9.10004 12.7 9.10004 12.5V7.90002H15.9V12.6H15.4V12.7Z" fill="black"/>
<path d="M14.7 11.2V11.3H14.8V11.2H14.7Z" fill="black"/>
<path d="M14.8 8.40002H14.7V8.50002H14.8V8.40002Z" fill="black"/>
<path d="M14.5 14.5H14.4L14.5 14.6V14.5Z" fill="black"/>
<path d="M14.4 11.3V11.4H14.5V11.3H14.4Z" fill="black"/>
<path d="M14.4 8.5V8.6H14.5V8.5H14.4Z" fill="black"/>
<path d="M14.4 14.1L14.3 14.3L14.4 14.1Z" fill="black"/>
<path d="M15.3 12V11.7V11.6V11.5H15.2H15H14.9V11.6V11.7H14.8V11.6V11.5V11.4V10.9H14.7H14.6H14.5V11V11.1V11.2V11.3H14.4V11.2V11.1V11H14.5H14.4H14.3V11.1V11.2V11.5C14.3 11.5 14.3 11.5 14.3 11.6H15.3C15.3 12.1 15.3 12.1 15.3 12ZM15.3 12H15C15 11.8 14.9 11.7 14.8 11.7H15.1L15.3 12ZM14.7 11.8C14.7 11.8 14.6 11.8 14.6 12H14.5C14.5 11.8 14.6 11.7 14.7 11.8C14.8 11.7 14.9 11.8 14.9 12H14.8C14.9 11.8 14.7 11.8 14.7 11.8ZM14.8 12H14.6C14.6 11.8 14.7 11.8 14.7 11.8C14.7 11.8 14.8 11.8 14.8 12ZM14.9 11.2V11.1V11.2C14.9 11.2 14.9 11.1 14.9 11.2C15 11.1 15 11.2 14.9 11.2L15 11.1H15.1V11.2H14.9ZM15.2 11.4H15V11.3H15.2V11.4ZM14.6 11H14.7H14.8V11.1L14.6 11ZM14.8 11.4H14.6V11.3V11.2V11.1H14.8V11.2V11.4ZM14.3 11.2C14.3 11.1 14.3 11.1 14.3 11.2C14.3 11.1 14.3 11.2 14.3 11.2H14.4H14.5V11.3L14.3 11.2ZM14.5 11.4H14.3V11.3H14.5V11.4ZM14.3 11.5C14.3 11.4 14.3 11.4 14.3 11.5H15.3H14.3ZM14.3 11.7C14.3 11.7 14.3 11.5 14.3 11.7C14.3 11.5 14.3 11.5 14.3 11.7L15.2 11.6H14.3V11.7ZM14.3 11.7H14.6C14.5 11.7 14.4 11.8 14.4 12H14.2L14.3 11.7ZM15.3 12.1H14.3H15.3C15.3 12 15.3 12 15.3 12.1Z" fill="black"/>
<path d="M15.3 9.19998V8.79998V8.69998V8.59998H15.2H15H14.9V8.69998V8.79998V8.99998H14.8V8.79998V8.59998V8.49998H14.7H14.6H14.5V8.59998V8.79998V8.99998H14.4V8.79998V8.69998H14.5H14.4H14.3V8.79998V8.99998V9.29998C14.3 9.29998 14.3 9.29998 14.3 9.39998C14.3 9.39998 14.3 9.49998 14.4 9.49998H15.4C15.3 9.29998 15.3 9.29998 15.3 9.19998C15.3 9.29998 15.3 9.29998 15.3 9.19998C15.3 9.19998 15.3 9.29998 15.3 9.19998ZM15.3 9.19998H15C15 8.99998 14.9 8.89998 14.8 8.89998H15.1L15.3 9.19998ZM14.7 8.99998C14.7 8.99998 14.6 8.99998 14.6 9.19998H14.5C14.5 8.99998 14.6 8.79998 14.7 8.99998C14.8 8.89998 14.9 8.99998 14.9 9.19998H14.8C14.9 8.99998 14.7 8.99998 14.7 8.99998ZM14.8 9.19998H14.6C14.6 8.99998 14.7 8.99998 14.7 8.99998C14.7 8.99998 14.8 9.09998 14.8 9.19998ZM14.9 8.39998H15H15.1V8.49998L14.9 8.39998ZM15.2 8.69998H15V8.59998V8.49998H15.2V8.69998ZM14.6 8.29998C14.6 8.19998 14.6 8.19998 14.6 8.29998H14.7H14.8V8.39998L14.6 8.29998ZM14.8 8.69998H14.6V8.59998V8.39998H14.8V8.59998V8.69998ZM14.3 8.39998H14.4H14.5V8.49998L14.3 8.39998ZM14.5 8.69998H14.3V8.59998H14.5V8.69998ZM14.3 8.69998H15.3H14.3ZM14.3 8.79998L15.2 8.69998H14.3V8.79998ZM14.3 8.79998H14.6C14.5 8.79998 14.4 8.89998 14.4 9.09998H14.2L14.3 8.79998ZM15.3 9.29998H14.3H15.3C15.3 9.29998 15.3 9.19998 15.3 9.29998Z" fill="black"/>
<path d="M13.9 14.1L14 14H13.9V14.1Z" fill="black"/>
<path d="M14.7 14.5C14.7 14.4 14.7 14.4 14.7 14.5H14.6H14.7C14.7 14.4 14.7 14.4 14.7 14.5L14.6 14.3H14.4V14.4L14.3 14.5L14.5 14.2H14.6L14.7 14.1L14.6 14.2V14.3H14L14.1 14.2H14.2L14.3 14.1L14.2 14.2V14.3L14.1 14.4C14.1 14.4 14.1 14.4 14 14.4C14 14.4 14 14.4 14 14.5C14 14.5 14 14.5 14 14.6L13.8 14.7H13.7L14.4 15.4H14.5V15.3L14.6 15.2L14.7 15.1C14.7 15.1 14.7 15.1 14.8 15.1C14.8 15.1 14.8 15.1 14.8 15L14.9 14.9L14.7 14.5ZM14.4 13.8C14.4 13.9 14.4 13.9 14.4 13.8V13.9V13.8L14.5 13.9L14.4 14H14.3L14.2 13.9L14.4 13.8ZM14.4 14L14.5 14.1L14.3 14.4L14 14.3L14.4 14ZM14 13.8V13.9V13.8L14.1 13.9L14 14H13.9L13.8 13.9L14 13.8ZM14 13.9L14.1 14L14 14.3L13.9 14.2L14 13.9ZM13.5 14.4L13.7 14.2L13.9 14.4C13.9 14.4 13.8 14.4 13.7 14.4C13.7 14.4 13.6 14.4 13.6 14.5L13.5 14.4ZM13.9 14.8C13.9 14.8 13.9 14.7 13.9 14.8C13.9 14.7 13.9 14.7 13.9 14.6C13.9 14.6 13.9 14.6 13.8 14.6C13.8 14.6 13.7 14.6 13.6 14.7L13.7 14.6C13.8 14.6 13.9 14.6 13.9 14.6C13.9 14.6 13.9 14.6 13.9 14.7C14 14.7 14 14.7 13.9 14.8C14 14.8 14 14.8 13.9 14.8C14 14.9 13.9 14.9 13.9 14.9V14.8ZM13.8 14.8L13.7 14.7C13.8 14.6 13.8 14.6 13.9 14.6C13.9 14.6 13.9 14.7 13.8 14.8C13.9 14.7 13.9 14.7 13.8 14.8C13.9 14.8 13.9 14.8 13.8 14.8ZM14.1 15.2C14.1 15.2 14 15.2 14.1 15.2L13.3 14.5C13.3 14.5 13.3 14.5 13.3 14.4C13.3 14.4 13.3 14.4 13.4 14.4L13.6 14.6L13.7 14.7L13.8 14.8L13.9 14.9L14.1 15.2ZM14.3 14.9L14.2 15.1L14 15C14 15 14 14.9 14.1 14.9V14.8V14.7L14.2 14.8L14.3 14.9V14.9ZM14.4 14.8L14.3 14.7L13.7 14.1L14.4 14.8C14.4 14.7 14.4 14.7 14.4 14.8ZM14.5 14.7C14.5 14.8 14.5 14.8 14.5 14.7L13.8 14L14 14.2L14.2 14.4L14.5 14.7ZM14.5 14.7L14.4 14.6L14.5 14.5L14.6 14.6L14.5 14.7ZM14.7 14.5L14.5 14.4V14.3L14.7 14.5C14.7 14.5 14.6 14.5 14.7 14.5V14.4V14.5Z" fill="black"/>
<path d="M12.6 9.19998V8.79998V8.69998V8.59998V8.49998H12.5H12.4H12.3V8.59998V8.79998H12.2V8.69998V8.59998V8.49998V8.39998H12H11.9H11.8V8.49998V8.59998V8.69998V8.79998H11.7V8.69998V8.59998H11.6H11.5H11.4V8.69998V8.79998V8.99998V9.29998C11.4 9.29998 11.4 9.29998 11.4 9.39998C11.4 9.39998 11.4 9.49998 11.5 9.49998H12.5C12.6 9.29998 12.6 9.29998 12.6 9.19998C12.6 9.19998 12.6 9.29998 12.6 9.19998ZM12.5 9.19998H12.3C12.3 9.09998 12.3 9.09998 12.3 8.99998L12.2 8.89998H12.5V9.19998V9.19998ZM12 8.99998C12 8.99998 11.9 8.99998 11.9 9.19998H11.8C11.8 9.09998 11.8 9.09998 11.8 8.99998C11.9 8.99998 11.9 8.79998 12 8.99998C12.1 8.89998 12.1 8.99998 12.2 8.99998C12.2 8.99998 12.2 8.99998 12.2 9.09998V9.19998H12.1C12.1 8.99998 12 8.99998 12 8.99998ZM12.1 9.19998H11.9C11.9 8.99998 12 8.99998 12 8.99998C12 8.99998 12.1 9.09998 12.1 9.19998ZM12.1 8.39998C12.2 8.39998 12.2 8.39998 12.1 8.39998H12.2H12.3V8.49998L12.1 8.39998ZM12.5 8.69998H12.3V8.59998V8.49998H12.5V8.59998V8.69998ZM11.9 8.29998C11.9 8.19998 11.9 8.19998 11.9 8.29998H12H12.1V8.39998L11.9 8.29998ZM12.1 8.69998H11.9V8.59998V8.49998V8.39998H12.1V8.49998V8.59998V8.69998ZM11.5 8.39998V8.29998V8.39998C11.7 8.39998 11.7 8.39998 11.5 8.39998L11.6 8.29998H11.7V8.39998H11.5ZM11.8 8.69998H11.6V8.59998V8.49998H11.8V8.59998V8.69998ZM11.4 8.69998H12.4H11.4ZM11.5 8.79998L12.4 8.69998H11.5V8.79998ZM11.5 8.79998H11.8C11.8 8.79998 11.7 8.79998 11.7 8.89998C11.7 8.89998 11.6 8.99998 11.6 9.09998H11.4L11.5 8.79998ZM12.5 9.29998H11.5H12.5C12.6 9.29998 12.6 9.19998 12.5 9.29998C12.6 9.29998 12.6 9.29998 12.5 9.29998Z" fill="black"/>
<path d="M10 14L10.1 14.1V14H10Z" fill="black"/>
<path d="M10 9.40005V12.7C10 13.7 10.8 14.6 11.7 14.7H11.8H11.9C12 14.7 12 14.7 12.1 14.7H12.2C12.4 14.7 12.8 14.6 13 14.4L13.1 14.3C13.4 14.1 13.7 13.7 13.8 13.4V13.3C13.8 13.2 13.9 13 13.9 12.8V9.50005H10V9.40005ZM14 12.7C14 12.8 14 13 14 13.2V13.3C13.9 13.6 13.7 14 13.3 14.2L13.2 14.3C13 14.4 12.7 14.5 12.5 14.5H12.4C12.3 14.5 12.3 14.5 12.2 14.5H12.1H12C11.1 14.4 10.3 13.5 10.3 12.5V9.30005H14.4V12.7H14V12.7Z" fill="black"/>
<path d="M9.69099 14.2073L9.62018 14.278L9.69079 14.3488L9.7616 14.2782L9.69099 14.2073Z" fill="black"/>
<path d="M9.5 11.3V11.4H9.6V11.3H9.5Z" fill="black"/>
<path d="M9.5 8.5V8.6H9.6V8.5H9.5Z" fill="black"/>
<path d="M9.20001 11.2V11.3H9.30001V11.2H9.20001Z" fill="black"/>
<path d="M9.30001 8.40002H9.20001V8.50002H9.30001V8.40002Z" fill="black"/>
<path d="M10.6 14.4L10.3 14.2C10.3 14.2 10.3 14.2 10.3 14.1C10.3 14.1 10.3 14.1 10.3 14C10.3 14 10.3 14 10.2 14L10.1 13.9V13.8H10L10.1 13.9H10.2L10 14.3L9.60005 14V13.9L9.50005 13.8L9.60005 13.9H9.70005L9.90005 14.2L9.80005 14.1V14L9.70005 13.9L9.90005 14H10L10.1 14.1C10.1 14.1 10.1 14.1 10.1 14.2C10.1 14.2 10.1 14.2 10.2 14.2C10.2 14.2 10.2 14.2 10.3 14.2L10.5 14.4V14.5H10.6V14.4C10.8 14.4 10.8 14.5 10.6 14.4ZM10.6 14.4L10.5 14.5C10.4 14.4 10.2 14.4 10.2 14.4L10.4 14.2L10.6 14.4ZM10.1 14.6C10.1 14.6 10 14.7 10.2 14.9L10.1 15C10 14.7 10 14.6 10.1 14.6C10.1 14.5 10.3 14.5 10.4 14.6L10.3 14.7C10.2 14.5 10.1 14.6 10.1 14.6ZM10.3 14.6L10.2 14.7L10.1 14.8C10 14.7 10 14.6 10 14.6C10.1 14.6 10.2 14.5 10.3 14.6ZM9.90005 14L9.80005 13.9L9.90005 14C9.90005 13.9 9.90005 13.9 9.90005 13.9L10 14V14.1L9.90005 14ZM9.90005 14L10 13.9L10.1 14V14.2L9.90005 14ZM9.50005 14.1L9.40005 14L9.50005 14.1C9.50005 14 9.50005 14 9.50005 14.1C9.50005 14 9.50005 14 9.50005 14L9.60005 14.1V14.2L9.50005 14.1ZM9.50005 14.1L9.60005 14L9.90005 14.2L9.80005 14.3L9.50005 14.1ZM9.40005 14.5L9.30005 14.4L9.40005 14.5C9.40005 14.4 9.40005 14.4 9.40005 14.4L9.50005 14.5V14.6L9.40005 14.5ZM9.40005 14.5L9.50005 14.4L9.60005 14.5L9.50005 14.6L9.40005 14.5ZM9.60005 14.7C9.50005 14.8 9.50005 14.8 9.60005 14.7C9.50005 14.7 9.50005 14.7 9.60005 14.7L9.80005 14.5L9.90005 14.3L10.1 14.1L9.60005 14.7ZM9.60005 14.8L10.2 14.1L9.60005 14.8ZM9.70005 14.8L9.90005 14.6C9.90005 14.7 9.90005 14.8 10 14.9V15L9.70005 14.8ZM10.6 14.5L10 15.2C10 15.2 10 15.2 9.90005 15.2C9.90005 15.2 9.90005 15.2 9.90005 15.1L10.1 14.9L10.2 14.8L10.3 14.7L10.6 14.5C10.6 14.4 10.6 14.4 10.6 14.5C10.6 14.5 10.6 14.4 10.6 14.5Z" fill="black"/>
<path d="M9.70001 9.19998V8.79998V8.69998V8.59998H9.60001H9.50001H9.40001V8.69998V8.79998V8.69998V8.49998V8.39998H9.30001H9.20001H9.10001V8.49998V8.69998V8.79998V8.69998V8.59998V8.49998H9.00001H8.80001H8.70001V8.59998V8.69998V8.79998V8.99998C8.70001 8.99998 8.70001 8.99998 8.70001 9.09998C8.70001 9.09998 8.70001 9.19998 8.80001 9.19998H9.80001C9.70001 9.29998 9.90001 9.29998 9.70001 9.19998C9.70001 9.19998 9.90001 9.29998 9.70001 9.19998ZM9.70001 9.19998H9.50001C9.50001 8.99998 9.40001 8.89998 9.30001 8.89998H9.60001L9.70001 9.19998ZM9.30001 8.99998C9.30001 8.99998 9.20001 8.99998 9.20001 9.19998H9.10001C9.10001 8.99998 9.20001 8.79998 9.30001 8.99998C9.40001 8.89998 9.50001 8.99998 9.50001 9.19998H9.40001C9.40001 8.99998 9.30001 8.99998 9.30001 8.99998ZM9.40001 9.19998H9.20001C9.20001 9.09998 9.30001 8.99998 9.30001 8.99998C9.30001 8.99998 9.40001 9.09998 9.40001 9.19998ZM9.40001 8.39998C9.50001 8.39998 9.50001 8.39998 9.40001 8.39998H9.50001H9.60001V8.49998L9.40001 8.39998ZM9.70001 8.69998H9.50001V8.59998H9.70001V8.69998ZM9.10001 8.29998C9.20001 8.19998 9.20001 8.19998 9.10001 8.29998H9.20001H9.30001V8.39998L9.10001 8.29998ZM9.40001 8.69998H9.20001V8.59998V8.39998H9.40001V8.59998V8.69998V8.69998ZM8.70001 8.39998C8.80001 8.39998 8.80001 8.39998 8.70001 8.39998H8.80001H9.00001V8.49998L8.70001 8.39998ZM9.10001 8.69998H8.80001V8.59998H9.00001V8.69998H9.10001ZM8.70001 8.69998H9.70001H8.70001ZM8.80001 8.79998C8.70001 8.79998 8.70001 8.79998 8.80001 8.79998C8.70001 8.79998 8.70001 8.79998 8.80001 8.79998L9.70001 8.69998H8.80001V8.79998ZM8.70001 9.19998V9.09998V8.79998H9.00001C9.00001 8.79998 9.00001 8.99998 8.80001 9.09998L8.70001 9.19998ZM9.70001 9.29998H8.70001H9.70001C9.90001 9.29998 9.70001 9.19998 9.70001 9.29998C9.70001 9.29998 9.90001 9.29998 9.70001 9.29998Z" fill="black"/>
<path d="M9.70001 12V11.7V11.6V11.5V11.4H9.60001H9.50001H9.40001V11.5V11.6V11.7V11.6V11.5V11.4V10.9H9.30001H9.20001H9.10001V11V11.2V11.3V11.2V11.1H9.00001H8.80001H8.70001V11.2V11.3V11.5C8.70001 11.5 8.70001 11.5 8.70001 11.6C8.70001 11.6 8.70001 11.7 8.80001 11.7H9.80001C9.70001 12.1 9.90001 12.1 9.70001 12C9.70001 12 9.90001 12 9.70001 12ZM9.70001 12H9.50001C9.50001 11.8 9.40001 11.7 9.30001 11.7H9.60001L9.70001 12ZM9.30001 11.8C9.30001 11.8 9.20001 11.8 9.30001 11.8C9.20001 11.8 9.20001 11.8 9.30001 11.8C9.20001 11.9 9.20001 11.9 9.20001 12H9.10001V11.9C9.10001 11.9 9.10001 11.8 9.20001 11.8C9.20001 11.7 9.20001 11.7 9.30001 11.8C9.40001 11.7 9.50001 11.8 9.50001 12H9.40001C9.40001 11.8 9.30001 11.8 9.30001 11.8ZM9.40001 12H9.20001C9.20001 11.9 9.20001 11.9 9.20001 11.9C9.30001 11.8 9.40001 11.8 9.40001 12C9.40001 11.9 9.40001 11.9 9.40001 12ZM9.40001 11.2C9.50001 11.1 9.50001 11.2 9.40001 11.2H9.50001H9.60001V11.3L9.40001 11.2ZM9.70001 11.4H9.50001V11.3V11.2H9.70001V11.3V11.4ZM9.10001 11C9.20001 11 9.20001 11 9.10001 11H9.20001H9.30001V11.1L9.10001 11ZM9.40001 11.4H9.20001V11.3V11.2H9.40001V11.3V11.4V11.4ZM8.70001 11.2C8.80001 11.1 8.80001 11.2 8.70001 11.2H8.80001H9.00001V11.3L8.70001 11.2ZM9.10001 11.4H8.80001V11.3H9.00001V11.4H9.10001ZM8.70001 11.5C8.70001 11.5 8.70001 11.4 8.70001 11.5C8.70001 11.4 8.70001 11.4 8.70001 11.5H9.70001H8.70001ZM8.80001 11.7C8.70001 11.7 8.70001 11.5 8.80001 11.7C8.70001 11.5 8.70001 11.5 8.80001 11.7L9.70001 11.6H8.80001V11.7ZM8.80001 11.8L9.30001 11.7C9.30001 11.7 9.20001 11.7 9.20001 11.8C9.20001 11.8 9.20001 11.9 9.10001 11.9V12H8.70001L8.80001 11.8ZM9.70001 12.1H8.70001H9.70001C9.90001 12 9.70001 12 9.70001 12.1C9.70001 12.1 9.90001 12.1 9.70001 12.1Z" fill="black"/>
<path d="M18 12.6C18 12.7 18 12.6 18 12.6V12.6ZM18 11.2C18 11.3 18 11.3 18 11.2C18 11.3 18 11.3 18 11.2C18 11.2 18 11.3 18 11.2ZM17.6 9.90002C17.6 10 17.6 10 17.6 9.90002C17.6 10 17.6 10 17.6 9.90002C17.6 10 17.6 10 17.6 9.90002ZM16.4 15.9C16.5 15.9 16.5 15.9 16.4 15.9C16.5 15.9 16.5 15.9 16.4 15.9ZM16.3 16.2C16.3 16.1 16.4 16.1 16.3 16.2C16.4 16.1 16.3 16.1 16.3 16.2ZM12.8 18C12.8 17.9 12.9 17.9 12.8 18C12.9 17.9 12.8 17.9 12.8 18ZM12.3 18C12.3 18 12.5 18 12.3 18V18ZM10.4 17.7C10.4 17.7 10.3 17.7 10.4 17.7C10.3 17.7 10.3 17.7 10.4 17.7ZM10.2 17.6C10.2 17.7 10.2 17.7 10.2 17.6C10.1 17.6 10.1 17.6 10.2 17.6ZM10.3 17.7C10.3 17.7 10.2 17.7 10.3 17.7C10.2 17.7 10.3 17.7 10.3 17.7ZM6.90002 15.2C6.90002 15.3 6.90002 15.3 6.90002 15.2V15.2Z" fill="black"/>
<path d="M18.1 11.8C18 11.7 18 11.7 18.1 11.8C18 11.7 18 11.7 18.1 11.8C18.1 11.7 18.1 11.7 18.1 11.7C18.1 11.6 18.1 11.5 18.1 11.5C18.1 11.5 18.1 11.5 18.1 11.4C18.1 11.4 18.1 11.4 18.1 11.3V11.2V11C18.1 11 18.1 11 18.1 10.9V10.8C18.1 10.8 18.1 10.8 18.1 10.7C18.1 10.7 18.1 10.7 18.1 10.6C18.1 10.5 18.1 10.5 18 10.4C18 10.4 18 10.4 18 10.3V10.2C18 10.2 18 10.2 18 10.1C18 10.1 18 10.1 18 10C18 9.9 18 9.9 17.9 9.8C17.9 9.8 17.9 9.8 17.9 9.7C17.9 9.7 17.9 9.7 17.8 9.7C17.8 9.7 17.8 9.6 17.7 9.6C17.6 9.5 17.6 9.5 17.5 9.5C16.9 8.7 16.3 8.1 15.6 7.7C14.8 7.2 13.9 7 13 6.9V6.6H12.3V6.7H12.2C12.2 6.7 12.1 6.7 12 6.7H11.9V6.6H11.8V6.7C10.9 6.7 10 7 9.20002 7.5C8.40002 8 7.70002 8.5 7.30002 9.3C7.30002 9.3 7.30002 9.3 7.20002 9.3C7.20002 9.3 7.20002 9.3 7.20002 9.4C7.20002 9.4 7.20002 9.4 7.20002 9.5C6.90002 9.6 6.80002 9.9 6.80002 10C6.70002 10 6.70002 10 6.70002 10C6.70002 10 6.70002 10 6.70002 10.1C6.70002 10.1 6.70002 10.1 6.70002 10.2C6.50002 10.8 6.40002 11.4 6.20002 12C6.20002 12 6.20002 12 6.20002 12.1V12.2C6.10002 12.3 6.10002 12.3 6.10002 12.4C6.10002 13.1 6.30002 13.6 6.60002 14.3C6.60002 14.3 6.60002 14.3 6.60002 14.4C6.60002 14.5 6.70002 14.6 6.70002 14.6C6.70002 14.6 6.70002 14.6 6.70002 14.7C6.70002 14.8 6.80002 14.8 6.80002 14.9L6.90002 15C7.60002 15.8 8.40002 16.5 9.30002 16.8C9.30002 16.8 9.30002 16.8 9.40002 16.8C9.40002 16.8 9.40002 16.8 9.50002 16.8C9.50002 16.8 9.50002 16.8 9.60002 16.8C9.60002 16.8 9.60002 16.8 9.70002 16.8C9.70002 16.8 9.70002 16.8 9.80002 16.8C9.80002 16.8 9.80002 16.8 9.90002 16.8C9.90002 16.8 9.90002 16.8 10 16.8C10 16.8 10 16.8 10.1 16.8C10.1 16.8 10.1 16.8 10.2 16.8C10.2 16.8 10.2 16.8 10.3 16.8C10.3 16.8 10.3 16.8 10.4 16.8C10.4 16.8 10.4 16.8 10.5 16.8H10.6C10.6 16.8 10.6 16.8 10.7 16.8H11V16.9H11.1V17C11.1 17 11.1 17 11.2 17C11.2 17 11.2 17 11.3 17V17.1H11.4V17C11.4 17 11.4 17 11.5 17C11.5 17 11.5 17 11.6 17C11.6 17 11.6 17 11.7 17H11.8H12H12.1C12.1 17 12.1 17 12.2 17H12.3C12.6 16.9 13 16.8 13.2 16.7C13.2 16.7 13.2 16.7 13.3 16.7C13.5 16.6 13.6 16.5 13.9 16.4C13.9 16.4 14 16.4 14 16.3L14.1 16.2C14.2 16.2 14.2 16.1 14.3 16.1C14.3 16.1 14.3 16.1 14.4 16V15.9C14.4 15.8 14.5 15.8 14.5 15.7C14.5 15.7 14.5 15.7 14.5 15.6C14.6 15.3 14.8 14.9 15 14.5V14.4V14C15 13.9 15 13.8 15.1 13.7V13.6V13.5C15.1 13.5 15.2 13.5 15.2 13.4V13.3V13.2C18 11.9 18 11.9 18.1 11.8C18.1 11.9 18.1 11.9 18.1 11.8C18.1 11.9 18.1 11.9 18.1 11.8C18.1 11.9 18.1 11.9 18.1 11.8C18.1 11.9 18.1 11.9 18.1 11.8C18.1 11.9 18.1 11.9 18.1 11.8C18.1 11.9 18.1 11.9 18.1 11.8C18.1 11.9 18.1 11.9 18.1 11.8ZM18 11.5C17.9 11.5 17.9 11.5 18 11.5C17.9 10.7 17.7 9.9 17.3 9.2H17.4C17.6 10.1 17.9 10.8 18 11.5ZM16.5 9.1C16.5 9.1 16.5 9.2 16.5 9.1C16.4 9.2 16 9.3 15.6 9.4V9.3C16.1 9.2 16.4 9.1 16.5 9.1ZM15.6 9.2V8.8C15.8 8.8 16.2 8.9 16.4 9C16.3 9.1 15.9 9.2 15.6 9.2ZM16.5 9.2C16.6 9.3 16.6 9.4 16.7 9.5C16.5 9.5 16 9.6 15.6 9.7V9.4C15.9 9.3 16.4 9.2 16.5 9.2ZM16.7 9.5C16.7 9.5 16.7 9.6 16.7 9.5C16.5 9.6 16 9.7 15.6 9.8V9.7C16.1 9.6 16.5 9.5 16.7 9.5ZM16.8 9.6C17 10.2 17.3 10.7 17.3 11.3C16.7 11.1 16.1 10.8 15.6 10.8V10C16.1 9.9 16.5 9.7 16.8 9.6ZM16.5 9.2C16.5 9.2 16.5 9.1 16.5 9.2C16.5 9.1 16.6 9.1 16.5 9.2C17 9.9 17.3 10.6 17.4 11.3H17.3C17.2 10.5 17 9.9 16.5 9.2ZM16.6 9.2C16.7 9.2 16.8 9.3 16.9 9.3H17C17.3 10 17.6 10.8 17.7 11.6C17.6 11.5 17.5 11.5 17.4 11.5C17.3 10.5 17.1 9.9 16.6 9.2ZM17.2 9.2C17.3 9.2 17.3 9.2 17.2 9.2C17.3 9.2 17.3 9.2 17.2 9.2C17.3 9.2 17.3 9.2 17.2 9.2C17.3 9.2 17.4 9.3 17.4 9.3C17.4 9.3 17.4 9.3 17.3 9.3C17.3 9.3 17.2 9.3 17.2 9.2C17.2 9.3 17.2 9.3 17.2 9.2C17.1 9.2 17 9.2 17 9.2C16.9 9.2 16.8 9.1 16.7 9.1H16.6C16.2 9 15.9 9 15.6 8.8V8.7C15.8 8.7 16.1 8.8 16.4 8.9H16.5C16.7 8.9 16.8 9 17 9C17 9 17 9 17.1 9C17.2 9.2 17.2 9.2 17.2 9.2ZM17.2 9.2C17.1 9.2 17.1 9.2 17.1 9.2C17.1 9.2 17.1 9.2 17 9.2C16.9 9.2 16.7 9.1 16.5 9.1H16.4C16.2 9 15.8 9 15.6 8.8V8.5C15.7 8.5 15.8 8.6 16.1 8.6C16.2 8.6 16.2 8.6 16.3 8.6C16.5 8.7 16.6 8.7 16.9 8.8C16.9 8.8 16.9 8.8 17 8.8C17.1 8.8 17.1 8.8 17.2 8.9L17.3 9C17.2 9.1 17.2 9.1 17.2 9.2ZM17.2 9C17.1 9 17.1 8.8 17.2 9C17.1 8.8 17.2 8.8 17.2 9ZM16.8 8.6C16.8 8.6 17 8.6 16.8 8.6C16.9 8.6 17 8.7 17 8.8C17 8.8 16.9 8.8 16.9 8.7C17 8.7 17 8.7 16.8 8.6C16.8 8.7 16.8 8.7 16.8 8.6C16.7 8.7 16.7 8.6 16.7 8.6C16.6 8.5 16.4 8.5 16.1 8.4C16 8.4 16 8.4 15.9 8.4C15.8 8.4 15.6 8.3 15.4 8.3V8.2C15.5 8.2 15.5 8.2 15.6 8.3C15.7 8.3 15.7 8.3 15.8 8.3C16 8.4 16.3 8.4 16.5 8.5C16.7 8.6 16.8 8.6 16.8 8.6ZM15.8 8.3C15.7 8.3 15.7 8.3 15.6 8.3V8.2C15.6 8.1 15.7 8.2 15.8 8.3ZM15.6 8.1C15.7 8.1 15.8 8.2 16.1 8.4H16C15.7 8.2 15.6 8.1 15.6 8.1ZM12.3 6C14.1 6.1 15.8 7 16.8 8.5H16.7C16.5 8.3 16.4 8 16.1 7.8C15.2 6.8 13.8 6.3 12.3 6ZM12.3 6.3C13.8 6.4 15.1 7 16.1 8C16.3 8.2 16.4 8.5 16.7 8.6C16.5 8.5 16.4 8.5 16.1 8.4C15.1 7.4 13.8 6.7 12.4 6.6V6.3H12.3ZM15.6 11C16.2 11.1 16.7 11.2 17.3 11.5H17.4C17.5 11.6 17.6 11.6 17.7 11.7C17.7 11.7 17.8 11.7 17.8 11.8C17.8 11.9 17.8 11.9 17.8 12V12.1H17.7C17.6 12 17.5 12 17.4 11.9H17.3C16.7 11.7 16.1 11.4 15.5 11.4V11H15.6ZM17 14.1C17.2 13.4 17.3 12.6 17.3 12C17.3 12 17.3 12 17.4 12C17.4 12.8 17.3 13.5 17 14.1ZM17.5 12.1C17.6 12.1 17.7 12.2 17.8 12.2C17.8 13 17.6 13.8 17.2 14.5C17.2 14.4 17.1 14.4 17 14.3C17 14.3 17 14.3 16.9 14.2C17.3 13.6 17.5 12.8 17.5 12.1ZM17.3 12.6V12.7C16.8 12.8 16.2 12.9 15.6 13V12.9C16.2 12.8 16.8 12.7 17.3 12.6ZM15.6 12.9C15.6 12.8 15.6 12.8 15.6 12.7C16.2 12.6 17 12.5 17.4 12.4C17.4 12.5 17.4 12.6 17.4 12.7C17 12.6 16.2 12.8 15.6 12.9ZM17.3 12.8C17.2 13.3 17.1 13.7 17 14.2C16.9 14.1 16.8 14 16.5 13.9H16.4C16.3 13.8 15.9 13.6 15.6 13.3C16.2 13 16.8 12.8 17.3 12.8ZM17.3 12.2C17 12.3 16.2 12.4 15.5 12.5V12.4C16.2 12.3 17.1 12.1 17.3 12.1C17.3 12.1 17.3 12.1 17.3 12.2ZM15.6 12.3V11.4C16.2 11.5 16.8 11.6 17.4 11.9C17.1 12.1 16.3 12.2 15.6 12.3ZM12.3 6.6C13.5 6.7 14.7 7.2 15.6 8H15.5C14.6 7.2 13.5 6.7 12.3 6.6ZM12.3 6.7C13.4 6.8 14.4 7.2 15.3 7.9H12.3V6.7ZM12.2 6C12.3 6 12.3 6 12.2 6L12.3 6.2V6.5V6.6V7.8H12.2V6ZM11.9 6C12 6 12.1 6 12.2 6V7.8H11.9V6ZM11.7 6L11.8 7.9H11.7V6ZM11.7 6C10.2 6.2 8.90002 6.8 7.90002 7.8C7.60002 8.1 7.50002 8.3 7.30002 8.5H7.20002C8.20002 7 9.90002 6.1 11.7 6ZM8.60002 7.8H8.50002C9.40002 7 10.5 6.6 11.8 6.4V6.5C10.5 6.7 9.40002 7.2 8.60002 7.8ZM11.7 6.7V7.9H8.70002C9.50002 7.2 10.5 6.7 11.7 6.7ZM8.40002 7.8C8.30002 7.9 8.10002 8.2 7.90002 8.3C7.70002 8.4 7.50002 8.4 7.40002 8.5C7.50002 8.3 7.70002 8 8.00002 7.9C9.00002 6.9 10.4 6.3 11.8 6.2V6.5C10.4 6.6 9.30002 7 8.40002 7.8ZM6.60002 12C6.60002 12.1 6.60002 12.1 6.60002 12.1C6.60002 12.2 6.60002 12.3 6.60002 12.4C6.60002 12.5 6.60002 12.5 6.60002 12.6C6.70002 13.2 6.80002 13.7 7.10002 14.3C7.10002 14.3 7.10002 14.3 7.00002 14.3C6.70002 13.7 6.60002 12.9 6.60002 12ZM7.00002 14.4C6.90002 14.4 6.80002 14.5 6.70002 14.5C6.40002 13.7 6.10002 12.9 6.10002 12.1C6.20002 12.1 6.30002 12 6.40002 12C6.50002 12.9 6.70002 13.7 7.00002 14.4ZM8.40002 12.9C8.10002 12.8 7.30002 12.7 6.70002 12.4C6.70002 12.3 6.70002 12.2 6.70002 12.1C7.30002 12.2 8.10002 12.4 8.40002 12.6C8.40002 12.8 8.40002 12.8 8.40002 12.9ZM8.40002 11.3C7.70002 11.4 7.20002 11.5 6.60002 11.8H6.50002C6.40002 11.9 6.30002 12 6.10002 12H6.00002C6.00002 12 6.00002 12 6.00002 11.9V11.8C6.00002 11.7 6.00002 11.7 6.00002 11.7C6.00002 11.7 6.10002 11.7 6.10002 11.6C6.20002 11.5 6.30002 11.5 6.40002 11.4H6.50002C6.80002 11.3 7.30002 11.2 7.70002 11.1C7.80002 11.1 7.80002 11.1 7.90002 11.1C8.00002 11.1 8.00002 11.1 8.10002 11.1V11.4H8.40002V11.3ZM7.20002 9.6C7.20002 9.7 7.00002 10 7.00002 10.1V10.2C6.90002 10.5 6.80002 10.9 6.80002 11.2H6.70002C6.70002 10.8 6.80002 10.2 7.20002 9.6ZM6.60002 11.3C6.50002 11.3 6.40002 11.4 6.30002 11.5C6.40002 10.8 6.50002 10.1 6.90002 9.6C6.90002 9.6 6.90002 9.6 7.00002 9.6C7.10002 9.6 7.10002 9.6 7.20002 9.6C6.80002 10.2 6.60002 10.8 6.60002 11.3ZM6.90002 10.3C7.10002 10.4 7.40002 10.6 7.70002 11C7.40002 11.1 6.90002 11.2 6.70002 11.3C6.80002 10.9 6.80002 10.6 6.90002 10.3ZM6.90002 10.2V10.1C7.10002 10.3 7.50002 10.6 7.90002 10.9C7.80002 10.9 7.80002 10.9 7.80002 10.9C7.40002 10.6 7.20002 10.4 6.90002 10.2ZM7.00002 10.1C7.20002 10 7.20002 9.7 7.30002 9.6C7.30002 9.6 7.30002 9.6 7.40002 9.6C7.40002 9.7 7.50002 9.7 7.60002 9.7C7.80002 9.9 7.90002 9.9 8.20002 10C8.30002 10 8.30002 10 8.40002 10.1V10.9C8.30002 10.9 8.20002 10.9 7.90002 11C7.60002 10.5 7.30002 10.3 7.00002 10.1ZM8.20002 8.2C8.20002 8.2 8.20002 8.3 8.20002 8.2C8.10002 8.3 8.10002 8.3 7.90002 8.3C8.00002 8.2 8.10002 8.1 8.40002 8V8.1C8.40002 8.1 8.30002 8.2 8.20002 8.2ZM8.40002 8.1V8.2C8.30002 8.2 8.30002 8.2 8.20002 8.2C8.30002 8.2 8.40002 8.2 8.40002 8.1ZM8.20002 8.3C8.30002 8.3 8.30002 8.3 8.40002 8.3V8.4C8.30002 8.4 8.20002 8.5 7.90002 8.5C7.80002 8.5 7.80002 8.5 7.70002 8.5C7.60002 8.5 7.50002 8.6 7.40002 8.6C7.30002 8.6 7.30002 8.6 7.20002 8.6C7.40002 8.5 7.70002 8.5 7.90002 8.4C8.10002 8.3 8.10002 8.3 8.20002 8.3ZM7.80002 8.5C7.90002 8.5 7.90002 8.5 8.00002 8.5C8.10002 8.5 8.20002 8.4 8.50002 8.4V8.6C8.40002 8.6 8.20002 8.6 8.00002 8.7C7.90002 8.7 7.90002 8.7 7.80002 8.6C7.70002 8.6 7.70002 8.6 7.70002 8.6C7.60002 8.6 7.60002 8.6 7.60002 8.6C7.60002 8.6 7.70002 8.5 7.80002 8.5ZM8.40002 8.7C8.40002 8.8 8.30002 8.8 8.30002 8.8C8.20002 8.8 8.20002 8.8 8.10002 8.7C8.20002 8.7 8.30002 8.7 8.40002 8.7ZM8.40002 12.5C7.90002 12.4 7.30002 12.3 6.70002 12C7.20002 11.8 7.70002 11.7 8.40002 11.5V12.5ZM8.40002 12.5V12.6C7.90002 12.5 7.20002 12.3 6.70002 12.1V12C7.30002 12.1 7.90002 12.3 8.40002 12.5ZM6.70002 12.7C7.30002 12.9 8.10002 13 8.40002 13.2C8.40002 13.3 8.40002 13.4 8.50002 13.7C8.50002 13.8 8.60002 13.9 8.60002 14.2C7.90002 14.3 7.50002 14.4 7.10002 14.7C6.90002 13.8 6.80002 13.2 6.70002 12.7ZM6.70002 12.7V12.6C7.40002 12.8 8.10002 12.9 8.40002 13.1V13.2C8.10002 13 7.30002 12.8 6.70002 12.7ZM6.90002 8.6C6.90002 8.6 7.00002 8.6 7.10002 8.6C7.10002 8.6 7.10002 8.6 7.20002 8.6C7.20002 8.6 7.20002 8.6 7.30002 8.6C7.30002 8.6 7.40002 8.6 7.50002 8.6C7.60002 8.6 7.60002 8.6 7.70002 8.6H7.80002C7.90002 8.6 7.90002 8.6 8.00002 8.7C8.10002 8.7 8.10002 8.7 8.20002 8.8C8.20002 8.8 8.30002 8.8 8.40002 8.9V9C8.50002 9.1 8.40002 9 8.30002 9C8.20002 9 8.10002 8.8 7.90002 8.8H7.80002C7.70002 8.8 7.60002 8.7 7.50002 8.7C7.50002 8.7 7.50002 8.7 7.40002 8.7H7.30002L6.90002 8.6C7.00002 8.6 7.00002 8.6 6.90002 8.6ZM6.90002 8.7C7.00002 8.7 7.00002 8.7 7.00002 8.7C7.00002 8.8 6.90002 8.8 6.90002 9C6.90002 8.8 6.80002 8.7 6.90002 8.7ZM6.90002 9C6.90002 8.8 7.00002 8.8 7.00002 8.7H7.10002C7.10002 8.7 7.10002 8.7 7.20002 8.7C7.30002 8.7 7.40002 8.7 7.50002 8.8H7.60002C7.80002 8.8 7.90002 9 8.10002 9C8.20002 9 8.30002 9.1 8.40002 9.1V10C7.90002 9.9 7.60002 9.7 7.40002 9.7H7.30002C7.20002 9.7 7.00002 9.6 6.80002 9.6H6.70002C6.70002 9.3 6.80002 9.1 6.90002 9ZM6.50002 9.5C6.50002 9.5 6.60002 9.5 6.70002 9.5H6.80002C6.90002 9.5 7.00002 9.5 7.10002 9.6H7.20002C7.50002 9.7 7.90002 9.8 8.20002 9.9V10C8.10002 10 8.10002 10 8.00002 9.9C7.80002 9.9 7.60002 9.7 7.50002 9.7C7.40002 9.7 7.30002 9.6 7.20002 9.6C7.20002 9.6 7.20002 9.6 7.10002 9.6C7.10002 9.6 7.10002 9.6 7.00002 9.6C6.90002 9.6 6.80002 9.6 6.80002 9.6C6.80002 9.6 6.80002 9.6 6.70002 9.6C6.70002 9.6 6.70002 9.6 6.60002 9.6C6.60002 9.6 6.60002 9.6 6.50002 9.6V9.5C6.60002 9.5 6.60002 9.5 6.50002 9.5C6.60002 9.5 6.60002 9.5 6.50002 9.5ZM6.50002 9.6C6.50002 9.6 6.50002 9.5 6.50002 9.6C6.50002 9.5 6.50002 9.5 6.50002 9.6C6.50002 9.5 6.50002 9.5 6.50002 9.6C6.60002 9.5 6.50002 9.5 6.50002 9.6C6.60002 9.6 6.50002 9.7 6.50002 9.7V9.6ZM6.50002 9.7C6.50002 9.7 6.60002 9.6 6.60002 9.5C6.30002 10.1 6.10002 10.7 6.00002 11.4H5.90002C6.10002 11 6.30002 10.3 6.50002 9.7ZM6.00002 11.8C6.00002 11.8 6.00002 11.7 6.10002 11.6C6.10002 11.6 6.20002 11.6 6.20002 11.5C6.30002 11.4 6.40002 11.4 6.50002 11.3H6.60002C7.00002 11.1 7.40002 11 7.80002 10.9C7.90002 10.9 7.90002 10.9 8.00002 10.9C8.10002 10.9 8.20002 10.9 8.50002 10.8V10.9C8.40002 10.9 8.40002 10.9 8.30002 10.9C8.20002 10.9 8.20002 10.9 8.10002 10.9C7.60002 11 7.20002 11.1 6.90002 11.2H6.70002C6.60002 11.3 6.50002 11.3 6.40002 11.4C6.10002 11.7 6.10002 11.7 6.00002 11.8ZM6.00002 11.8C6.00002 11.8 6.00002 11.9 6.00002 11.8C6.00002 11.9 6.00002 11.9 6.00002 11.8ZM6.00002 12.2C6.00002 12.2 6.00002 12.3 6.00002 12.2C5.90002 12.2 6.00002 12.1 6.00002 12.1C6.00002 12.1 6.10002 12.1 6.10002 12C6.20002 12 6.30002 11.9 6.60002 11.9H6.70002C7.20002 11.7 7.70002 11.6 8.50002 11.4V11.5C7.70002 11.6 7.10002 11.7 6.60002 12C6.50002 12.1 6.40002 12.1 6.30002 12.2C6.10002 12.2 6.00002 12.2 6.00002 12.2ZM6.00002 12.2C6.10002 12.2 6.10002 12.2 6.00002 12.2C6.10002 13 6.30002 13.8 6.70002 14.6C6.70002 14.6 6.70002 14.6 6.60002 14.6C6.40002 13.9 6.10002 13.1 6.00002 12.2ZM6.70002 14.8V14.7C6.70002 14.7 6.80002 14.7 6.80002 14.6C6.90002 14.5 7.00002 14.5 7.10002 14.4H7.20002C7.50002 14.3 8.00002 14.1 8.70002 13.9V14C8.00002 14.1 7.60002 14.2 7.20002 14.3V14.3C7.10002 14.3 7.00002 14.4 6.90002 14.5C6.80002 14.7 6.70002 14.7 6.70002 14.8ZM6.80002 14.9C6.80002 14.8 6.80002 14.8 6.80002 14.9C6.80002 14.8 6.80002 14.8 6.80002 14.8C6.90002 14.7 7.00002 14.7 7.10002 14.6H7.20002C7.50002 14.5 8.00002 14.3 8.70002 14.3C8.70002 14.4 8.80002 14.5 8.80002 14.6C8.10002 14.7 7.70002 14.8 7.30002 15.1V15.1C7.20002 15.1 7.20002 15.2 7.10002 15.2C7.10002 15.2 7.00002 15.2 7.00002 15.3C7.00002 15.3 6.90002 15.3 6.90002 15.4C6.90002 15 6.80002 14.9 6.80002 14.9ZM6.90002 15.3V15.2C6.90002 15.2 7.00002 15.2 7.00002 15.1C7.00002 15.1 7.10002 15.1 7.10002 15C7.10002 15 7.20002 14.9 7.30002 14.9H7.40002C7.70002 14.8 8.20002 14.6 8.90002 14.4C8.90002 14.4 8.90002 14.5 9.00002 14.5C8.30002 14.6 7.90002 14.7 7.60002 14.8V14.8C7.60002 14.8 7.60002 14.8 7.50002 14.8C7.40002 14.8 7.30002 14.9 7.30002 14.9C7.00002 15.2 7.00002 15.3 6.90002 15.3ZM8.10002 15.5C8.00002 15.4 7.90002 15.3 7.80002 15.2C8.40002 15.3 9.20002 15.5 10.1 15.7C10.3 15.9 10.6 16 10.9 16.2C9.60002 15.8 8.70002 15.7 8.10002 15.5ZM10.8 16.1C11 16.2 11.3 16.2 11.4 16.2C10.5 16.2 9.40002 16 8.10002 15.7L8.00002 15.6C8.70002 15.7 9.70002 15.9 10.8 16.1ZM7.60002 15.2L7.50002 15C8.10002 15.1 8.90002 15.3 9.60002 15.5C9.70002 15.5 9.70002 15.6 9.80002 15.6C9.10002 15.4 8.30002 15.3 7.60002 15.2ZM7.60002 14.9C7.90002 14.8 8.40002 14.7 9.00002 14.6C9.20002 14.8 9.30002 15.2 9.70002 15.3C8.80002 15.3 8.20002 15 7.60002 14.9ZM6.90002 15.3C6.90002 15.3 7.00002 15.3 6.90002 15.3C7.00002 15.3 7.00002 15.3 6.90002 15.3C7.00002 15.4 7.00002 15.4 6.90002 15.3C7.00002 15.4 7.00002 15.4 6.90002 15.3C6.90002 15.4 7.00002 15.4 6.90002 15.3ZM11.7 18C9.90002 17.9 8.30002 17 7.20002 15.5L7.00002 15.4C7.00002 15.4 7.00002 15.4 7.00002 15.3C7.00002 15.3 7.00002 15.3 7.10002 15.3C7.10002 15.4 7.20002 15.4 7.20002 15.5C7.20002 15.6 7.30002 15.6 7.30002 15.7C7.40002 15.9 7.60002 16 7.80002 16.3C8.80002 17.2 10.2 17.7 11.7 18ZM11.7 17.9C10.2 17.8 8.90002 17.2 7.90002 16.2C7.70002 16 7.60002 15.9 7.40002 15.6C7.40002 15.5 7.30002 15.5 7.30002 15.4C7.30002 15.3 7.20002 15.3 7.20002 15.2C7.30002 15.2 7.30002 15.1 7.40002 15.1C7.40002 15.1 7.40002 15.1 7.50002 15.1C7.60002 15.3 7.70002 15.4 7.80002 15.6C7.80002 15.7 7.90002 15.7 7.90002 15.8C8.90002 16.8 10.2 17.5 11.6 17.6C11.7 17.5 11.7 17.9 11.7 17.9ZM11.7 17.4C10.2 17.3 9.00002 16.7 8.00002 15.6C8.00002 15.6 7.90002 15.5 7.90002 15.4C7.80002 15.4 7.70002 15.3 7.60002 15.1C7.60002 15.1 7.60002 15.1 7.70002 15.1L7.80002 15.2C7.80002 15.3 7.90002 15.4 8.00002 15.7C8.00002 15.8 8.10002 15.8 8.20002 15.9C9.20002 16.7 10.4 17.3 11.7 17.4ZM11.7 17.3C10.3 17.2 9.20002 16.6 8.20002 15.7C9.40002 15.9 10.7 16.2 11.7 16.2V17.3ZM11.8 18L11.7 16.3H11.8V18ZM12.2 18C12.1 18 12.1 18 12 18C11.9 18 11.9 18 11.8 18V16.3H11.9C12 16.3 12 16.3 12.1 16.3V18H12.2ZM12.3 17.4V17.7V17.8V18H12.2V16.2H12.3V17.4ZM12.3 16.2C12.2 16.2 12.2 16.2 12.3 16.2C12.2 16.2 12.2 16.2 12.2 16.2C12.1 16.2 12.1 16.2 12 16.2H11.9H11.8C11.6 16.2 11.2 16.1 11 16.1H10.9C10.6 16 10.3 15.9 10.1 15.6C10 15.6 10 15.5 9.90002 15.5C9.70002 15.3 9.40002 15 9.20002 14.7C9.20002 14.7 9.20002 14.6 9.10002 14.6C8.90002 14.4 8.90002 14.3 8.80002 14.1V14C8.70002 13.8 8.60002 13.4 8.60002 13.2V13.1C8.60002 13 8.60002 12.9 8.60002 12.9V8.2H15.7V12.9C15.7 13 15.7 13 15.7 13.1V13.2C15.7 13.2 15.7 13.2 15.7 13.3C15.7 13.6 15.6 13.9 15.5 14.1V14.2C15.4 14.4 15.2 14.8 15 15L14.9 15.1C14.9 15.1 14.9 15.1 14.8 15.2L14.7 15.3C14.7 15.3 14.6 15.4 14.5 15.4C14.3 15.5 14 15.7 13.7 15.9H13.6C13.4 16 13.1 16 12.9 16.1C12.5 16.2 12.5 16.2 12.3 16.2ZM15.8 15.6C15.8 15.6 15.9 15.6 15.8 15.6C15.9 15.6 15.9 15.6 15.8 15.6V15.7C14.8 15.8 13.8 16 12.9 16C13.1 16 13.2 15.9 13.5 15.9C14.1 15.8 15 15.7 15.8 15.6ZM13.5 15.9C13.7 15.8 14 15.7 14.2 15.4C14.5 15.4 14.9 15.3 15.2 15.3C15.3 15.3 15.4 15.3 15.5 15.3C15.7 15.3 16 15.2 16.2 15.2C16.1 15.3 16.1 15.4 16 15.5C16 15.5 16 15.5 15.9 15.6H15.8C15 15.7 14.3 15.8 13.5 15.9ZM15.8 15.8C14.9 16.7 13.7 17.3 12.3 17.4V16.3C12.4 16.3 12.4 16.3 12.5 16.3C13.6 16.1 14.7 15.9 15.8 15.8ZM16.1 15.7C16.2 15.6 16.2 15.6 16.2 15.5C16.3 15.4 16.4 15.3 16.4 15.2C16.5 15.3 16.5 15.4 16.6 15.4C16.5 15.6 16.3 15.9 16 16.1C15 17.1 13.6 17.7 12.2 17.8V17.5C13.7 17.4 15 16.7 16.1 15.7ZM15.9 15.7C15 16.7 13.6 17.3 12.3 17.4V17.3C13.7 17.2 14.9 16.6 15.8 15.7H15.9V15.7C15.9 15.6 15.9 15.6 15.9 15.6C15.9 15.6 15.9 15.6 16 15.5C16.1 15.4 16.2 15.3 16.2 15.2C16.1 15.3 16 15.4 16 15.5C16.1 15.6 16.1 15.6 15.9 15.7C16.1 15.7 16.1 15.7 15.9 15.7ZM16.3 15.2C16.1 15.2 15.8 15.3 15.5 15.3C15.4 15.3 15.3 15.3 15.2 15.3C14.9 15.3 14.5 15.4 14.2 15.4L14.3 15.3C14.5 15.3 14.8 15.3 14.9 15.2C15 15.2 15.1 15.2 15.2 15.2C15.6 15.2 15.9 15 16.3 15.2C16.3 15 16.3 15 16.3 15.2C16.4 15 16.3 15 16.3 15.2C16.3 15.2 16.4 15.2 16.3 15.2ZM14.9 15.3C14.7 15.3 14.6 15.3 14.4 15.4C14.5 15.3 14.5 15.3 14.6 15.2C14.7 15.2 14.8 15.2 14.9 15.3ZM14.6 15L14.7 14.9C14.9 15 15 15 15.3 15.1C15.2 15.1 15.1 15.1 15 15.1C14.8 15.2 14.7 15.2 14.6 15ZM15.3 15.2C15 15 14.9 15 14.7 14.9C14.9 14.7 15 14.4 15.2 14.1C15.4 14.3 15.7 14.4 15.8 14.6C16 14.8 16.1 14.9 16.3 15.1C15.9 15 15.6 15.2 15.3 15.2ZM12.3 18C13.8 17.8 15.1 17.2 16.1 16.2C16.3 16 16.4 15.7 16.7 15.6C16.7 15.6 16.7 15.6 16.7 15.7C15.6 17 14 17.9 12.3 18ZM16.6 15.7L16.7 15.6C16.7 15.7 16.7 15.7 16.6 15.7C16.7 15.8 16.7 15.7 16.6 15.7ZM16.7 15.7C16.7 15.7 16.7 15.6 16.7 15.7C16.7 15.6 16.7 15.6 16.7 15.6V15.5C16.7 15.4 16.6 15.3 16.5 15.3C16.4 15.2 16.3 15.1 16 14.8C15.9 14.7 15.7 14.6 15.4 14.3V14.2C15.6 14.4 15.9 14.5 16 14.7H16.1C16.2 14.8 16.4 14.9 16.6 15C16.6 15 16.7 15 16.7 15.1C16.7 15.1 16.7 15.1 16.8 15.2C16.9 15.3 16.9 15.3 17 15.4C17 15.4 17 15.5 17.1 15.5V15.6C16.8 15.6 16.8 15.7 16.7 15.7ZM17.2 14.9C17.2 14.9 17.2 15 17.2 14.9C17.1 15 17 15.3 17 15.4C17 15.4 17 15.4 17 15.5C17 15.5 17 15.4 16.9 15.4C16.9 15.3 16.8 15.2 16.7 15.2C16.7 15.2 16.7 15.2 16.6 15.1C16.6 15.1 16.6 15.1 16.5 15C16.4 14.9 16.2 14.8 16 14.7H15.9C15.8 14.6 15.6 14.5 15.3 14.2C15.4 14 15.5 13.6 15.5 13.4C15.8 13.6 16.2 13.9 16.3 14C16.5 14.2 16.8 14.3 16.9 14.5L17 14.6C17.1 14.7 17.2 14.8 17.2 14.9ZM17.3 14.9C17.3 14.9 17.2 15 17.3 14.9C17.2 14.9 17.2 14.9 17.3 14.9C17.2 14.9 17.2 14.8 17.3 14.8C17.3 14.9 17.3 14.9 17.3 14.9ZM17.3 14.8C17.3 14.8 17.4 14.8 17.3 14.8C17.3 14.9 17.3 14.9 17.3 15C17.3 14.9 17.3 14.8 17.3 14.8C17.2 14.8 17.2 14.7 17.2 14.7C17.2 14.6 17.1 14.5 17 14.4C17 14.4 17 14.4 16.9 14.3C16.8 14.2 16.7 14.1 16.3 13.8C16.2 13.7 15.8 13.5 15.5 13.2V13.1C16 13.3 16.2 13.6 16.3 13.7H16.4C16.5 13.8 16.7 13.9 16.9 14C16.9 14 16.9 14 17 14.1C17 14.1 17 14.1 17.1 14.2C17.2 14.3 17.2 14.4 17.3 14.4C17.3 14.6 17.3 14.6 17.3 14.8C17.3 14.7 17.3 14.7 17.3 14.8C17.3 14.7 17.3 14.7 17.3 14.8ZM18 12.5C18 13.3 17.8 14 17.4 14.6V14.5C17.7 13.8 18 13 18 12.2H18.1C18 12.3 18 12.3 18 12.5ZM18 12.5C18 12.3 18 12.3 18 12.5C18 12.3 18 12.3 18 12.5C18 12.3 18 12.3 18 12.5ZM18 12.3C17.9 12.2 17.9 12.2 17.8 12.2C17.7 12.1 17.6 12.1 17.5 12H17.4C16.8 11.8 16.2 11.5 15.6 11.5V11.4C16.2 11.5 16.8 11.6 17.4 11.9H17.5C17.6 11.9 17.7 12 17.8 12.1C17.8 12.1 17.9 12.1 17.9 12.2C18 12.1 18 12.2 18 12.3ZM18 11.9C18 11.8 18 11.8 18 11.9V11.9ZM18 11.8C18 11.8 17.9 11.8 17.9 11.7C17.8 11.6 17.7 11.6 17.6 11.5H17.5C16.9 11.3 16.3 11.2 15.7 11V10.9C16.3 11 16.8 11.1 17.4 11.4H17.5C17.6 11.5 17.7 11.5 17.8 11.6C17.8 11.6 17.9 11.6 17.9 11.7C18 11.7 18 11.8 18 11.8Z" fill="black"/>
<path d="M17.3 12C17.1 12 16.3 12.2 15.5 12.3V11.4C16.2 11.7 16.7 11.8 17.3 12Z" fill="#FF0302"/>
<path d="M17.3 12.8C17.2 13.3 17.1 13.7 17 14.2C16.9 14.1 16.8 14 16.5 13.9H16.4C16.3 13.8 15.9 13.6 15.6 13.3C16.2 13 16.8 12.8 17.3 12.8Z" fill="#FF0302"/>
<path d="M17.3 11.3C16.7 11.1 16.1 10.8 15.6 10.8V10C16.1 9.90005 16.5 9.80005 16.8 9.80005C17.1 10.2 17.2 10.8 17.3 11.3Z" fill="#FF0302"/>
<path d="M16.4 9.1C16.3 9.1 15.9 9.2 15.6 9.3V9C15.8 9 16.2 9 16.4 9.1Z" fill="#FF0302"/>
<path d="M15.8 8.29999C15.7 8.29999 15.7 8.29999 15.6 8.29999V8.19999C15.6 8.09999 15.7 8.19999 15.8 8.29999Z" fill="#FF0302"/>
<path d="M15.8 15.8C14.9 16.7 13.7 17.3 12.3 17.4V16.3C12.4 16.3 12.4 16.3 12.5 16.3C13.6 16.1 14.7 15.9 15.8 15.8Z" fill="#FF0302"/>
<path d="M15.4 7.79998H12.4V6.59998C13.5 6.69998 14.5 7.19998 15.4 7.79998Z" fill="#FF0302"/>
<path d="M14.9 15.3C14.7 15.3 14.6 15.3 14.4 15.4C14.5 15.3 14.5 15.3 14.6 15.2C14.7 15.2 14.8 15.2 14.9 15.3Z" fill="#FF0302"/>
<path d="M8.59998 8.09998V12.7C8.59998 12.8 8.59998 13 8.59998 13.2C8.59998 13.4 8.69998 13.7 8.79998 14C8.79998 14.1 8.89997 14.2 8.89997 14.3C8.89997 14.3 8.89998 14.4 8.99998 14.4C9.19998 14.7 9.49998 15 9.79998 15.2C9.89998 15.2 9.89998 15.3 9.99998 15.3C9.99998 15.3 9.99998 15.3 10.1 15.3C10.6 15.5 11 15.6 11.5 15.8H11.6H11.7C11.8 15.8 11.8 15.8 11.9 15.8H12C12.6 15.8 13 15.6 13.4 15.3C13.4 15.3 13.4 15.3 13.5 15.3C13.6 15.3 13.6 15.2 13.7 15.2C13.8 15.1 13.9 15 14 14.9L14.1 14.8C14.3 14.6 14.4 14.3 14.6 14V13.9C14.7 13.7 14.8 13.3 14.8 13.1V13C14.8 12.9 14.8 12.8 14.8 12.8V8.19998H8.59998V8.09998ZM11.4 9.19998V8.79998V8.69998V8.59998V8.49998H11.5H11.6H11.7V8.59998V8.69998H11.8V8.59998V8.49998V8.39997V8.29998H12H12.1H12.2V8.39997V8.49998V8.59998V8.69998V8.49998V8.39997H12.3H12.4V8.49998V8.59998V8.69998V8.99998C12.4 8.99998 12.4 8.99998 12.4 9.09998C12.4 9.09998 12.4 9.19998 12.3 9.19998H11.3C11.4 9.29998 11.4 9.29998 11.4 9.19998C11.4 9.19998 11.4 9.29998 11.4 9.19998ZM8.69998 9.19998V9.09998V8.99998V8.79998V8.69998H8.79998H8.99998H9.09998V8.79998V8.99998V9.09998V8.99998V8.69998V8.59998H9.19998H9.29998H9.39997V8.69998V8.99998V9.09998V8.99998V8.79998H9.49998H9.59998H9.69998V8.99998V9.09998V9.39997C9.69998 9.39997 9.69998 9.39998 9.69998 9.49998C9.69998 9.49998 9.69998 9.59998 9.59998 9.59998H8.69998C8.69998 9.29998 8.69998 9.29998 8.69998 9.19998C8.69998 9.19998 8.69998 9.29998 8.69998 9.19998ZM8.69998 12.1C8.59998 12 8.69998 12 8.69998 12V11.8V11.7V11.6H8.79998H8.99998H9.09998V11.7V11.8V11.7V11.5V10.9H9.19998H9.29998H9.39997V11V11.1V11.2V11.3V11.2V11.1V11H9.49998H9.59998H9.69998V11.1V11.2V11.3V11.6C9.69998 11.6 9.69998 11.6 9.69998 11.7C9.69998 11.7 9.69998 11.8 9.59998 11.8H8.69998V12.1ZM10.6 14.5L9.99998 15.2H9.89997V15L9.69998 14.8C9.69998 14.8 9.69998 14.8 9.59998 14.8C9.59998 14.8 9.59998 14.8 9.49998 14.8C9.49998 14.8 9.49998 14.8 9.49998 14.7L9.39997 14.6H9.19998L9.09998 14.5L9.19998 14.6V14.7L9.29998 14.8L9.09998 14.5H8.99998L8.89997 14.4L8.99998 14.5V14.6L9.99998 14.3L9.89997 14.2H9.69998L9.59998 14L9.69998 14.1V14.2L9.79998 14.3C9.79998 14.3 9.79997 14.3 9.89997 14.3C9.89997 14.3 9.89997 14.3 9.89997 14.4C9.89997 14.4 9.89997 14.4 9.89997 14.5H10.6C10.6 14.4 10.6 14.4 10.6 14.5C10.8 14.5 10.8 14.4 10.6 14.5ZM13.2 14.3L13.1 14.4C12.9 14.5 12.6 14.6 12.3 14.7H12.2C12.1 14.7 12.1 14.7 12 14.7H11.9H11.8C10.8 14.6 10.1 13.7 10.1 12.7V9.39997H14.2V12.7C14.2 12.8 14.2 13 14.1 13.2V13.3C13.8 13.7 13.6 14 13.2 14.3ZM14.7 14.5L14.6 14.6L14.5 14.7C14.5 14.7 14.5 14.7 14.5 14.8C14.5 14.8 14.5 14.8 14.4 14.8L14.3 14.9L14.1 15V15.1H14L13.3 14.4H13.4L13.6 14.3C13.6 14.3 13.6 14.3 13.6 14.2C13.6 14.2 13.6 14.2 13.6 14.1C13.6 14.1 13.6 14.1 13.7 14.1L13.8 14V13.9L13.9 13.8L13.8 13.9H13.7L13.9 14.2L14.2 14V13.9L14.3 13.8L14.2 13.9H14.1L14 14.3L14.1 14.2V14L14.2 13.9L14.7 14.5C14.7 14.4 14.7 14.4 14.7 14.5H14.6H14.7C14.7 14.4 14.7 14.4 14.7 14.5ZM15.3 12.1H14.3C14.3 12.1 14.3 12.1 14.3 12V11.7V11.6V11.5H14.4H14.5H14.6V11.6V11.7V11.8H14.7V11.7V11.6V11.5V10.9H14.8H14.9H15V11V11.1V11.2V11.3H15.1V11.2V11.1H15.2H15.3H15.4V11.2V11.3V11.6C15.3 12 15.3 12 15.3 12.1ZM15.3 9.29998H14.3C14.3 9.29998 14.2 9.29998 14.2 9.19998V9.09998V8.69998V8.59998V8.49998H14.3H14.5H14.6V8.59998V8.69998H14.7V8.59998V8.39997V8.29998H14.8H14.9H15V8.39997V8.59998V8.69998H15.1V8.59998V8.49998V8.39997H15.2H15.3H15.4V8.49998V8.59998L15.3 9.29998C15.3 9.29998 15.3 9.19998 15.3 9.29998Z" fill="#FF0302"/>
<path d="M18 11.8C17.9 11.7 17.9 11.7 17.8 11.7C17.7 11.6 17.6 11.6 17.5 11.5H17.4C16.8 11.3 16.2 11.2 15.6 11V10.9C16.2 11 16.7 11.1 17.3 11.4H17.4C17.5 11.5 17.6 11.5 17.7 11.6C17.7 11.6 17.8 11.6 17.8 11.7C18 11.7 18 11.8 18 11.8Z" fill="#FDFE1F"/>
<path d="M18 12.3C17.9 12.2 17.9 12.2 17.8 12.2C17.7 12.1 17.6 12.1 17.5 12H17.4C16.8 11.8 16.2 11.5 15.6 11.5V11.4C16.2 11.5 16.8 11.6 17.4 11.9H17.5C17.6 11.9 17.7 12 17.8 12.1C17.8 12.1 17.9 12.1 17.9 12.2C18 12.1 18 12.2 18 12.3Z" fill="#FDFE1F"/>
<path d="M18 12C18 12 18 12.1 18 12C17.9 12.1 17.9 12.1 18 12C17.8 12 17.7 11.9 17.5 11.9H17.4C16.8 11.7 16.2 11.4 15.6 11.4V11.1C16.2 11.2 16.7 11.3 17.3 11.6H17.4C17.5 11.7 17.6 11.7 17.7 11.8C17.7 11.8 17.8 11.8 17.8 11.9C18 11.9 18 11.9 18 12Z" fill="#FDFE1F"/>
<path d="M18 11.5C17.9 11.5 17.9 11.5 18 11.5C17.9 10.7 17.7 9.89995 17.3 9.19995H17.4C17.6 10.1 17.9 10.8 18 11.5Z" fill="#FDFE1F"/>
<path d="M17.9 12.2C17.9 13 17.7 13.8 17.3 14.5C17.3 14.4 17.2 14.4 17.1 14.3C17.1 14.3 17.1 14.3 17 14.2C17.3 13.5 17.5 12.8 17.5 12.1C17.6 12.1 17.7 12.2 17.9 12.2Z" fill="#FDFE1F"/>
<path d="M17.7 11.5C17.6 11.4 17.5 11.4 17.4 11.4C17.3 10.6 17.1 9.79998 16.6 9.09998C16.7 9.09998 16.8 9.19998 16.9 9.19998H17C17.5 9.99998 17.7 10.8 17.7 11.5Z" fill="#FDFE1F"/>
<path d="M17.4 12.1C17.4 12.9 17.3 13.6 16.9 14.2C16.9 14.2 16.9 14.2 16.8 14.1C17.2 13.5 17.4 12.8 17.4 12.1C17.4 12 17.4 12 17.4 12.1Z" fill="#FDFE1F"/>
<path d="M17.4 11.3C17.4 11.3 17.3 11.3 17.4 11.3C17.2 10.5 16.9 9.69998 16.5 9.19998V9.09998H16.6C17.1 9.69998 17.3 10.5 17.4 11.3Z" fill="#FDFE1F"/>
<path d="M18 12.3001V12.4001C18 13.2001 17.8 13.9001 17.4 14.5001V14.4001C17.6 13.8001 17.9 13.0001 18 12.3001C17.9 12.3001 17.9 12.2001 18 12.3001Z" fill="#FDFE1F"/>
<path d="M17.3 12V12.1C17 12.2 16.2 12.3 15.5 12.4V12.3C16.3 12.3 17.1 12.1 17.3 12Z" fill="#FDFE1F"/>
<path d="M17.3 12.2C17.3 12.3 17.3 12.4 17.3 12.5C16.8 12.6 16.2 12.7 15.6 12.8C15.6 12.7 15.6 12.7 15.6 12.6C16.2 12.5 17 12.3 17.3 12.2Z" fill="#FDFE1F"/>
<path d="M17.3 14.9C17.3 14.9 17.3 14.8 17.3 14.9C17.3 14.8 17.3 14.8 17.3 14.8C17.3 14.8 17.3 14.7 17.2 14.7C17.2 14.6 17.1 14.5 17 14.4C17 14.4 17 14.4 16.9 14.3C16.8 14.2 16.7 14.1 16.3 13.8C16.2 13.7 15.8 13.5 15.5 13.2V13.1C16 13.3 16.2 13.6 16.3 13.7H16.4C16.5 13.8 16.7 13.9 16.9 14C16.9 14 16.9 14 17 14.1C17 14.1 17 14.1 17.1 14.2C17.2 14.3 17.2 14.4 17.3 14.4C17.3 14.4 17.3 14.5 17.4 14.5V14.6C17.4 14.8 17.3 14.9 17.3 14.9Z" fill="#FDFE1F"/>
<path d="M17.3 12.6V12.7C16.8 12.8 16.2 12.9 15.6 13V12.9C16.2 12.8 16.8 12.7 17.3 12.6Z" fill="#FDFE1F"/>
<path d="M17.3 14.9C17.3 14.9 17.2 15 17.3 14.9C17.2 14.9 17.2 14.9 17.2 14.9C17.2 14.9 17.2 14.9 17.3 14.9C17.3 14.8 17.3 14.8 17.3 14.9C17.3 14.8 17.3 14.8 17.3 14.8C17.3 14.9 17.3 14.9 17.3 14.9Z" fill="#FDFE1F"/>
<path d="M17.4 9.40005C17.3 9.30005 17.2 9.30005 17.2 9.30005H17.1C17 9.30005 16.9 9.20005 16.8 9.20005H16.7C16.4 9.10005 16.1 9.10005 15.8 9.00005V8.80005C16 8.80005 16.3 8.90005 16.6 9.00005H16.7C16.9 9.00005 17 9.10005 17.2 9.10005C17.2 9.10005 17.2 9.10005 17.3 9.10005H17.4C17.3 9.20005 17.4 9.30005 17.4 9.40005Z" fill="#FDFE1F"/>
<path d="M17.2 9.2C17.1 9.2 17.1 9.2 17.1 9.2C17.1 9.2 17.1 9.2 17 9.2C16.9 9.2 16.7 9.1 16.5 9.1H16.4C16.2 9 15.8 9 15.6 8.8V8.5C15.7 8.5 15.8 8.6 16.1 8.6C16.2 8.6 16.2 8.6 16.3 8.6C16.5 8.7 16.6 8.7 16.9 8.8C16.9 8.8 16.9 8.8 17 8.8C17.1 8.8 17.1 8.8 17.2 8.9L17.3 9C17.2 9.1 17.2 9.1 17.2 9.2Z" fill="#FDFE1F"/>
<path d="M17.2 8.79995C17.2 8.79995 17.1 8.79995 17.1 8.69995C17 8.69995 17 8.69995 16.9 8.59995H16.8C16.7 8.49995 16.5 8.49995 16.2 8.39995C16.1 8.39995 16.1 8.39995 16 8.39995C15.9 8.39995 15.7 8.29995 15.5 8.29995V8.19995C15.6 8.19995 15.6 8.19995 15.7 8.29995C15.8 8.29995 15.8 8.29995 15.9 8.29995C16.1 8.39995 16.4 8.39995 16.6 8.49995H16.7C16.7 8.49995 16.7 8.49995 16.8 8.49995C17 8.59995 17.2 8.69995 17.2 8.79995Z" fill="#FDFE1F"/>
<path d="M17.2 8.99998C17.1 8.99998 17.1 8.79998 17.2 8.99998C17.1 8.79998 17.2 8.79998 17.2 8.99998Z" fill="#FDFE1F"/>
<path d="M16.8 8.59998H16.7C16.5 8.39998 16.4 8.09998 16.1 7.89998C15.1 6.89998 13.7 6.29998 12.3 6.19998V6.09998C14.1 6.09998 15.8 6.99998 16.8 8.59998Z" fill="#FDFE1F"/>
<path d="M17.3 14.8C17.2 14.8 17.2 14.8 17.3 14.8C17.3 14.9 17.2 14.9 17.2 15C17.1 15.1 17.1 15.2 17 15.5C17 15.5 17 15.5 17 15.6C17 15.6 17 15.5 16.9 15.5C16.9 15.4 16.8 15.3 16.7 15.3C16.7 15.3 16.7 15.3 16.6 15.2C16.6 15.2 16.6 15.2 16.5 15.1C16.4 15 16.2 14.9 16 14.8H15.9C15.8 14.7 15.6 14.6 15.3 14.3C15.4 14.1 15.5 13.7 15.5 13.5C15.8 13.7 16.2 14 16.3 14.1C16.5 14.3 16.8 14.4 16.9 14.6L17 14.7C17.1 14.8 17.2 14.9 17.2 15C17.2 14.7 17.2 14.7 17.3 14.8Z" fill="#FDFE1F"/>
<path d="M16.7 15.7C16.7 15.7 16.7 15.6 16.7 15.7C16.7 15.6 16.7 15.6 16.7 15.6V15.5C16.7 15.4 16.6 15.3 16.5 15.3C16.4 15.2 16.3 15.1 16 14.8C15.9 14.7 15.7 14.6 15.4 14.3V14.2C15.6 14.4 15.9 14.5 16 14.7H16.1C16.2 14.8 16.4 14.9 16.6 15C16.6 15 16.7 15 16.7 15.1C16.7 15.1 16.7 15.1 16.8 15.2C16.9 15.3 16.9 15.3 17 15.4C17 15.4 17 15.5 17.1 15.5V15.6C16.8 15.6 16.8 15.7 16.7 15.7Z" fill="#FDFE1F"/>
<path d="M16.7 9.59999C16.5 9.69999 15.9 9.79999 15.5 9.79999V9.69999C16.1 9.59999 16.5 9.49999 16.7 9.59999C16.7 9.59999 16.7 9.49999 16.7 9.59999Z" fill="#FDFE1F"/>
<path d="M16.7 15.7C16.7 15.7 16.7 15.8 16.7 15.7C16.6 15.7 16.7 15.7 16.7 15.7Z" fill="#FDFE1F"/>
<path d="M16.7 15.6C15.7 17 14 17.9 12.3 18V17.9C13.8 17.8 15.1 17.2 16.1 16.2C16.3 15.9 16.5 15.7 16.7 15.6C16.7 15.6 16.7 15.5 16.7 15.6Z" fill="#FDFE1F"/>
<path d="M16.7 9.49995C16.5 9.49995 16 9.59995 15.6 9.69995V9.39995C16.1 9.29995 16.4 9.19995 16.6 9.19995C16.6 9.29995 16.6 9.39995 16.7 9.49995Z" fill="#FDFE1F"/>
<path d="M16.6 15.5C16.5 15.7 16.3 16 16 16.2C15 17.2 13.6 17.8 12.2 17.9V17.6C13.7 17.5 14.9 16.9 15.9 15.9L16 15.8C16.1 15.7 16.2 15.6 16.2 15.5C16.5 15.3 16.6 15.4 16.6 15.5Z" fill="#FDFE1F"/>
<path d="M16.6 8.49998C16.4 8.39998 16.3 8.39998 16 8.29998C15 7.29998 13.7 6.59998 12.3 6.49998V6.09998C13.8 6.19998 15.1 6.79998 16.1 7.79998C16.3 8.09998 16.5 8.29998 16.6 8.49998Z" fill="#FDFE1F"/>
<path d="M16.3 16.2C16.3 16.1 16.4 16.1 16.3 16.2C16.4 16.1 16.3 16.1 16.3 16.2Z" fill="#FDFE1F"/>
<path d="M16.4 15.9C16.5 15.9 16.5 15.9 16.4 15.9C16.5 15.9 16.5 15.9 16.4 15.9C16.4 16.1 16.4 15.9 16.4 15.9C16.4 15.9 16.4 16.1 16.4 15.9Z" fill="#FDFE1F"/>
<path d="M16.5 9.19996C16.3 9.19996 15.9 9.29996 15.6 9.39996V9.29996C16.1 9.19996 16.4 9.09996 16.5 9.19996C16.5 9.19996 16.5 9.09996 16.5 9.19996Z" fill="#FDFE1F"/>
<path d="M16.4 15C16.4 15.2 16.3 15.2 16.4 15C16.1 15.1 15.8 15.1 15.6 15.2C15.5 15.2 15.4 15.2 15.3 15.2C15 15.2 14.6 15.3 14.3 15.3L14.4 15.2C14.6 15.2 14.9 15.2 15 15.1C15.1 15.1 15.2 15.1 15.3 15.1C15.6 15.2 15.9 15 16.4 15C16.3 15 16.3 15 16.4 15C16.4 15 16.3 15 16.4 15Z" fill="#FDFE1F"/>
<path d="M16.3 15C16 15.1 15.6 15.1 15.4 15.1C15.2 15 15 15 14.8 14.9C15 14.7 15.1 14.4 15.3 14.1C15.5 14.3 15.8 14.4 15.9 14.6C16.1 14.8 16.2 14.9 16.3 15Z" fill="#FDFE1F"/>
<path d="M16.3 15.2C16.2 15.3 16.2 15.4 16.1 15.5C16.1 15.5 16.1 15.5 16 15.6H15.9C15.1 15.7 14.3 15.8 13.5 15.9C13.7 15.8 14 15.7 14.2 15.4C14.5 15.4 14.9 15.3 15.2 15.3C15.3 15.3 15.4 15.3 15.5 15.3C15.8 15.3 16.1 15.3 16.3 15.2Z" fill="#FDFE1F"/>
<path d="M15.9 8.30002H15.8C15.7 8.20002 15.7 8.20002 15.6 8.10002V7.90002C15.7 8.10002 15.8 8.20002 15.9 8.30002Z" fill="#FDFE1F"/>
<path d="M15.9 15.6C15.8 15.7 15.8 15.7 15.8 15.7C14.8 15.8 13.8 16 12.9 16C13.1 16 13.2 15.9 13.5 15.9C14.1 15.8 15 15.7 15.9 15.6C15.9 15.6 15.8 15.6 15.9 15.6Z" fill="#FDFE1F"/>
<path d="M15.9 15.7C15 16.7 13.6 17.3 12.3 17.4V17.3C13.7 17.2 14.9 16.6 15.8 15.7H15.9V15.7C15.9 15.6 15.9 15.6 15.9 15.6C15.9 15.6 15.9 15.6 16 15.5C16.1 15.4 16.2 15.3 16.2 15.2C16.1 15.3 16 15.4 16 15.5C16.1 15.6 16.1 15.6 15.9 15.7C16.1 15.7 16.1 15.7 15.9 15.7Z" fill="#FDFE1F"/>
<path d="M15.5 7.8H15.4C14.5 7.1 13.5 6.7 12.4 6.6V6.5C13.6 6.6 14.7 7 15.5 7.8Z" fill="#FDFE1F"/>
<path d="M15.3 12H15H14.8H14.7H14.6H14.4H15.3C15.3 12.1 15.3 12.1 15.3 12Z" fill="#FDFE1F"/>
<path d="M15.3 9.19995H15H14.8H14.7H14.5H14.3H15.3C15.3 9.29995 15.3 9.29995 15.3 9.19995C15.3 9.29995 15.3 9.29995 15.3 9.19995C15.3 9.19995 15.3 9.29995 15.3 9.19995Z" fill="#FDFE1F"/>
<path d="M15.3 9.20005V8.80005H15C15.1 8.80005 15.2 8.90005 15.2 9.10005H15.3V9.20005Z" fill="#FDFE1F"/>
<path d="M15.3 12V11.7H15C15.1 11.7 15.2 11.8 15.2 12H15.3Z" fill="#FDFE1F"/>
<path d="M15.3 15.2C15.2 15.2 15.1 15.2 15 15.2C14.9 15.2 14.7 15 14.6 15L14.7 14.9C14.9 15 15 15.2 15.3 15.2Z" fill="#FDFE1F"/>
<path d="M14.9 8.30005V8.40005H15.1V8.30005H15H14.9C14.9 8.40005 14.9 8.40005 14.9 8.30005Z" fill="#FDFE1F"/>
<path d="M14.9 11.1V11.2H15H15.1V11.1H15H14.9C14.9 11.1 14.9 11.2 14.9 11.1Z" fill="#FDFE1F"/>
<path d="M15.2 11.3H15V11.4H15.2V11.3Z" fill="#FDFE1F"/>
<path d="M15.2 8.5H15V8.6V8.7H15.2V8.5Z" fill="#FDFE1F"/>
<path d="M14.9 9.20002C14.9 9.00002 14.8 8.90002 14.7 8.90002C14.6 8.90002 14.5 9.00002 14.5 9.20002H14.6C14.6 9.00002 14.7 9.00002 14.7 9.00002C14.7 9.00002 14.9 9.00002 14.9 9.20002Z" fill="#FDFE1F"/>
<path d="M14.9 12C14.9 11.8 14.8 11.7 14.7 11.7C14.6 11.7 14.5 11.8 14.5 12H14.6C14.6 11.8 14.7 11.8 14.7 11.8C14.7 11.8 14.9 11.8 14.9 12Z" fill="#FDFE1F"/>
<path d="M14.6 10.9V11H14.8V10.9H14.7H14.6C14.6 11 14.6 11 14.6 10.9Z" fill="#FDFE1F"/>
<path d="M14.7 9C14.7 9 14.6 9 14.6 9.2H14.7H14.8H14.9C14.8 9.1 14.7 9 14.7 9Z" fill="#FDFE1F"/>
<path d="M14.7 11.8C14.7 11.8 14.6 11.8 14.6 12H14.7H14.8H14.9C14.8 11.8 14.7 11.8 14.7 11.8Z" fill="#FDFE1F"/>
<path d="M14.8 11.2V11.1H14.6V11.2V11.3V11.4H14.8V11.3V11.2Z" fill="#FDFE1F"/>
<path d="M14.8 8.30005H14.6V8.50005V8.60005H14.7H14.8V8.50005V8.30005ZM14.8 8.50005L14.7 8.40005H14.8V8.50005Z" fill="#FDFE1F"/>
<path d="M14.3 11.7V12H14.5C14.5 11.8 14.6 11.7 14.7 11.7H14.3Z" fill="#FDFE1F"/>
<path d="M14.3 8.80005V9.10005H14.5C14.5 8.90005 14.6 8.80005 14.7 8.80005H14.3Z" fill="#FDFE1F"/>
<path d="M14.6 8.19995V8.29995H14.8L14.6 8.19995C14.7 8.19995 14.7 8.19995 14.6 8.19995Z" fill="#FDFE1F"/>
<path d="M14.6 14.4L14.5 14.3L14.6 14.4L14.5 14.3V14.4L14.6 14.5H14.7L14.6 14.4C14.6 14.5 14.7 14.5 14.6 14.4Z" fill="#FDFE1F"/>
<path d="M14.5 11.3L14.3 11.2V11.3H14.5Z" fill="#FDFE1F"/>
<path d="M14.3 14.5L14.4 14.6L14.5 14.5V14.4L14.3 14.5Z" fill="#FDFE1F"/>
<path d="M14.3 14.5L14.5 14.2L14.4 14L14 14.3L14.3 14.5ZM14.4 14.1V14.2V14.1Z" fill="#FDFE1F"/>
<path d="M14.5 13.9H14.4H14.5V14.1H14.6L14.7 14L14.5 13.9C14.5 14 14.5 14 14.5 13.9C14.4 13.9 14.4 13.9 14.5 13.9Z" fill="#FDFE1F"/>
<path d="M14.3 8.30005V8.40005H14.5V8.30005H14.4H14.3C14.3 8.40005 14.3 8.40005 14.3 8.30005Z" fill="#FDFE1F"/>
<path d="M14.5 8.50002L14.3 8.40002V8.50002H14.5Z" fill="#FDFE1F"/>
<path d="M14.3 11.1V11.2H14.5V11.1H14.4H14.3C14.3 11.1 14.3 11.2 14.3 11.1Z" fill="#FDFE1F"/>
<path d="M15.2 11.5H14.3H15.2C15.3 11.5 15.3 11.7 15.2 11.5C15.3 11.5 15.3 11.5 15.2 11.5Z" fill="#FDFE1F"/>
<path d="M14.3 11.5H15.3H15H14.9H14.7H14.6H14.3C14.3 11.4 14.3 11.4 14.3 11.5Z" fill="#FDFE1F"/>
<path d="M14.3 14.9L14.4 14.8L14.3 14.7L14.2 14.6L14 14.5C14 14.5 14 14.5 14 14.6V14.7C14 14.7 14 14.8 13.9 14.8L14 14.9H14.3V14.9Z" fill="#FDFE1F"/>
<path d="M14 13.8V14H14.1L14.2 13.9L14 13.8C14.1 13.9 14.1 13.9 14 13.8Z" fill="#FDFE1F"/>
<path d="M14 14.3L14.1 14.2L14 14L13.9 14.1L14 14.3Z" fill="#FDFE1F"/>
<path d="M14 14.8C14 14.7 14 14.7 14 14.6V14.5C14 14.5 13.9 14.5 13.8 14.5C13.8 14.5 13.7 14.5 13.7 14.6C13.8 14.5 13.8 14.5 13.9 14.5H14C13.9 14.6 13.9 14.7 14 14.8C13.9 14.8 13.9 14.7 14 14.8C13.9 14.8 13.9 14.8 13.9 14.8H14C14 14.8 13.9 14.8 14 14.8Z" fill="#FDFE1F"/>
<path d="M13.9 14.6C13.8 14.6 13.7 14.6 13.7 14.6L13.8 14.7C13.9 14.7 13.9 14.6 13.9 14.6Z" fill="#FDFE1F"/>
<path d="M13.8 14C13.8 14 13.7 14 13.8 14C13.7 14 13.7 14 13.8 14L14.5 14.7L14.3 14.5L14 14.3L13.8 14Z" fill="#FDFE1F"/>
<path d="M13.7 14.1L14.3 14.7L14.4 14.8L13.7 14.1C13.7 14 13.7 14 13.7 14.1Z" fill="#FDFE1F"/>
<path d="M13.5 14.4L13.6 14.6L13.7 14.5C13.8 14.5 13.9 14.5 13.9 14.5L13.7 14.3L13.5 14.4Z" fill="#FDFE1F"/>
<path d="M13.4 14.4C13.4 14.4 13.4 14.5 13.4 14.4L13.5 14.5L14.2 15.2C14.2 15.2 14.2 15.2 14.3 15.2C14.3 15.2 14.3 15.2 14.3 15.1L14 14.8L13.9 14.7L13.8 14.6L13.7 14.5L13.4 14.4Z" fill="#FDFE1F"/>
<path d="M12.9 17.9C12.9 17.9 12.8 17.9 12.9 17.9C12.8 18 12.8 18 12.9 17.9C12.8 18 12.8 18 12.9 17.9C12.9 17.9 12.8 17.9 12.9 17.9Z" fill="#FDFE1F"/>
<path d="M12.5 9.29995C12.6 9.29995 12.6 9.29995 12.5 9.29995C12.6 9.29995 12.6 9.19995 12.5 9.29995L12.4 9.19995H12.3H12.2H12H11.9H11.7H11.9H12H12.2H12.3H12.4V9.29995H12.5Z" fill="#FDFE1F"/>
<path d="M12.3 8.7L12.4 8.6V8.5H12.3H12.2V8.6V8.7H12.3Z" fill="#FDFE1F"/>
<path d="M12.3 16.2V17.4V17.7V17.7999V18H12.2L12.3 16.2C12.2 16.2 12.2 16.2 12.3 16.2Z" fill="#FDFE1F"/>
<path d="M12.3 9.20005H12.5V8.80005H12.4H12.2H12.1C12.1 8.80005 12.2 8.80005 12.2 8.90005C12.2 9.10005 12.2 9.20005 12.3 9.20005Z" fill="#FDFE1F"/>
<path d="M12.3 6V6.1V6.6V6.7V7.8H12.2V6H12.3Z" fill="#FDFE1F"/>
<path d="M12.2 16.2V17.9C12.1 17.9 12.1 17.9 12 17.9C11.9 17.9 11.9 17.9 11.8 17.9V16.2H11.9C12.1 16.3 12.1 16.3 12.2 16.2Z" fill="#FDFE1F"/>
<path d="M12.1 8.30005V8.40005H12.2H12.3V8.30005H12.1C12.2 8.40005 12.2 8.40005 12.1 8.30005Z" fill="#FDFE1F"/>
<path d="M12.2 6V7.8H11.9V6C12 6 12.1 6 12.2 6Z" fill="#FDFE1F"/>
<path d="M12.2 9.20002V9.10003C12.2 9.10003 12.2 9.10002 12.2 9.00002C12.2 8.90002 12.1 8.90002 12.1 8.90002C12.1 8.90002 12 8.90002 12 9.00002C12 9.00002 12 9.10002 12 9.20002C12 9.00002 12.1 9.00002 12.1 9.00002C12 9.00002 12.1 9.00002 12.2 9.20002Z" fill="#FDFE1F"/>
<path d="M11.9 8.19995V8.29995H12.1V8.19995H12H11.9Z" fill="#FDFE1F"/>
<path d="M12 9C12 9 11.9 9 11.9 9.2H12H12.1H12.2C12.1 9.1 12 9 12 9Z" fill="#FDFE1F"/>
<path d="M12.1 8.40005V8.30005H11.9V8.40005V8.50005V8.60005H12.1V8.50005V8.40005Z" fill="#FDFE1F"/>
<path d="M11.9 9.00002C11.9 9.00002 11.9 8.80002 11.9 9.00002L11.8 8.90002H11.7V9.20002H11.8C11.8 9.10002 11.8 9.10002 11.9 9.00002C11.8 9.00002 11.8 9.00002 11.9 9.00002Z" fill="#FDFE1F"/>
<path d="M11.8 16.2V17.9V18H11.7L11.8 16.2Z" fill="#FDFE1F"/>
<path d="M11.8 6V7.8H11.7V6H11.8Z" fill="#FDFE1F"/>
<path d="M11.7 8.7L11.8 8.6V8.5H11.7H11.6V8.6V8.7H11.7Z" fill="#FDFE1F"/>
<path d="M11.7 17.9C9.9 17.9 8.3 17 7.2 15.5L7 15.4C7 15.4 7 15.4 7 15.3C7 15.3 7 15.3 7.1 15.3C7.1 15.4 7.2 15.4 7.2 15.5C7.2 15.6 7.3 15.6 7.3 15.7C7.4 15.9 7.6 16 7.8 16.3C8.8 17.2 10.2 17.7 11.7 17.9Z" fill="#FDFE1F"/>
<path d="M11.7 17.5V17.8C10.2 17.7 8.90001 17.1 7.90001 16.1C7.70001 15.9 7.60001 15.8 7.40001 15.5C7.40001 15.4 7.30001 15.4 7.30001 15.3C7.30001 15.2 7.20001 15.2 7.20001 15.1C7.30001 15.1 7.30001 15 7.40001 15C7.40001 15 7.40001 15 7.50001 15C7.60001 15.2 7.70001 15.3 7.80001 15.5C7.80001 15.6 7.90001 15.6 7.90001 15.7C9.00001 16.7 10.2 17.4 11.7 17.5Z" fill="#FDFE1F"/>
<path d="M11.7 17.4C10.2 17.4 8.99998 16.7 7.99998 15.7C7.99998 15.7 7.89998 15.6 7.89998 15.5C7.79998 15.4 7.69998 15.3 7.59998 15C7.59998 15 7.59998 15 7.69998 15L7.79998 15.1C7.79998 15.2 7.89998 15.3 7.99998 15.6C7.99998 15.7 8.09998 15.7 8.19998 15.8C9.19998 16.7 10.4 17.3 11.7 17.4Z" fill="#FDFE1F"/>
<path d="M11.7 6.59998C10.6 6.69998 9.4 7.19998 8.7 7.99998H8.5C9.4 6.99998 10.4 6.59998 11.7 6.59998Z" fill="#FDFE1F"/>
<path d="M11.7 6.30005V6.60005C10.5 6.70005 9.30002 7.20005 8.40002 8.00005C8.30002 8.10005 8.10002 8.30005 7.90002 8.40005C7.70002 8.50005 7.50002 8.50005 7.40002 8.60005C7.50002 8.40005 7.70002 8.10005 8.00002 8.00005C9.00002 6.90005 10.2 6.30005 11.7 6.30005Z" fill="#FDFE1F"/>
<path d="M11.7 6C10.2 6.2 8.90001 6.8 7.90001 7.8C7.60001 8.1 7.50001 8.3 7.30001 8.5H7.20001C8.20001 7 9.90001 6.1 11.7 6Z" fill="#FDFE1F"/>
<path d="M11.7 8.30005C11.7 8.40005 11.7 8.40005 11.7 8.30005C11.5 8.40005 11.5 8.40005 11.7 8.30005H11.6V8.40005H11.7H11.8V8.30005H11.7C11.8 8.40005 11.8 8.40005 11.7 8.30005C11.7 8.40005 11.7 8.40005 11.7 8.30005C11.7 8.40005 11.7 8.40005 11.7 8.30005Z" fill="#FDFE1F"/>
<path d="M11.4 16.2C10.5 16.2 9.4 16 8.1 15.7L8 15.6C8.7 15.7 9.7 15.9 10.7 16.1C11 16.1 11.2 16.2 11.4 16.2Z" fill="#FDFE1F"/>
<path d="M9.99999 15.2L10.7 14.5C10.7 14.5 10.7 14.5 10.7 14.4C10.7 14.4 10.7 14.4 10.6 14.4L10.4 14.6L10.3 14.7L10.2 14.8L9.99999 15.2C9.89999 15.2 9.89999 15.2 9.99999 15.2Z" fill="#FDFE1F"/>
<path d="M10.1 14.5C10.2 14.5 10.3 14.5 10.4 14.6L10.5 14.5L10.3 14.3L10.1 14.5Z" fill="#FDFE1F"/>
<path d="M10.6 15.9C9.60001 15.8 8.70001 15.7 7.90001 15.4C7.90001 15.3 7.80001 15.2 7.70001 15.1C8.30001 15.2 9.10001 15.4 10 15.6C10.1 15.7 10.4 15.8 10.6 15.9Z" fill="#FDFE1F"/>
<path d="M10.4 14.6C10.3 14.5 10.1 14.5 10.1 14.5C10.1 14.6 10 14.7 10.2 14.8L10.3 14.7C10.2 14.6 10.2 14.4 10.2 14.4C10.1 14.6 10.2 14.5 10.4 14.6Z" fill="#FDFE1F"/>
<path d="M10.4 17.7C10.3 17.7 10.3 17.7 10.4 17.7C10.3 17.7 10.3 17.7 10.4 17.7C10.3 17.7 10.3 17.7 10.2 17.6H10.3C10.2 17.7 10.3 17.7 10.4 17.7C10.3 17.7 10.3 17.7 10.4 17.7C10.4 17.7 10.3 17.7 10.4 17.7Z" fill="#FDFE1F"/>
<path d="M10.6 17.9C10.6 17.9 10.8 17.9 10.6 17.9C10.6 17.9 10.5 17.9 10.4 17.9C10.5 17.7 10.6 17.9 10.6 17.9Z" fill="#FDFE1F"/>
<path d="M10.2 14.8L10.3 14.7L10.4 14.6C10.3 14.5 10.2 14.5 10.2 14.5C10.1 14.6 10.1 14.7 10.2 14.8Z" fill="#FDFE1F"/>
<path d="M9.90002 14L10 14.1L10.1 14L10 13.9L9.90002 14Z" fill="#FDFE1F"/>
<path d="M9.70001 14.8L10 15L10.1 14.9C10 14.7 10 14.6 10 14.5L9.70001 14.8Z" fill="#FDFE1F"/>
<path d="M10 14.3L9.6 14L9.5 14.1L9.7 14.4L10 14.3ZM9.7 14.3V14.2V14.3Z" fill="#FDFE1F"/>
<path d="M9.90002 14L10.1 13.9V13.8H10L9.90002 14C10 13.9 10 13.9 9.90002 14V13.9V14C9.90002 13.9 9.90002 13.9 9.90002 14Z" fill="#FDFE1F"/>
<path d="M9.70002 9.20005V8.80005H9.40002C9.50002 8.80005 9.60003 8.90005 9.60003 9.10005H9.70002V9.20005Z" fill="#FDFE1F"/>
<path d="M9.70002 12V11.7H9.40002C9.50002 11.7 9.60003 11.8 9.60003 12H9.70002Z" fill="#FDFE1F"/>
<path d="M9.7 11.3L9.5 11.2V11.3V11.4H9.7V11.3Z" fill="#FDFE1F"/>
<path d="M10.3 14.1L9.59998 14.8L10.3 14.1C10.3 14 10.3 14 10.3 14.1Z" fill="#FDFE1F"/>
<path d="M9.7 14.5L9.6 14.4L9.5 14.5L9.6 14.6L9.7 14.5Z" fill="#FDFE1F"/>
<path d="M9.40002 8.30005V8.40005H9.60003V8.30005H9.50002H9.40002C9.50002 8.40005 9.50002 8.40005 9.40002 8.30005Z" fill="#FDFE1F"/>
<path d="M10.2 14L10.1 14.2L9.90001 14.4L9.70001 14.6L10.2 14C10.3 14 10.3 14 10.2 14C10.3 14 10.3 14 10.2 14Z" fill="#FDFE1F"/>
<path d="M9.7 8.5H9.5V8.6H9.6H9.7V8.5Z" fill="#FDFE1F"/>
<path d="M9.40002 11.1V11.2H9.60003V11.1H9.50002H9.40002C9.50002 11.1 9.50002 11.2 9.40002 11.1Z" fill="#FDFE1F"/>
<path d="M9.5 14L9.7 13.9V13.8L9.6 13.7L9.5 14V13.9V14Z" fill="#FDFE1F"/>
<path d="M9.40001 11.2V11H9.20001V11.1V11.2H9.40001V11.1V11.2Z" fill="#FDFE1F"/>
<path d="M9.40001 8.50005V8.30005H9.20001V8.50005V8.60005H9.30001H9.40001V8.50005ZM9.30001 8.50005L9.20001 8.40005H9.30001V8.50005V8.50005Z" fill="#FDFE1F"/>
<path d="M9.39999 14.5L9.49999 14.4V14.3C9.39999 14.4 9.39999 14.4 9.39999 14.5L9.29999 14.4L9.39999 14.5Z" fill="#FDFE1F"/>
<path d="M8.70001 12.1H9.30001H9.50001H9.60001H9.40001H9.20001H9.10001H9.00001H8.70001C8.70001 12 8.70001 12 8.70001 12.1Z" fill="#FDFE1F"/>
<path d="M9.49998 9.20006C9.49998 9.00006 9.39998 8.90006 9.29998 8.90006C9.19998 8.80006 9.09998 9.00006 9.09998 9.10006H9.19998C9.19998 8.90006 9.29998 8.90006 9.29998 8.90006C9.29998 8.80006 9.39998 9.00006 9.49998 9.20006Z" fill="#FDFE1F"/>
<path d="M9.20001 10.9V11H9.40001V10.9H9.20001C9.20001 11 9.20001 11 9.20001 10.9C9.20001 11 9.20001 11 9.20001 10.9Z" fill="#FDFE1F"/>
<path d="M9.30001 9C9.30001 9 9.20001 9 9.20001 9.2H9.30001H9.40001H9.50001C9.40001 9.1 9.30001 9 9.30001 9Z" fill="#FDFE1F"/>
<path d="M9.19999 8.80005H8.79999V9.00005V9.10005H8.99999C9.09999 9.00005 9.19999 8.80005 9.19999 8.80005Z" fill="#FDFE1F"/>
<path d="M9.09998 8.19995V8.29995H9.29998H9.19998L9.09998 8.19995C9.19998 8.19995 9.19998 8.19995 9.09998 8.19995Z" fill="#FDFE1F"/>
<path d="M9.20001 12H9.40001C9.40001 11.9 9.30001 11.9 9.30001 11.9C9.20001 11.9 9.20001 11.9 9.20001 12Z" fill="#FDFE1F"/>
<path d="M9.39997 12C9.49997 11.8 9.39998 11.7 9.29998 11.7C9.29998 11.7 9.19998 11.7 9.19998 11.8C9.19998 11.8 9.19998 11.9 9.09998 11.9C9.09998 11.9 9.09998 11.9 9.09998 12H9.19998C9.19998 11.9 9.19998 11.9 9.19998 11.9H9.29998C9.29998 11.8 9.39997 11.8 9.39997 12C9.39997 12 9.39997 11.9 9.39997 12Z" fill="#FDFE1F"/>
<path d="M8.70001 9.30006H9.00001H9.10001H9.30001H9.40001H9.70001H9.60001H9.40001H9.20001H9.10001H8.80001H8.70001C8.70001 9.30006 8.70001 9.20006 8.70001 9.30006Z" fill="#FDFE1F"/>
<path d="M9.09999 8.6L8.79999 8.5V8.6H9.09999Z" fill="#FDFE1F"/>
<path d="M9.09999 11.7C9.19999 11.7 9.19999 11.7 9.09999 11.7L8.99999 11.5H8.79999V11.6V11.8H8.99999V11.7C9.09999 11.8 9.09999 11.8 9.09999 11.7C9.09999 11.7 9.09999 11.8 9.09999 11.7Z" fill="#FDFE1F"/>
<path d="M8.70001 8.30005V8.40005H9.00001V8.30005H8.80001H8.70001C8.80001 8.40005 8.80001 8.40005 8.70001 8.30005Z" fill="#FDFE1F"/>
<path d="M8.70001 11.1V11.2H9.00001V11.1H8.80001H8.70001C8.80001 11.1 8.80001 11.2 8.70001 11.1Z" fill="#FDFE1F"/>
<path d="M9.09999 11.3H8.79999V11.4H8.99999V11.3H9.09999Z" fill="#FDFE1F"/>
<path d="M8.79998 14.4999C8.09998 14.5999 7.69998 14.6999 7.29998 14.9999V14.9999C7.19998 14.8999 7.19998 14.9999 6.99998 14.9999C6.99998 14.9999 6.89998 14.9999 6.89998 15.0999C6.89998 15.0999 6.79998 15.0999 6.79998 15.1999C6.79998 15.0999 6.69998 15.0999 6.69998 14.9999C6.69998 14.9999 6.69998 14.8999 6.59998 14.8999H6.69998C6.79998 14.7999 6.89998 14.7999 6.99998 14.6999H7.09998C7.39998 14.5999 7.89998 14.3999 8.59998 14.3999C8.69998 14.2999 8.79998 14.3999 8.79998 14.4999Z" fill="#FDFE1F"/>
<path d="M9.69999 11.5H8.79999H8.99999H9.69999C9.69999 11.5 9.69999 11.7 9.69999 11.5Z" fill="#FDFE1F"/>
<path d="M9.69999 11.5C9.69999 11.4 9.69999 11.4 9.69999 11.5H9.39999H9.29999H9.09999H8.99999H8.79999H9.69999Z" fill="#FDFE1F"/>
<path d="M8.40001 13.1C8.10001 13 7.30001 12.9 6.70001 12.6V12.5C7.40001 12.7 8.10001 12.8 8.40001 13C8.40001 13 8.40001 13 8.40001 13.1Z" fill="#FDFE1F"/>
<path d="M8.40001 12.9C8.10001 12.8 7.30001 12.7 6.70001 12.4C6.70001 12.3 6.70001 12.2 6.70001 12.1C7.30001 12.2 8.10001 12.4 8.40001 12.6C8.40001 12.8 8.40001 12.8 8.40001 12.9Z" fill="#FDFE1F"/>
<path d="M8.40001 12.5V12.6C7.90001 12.5 7.20001 12.3 6.70001 12.1V12C7.30001 12.1 7.90001 12.3 8.40001 12.5Z" fill="#FDFE1F"/>
<path d="M8.39998 11.3V11.4C7.69998 11.6 7.19998 11.7 6.59998 12C6.49998 12.1 6.39998 12.1 6.29998 12.2C6.29998 12.2 6.19998 12.2 6.19998 12.3C6.19998 12.3 6.19998 12.3 6.09998 12.3C6.09998 12.3 6.09998 12.2 6.19998 12.1C6.19998 12.1 6.29998 12.1 6.29998 12C6.29998 12 6.39998 11.9 6.59998 11.9H6.69998C7.19998 11.7 7.69998 11.4 8.39998 11.3Z" fill="#FDFE1F"/>
<path d="M8.40002 10.1V10.9C8.30002 10.9 8.20002 10.9 7.90002 11C7.40002 10.7 7.10002 10.3 6.90002 10.2C7.00002 10.1 7.00002 9.89995 7.20002 9.69995C7.20002 9.69995 7.20002 9.69995 7.30002 9.69995C7.40002 9.69995 7.50002 9.69995 7.60002 9.69995C7.80002 9.89995 7.90002 9.89995 8.20002 9.99995C8.30002 10.1 8.40002 10.1 8.40002 10.1Z" fill="#FDFE1F"/>
<path d="M8.40001 9.10005V10C7.90001 9.90005 7.60001 9.70005 7.40001 9.70005H7.30001C7.20001 9.70005 7.00001 9.60005 6.80001 9.60005H6.70001C6.80001 9.40005 6.90001 9.30005 6.90001 9.10005C6.90001 9.00005 7.00001 9.00005 7.00001 8.80005H7.10001C7.10001 8.80005 7.10001 8.80005 7.20001 8.80005C7.30001 8.80005 7.40001 8.80005 7.50001 8.90005H7.60001C7.70001 8.90005 7.80001 9.00005 7.90001 9.00005C8.20001 9.00005 8.30001 9.00005 8.40001 9.10005Z" fill="#FDFE1F"/>
<path d="M8.39997 8.69995C8.39997 8.79995 8.29998 8.79995 8.29998 8.79995C8.19998 8.79995 8.19998 8.79995 8.09998 8.69995C8.19998 8.69995 8.29997 8.69995 8.39997 8.69995Z" fill="#FDFE1F"/>
<path d="M8.39998 8.40002V8.60003C8.29998 8.60003 8.09998 8.60002 7.89998 8.70002C7.79998 8.70002 7.79998 8.70003 7.69998 8.60003C7.59998 8.60003 7.59998 8.60003 7.59998 8.60003C7.69998 8.60003 7.79998 8.50002 7.89998 8.50002C7.99998 8.50002 7.99998 8.50002 8.09998 8.50002C8.19998 8.40002 8.29998 8.40002 8.39998 8.40002Z" fill="#FDFE1F"/>
<path d="M8.39997 7.90002C8.29997 8.20002 8.29998 8.20002 8.19998 8.30002H8.09998C8.19998 8.20002 8.29997 8.10002 8.39997 7.90002Z" fill="#FDFE1F"/>
<path d="M7.90002 10.9C7.80002 10.9 7.80002 10.9 7.80002 10.9C7.50002 10.6 7.10002 10.3 6.90002 10.2V10.1C7.20002 10.3 7.50002 10.5 7.90002 10.9Z" fill="#FDFE1F"/>
<path d="M9.90001 15.5C9.10001 15.4 8.30001 15.3 7.80001 15L7.70001 14.9C8.20001 15 9.00001 15.3 9.70001 15.4C9.70001 15.4 9.70001 15.5 9.90001 15.5Z" fill="#FDFE1F"/>
<path d="M8.40001 8.30005C8.30001 8.40005 8.20001 8.50005 7.90001 8.50005C7.80001 8.50005 7.80001 8.50005 7.70001 8.50005C7.60001 8.50005 7.50001 8.60005 7.40001 8.60005C7.30001 8.60005 7.30001 8.60005 7.20001 8.60005C7.40001 8.50005 7.70001 8.50005 7.90001 8.40005C8.00001 8.40005 8.00001 8.40005 8.10001 8.40005C8.30001 8.30005 8.30001 8.30005 8.40001 8.30005Z" fill="#FDFE1F"/>
<path d="M7.19998 9.59998C6.99998 9.69998 6.99998 9.99998 6.89998 10.1V10.2C6.79998 10.5 6.69998 10.9 6.69998 11.2H6.59998C6.69998 10.8 6.79998 10.2 7.19998 9.59998Z" fill="#FDFE1F"/>
<path d="M7.00001 15.4C7.00001 15.4 6.90001 15.4 7.00001 15.4C6.90001 15.3 7.00001 15.3 7.00001 15.4C7.00001 15.3 7.00001 15.3 7.00001 15.4Z" fill="#FDFE1F"/>
<path d="M6.99998 14.4C6.89998 14.4 6.79998 14.5 6.69998 14.5C6.39998 13.7 6.09998 12.9 6.09998 12.1C6.19998 12.1 6.29998 12 6.39998 12C6.49998 12.9 6.69998 13.7 6.99998 14.4Z" fill="#FDFE1F"/>
<path d="M8.40002 8.99995C8.30002 8.99995 8.20002 8.99995 8.10002 8.99995C8.00002 8.99995 7.80002 8.79995 7.70002 8.79995H7.60002C7.50002 8.79995 7.40002 8.69995 7.30002 8.69995C7.30002 8.69995 7.30002 8.69995 7.20002 8.69995H7.00002C7.00002 8.69995 7.00002 8.69995 6.90002 8.69995C6.90002 8.69995 7.00002 8.69995 7.10002 8.69995C7.10002 8.69995 7.10002 8.69995 7.20002 8.69995C7.20002 8.69995 7.20002 8.69995 7.30002 8.69995C7.30002 8.69995 7.40002 8.69995 7.50002 8.69995C7.60002 8.69995 7.60002 8.69995 7.70002 8.69995H7.80002C7.90002 8.69995 7.90002 8.69995 8.00002 8.79995C8.30002 8.79995 8.30002 8.79995 8.40002 8.99995C8.40002 8.99995 8.30002 8.79995 8.40002 8.99995Z" fill="#FDFE1F"/>
<path d="M9 14.6C8.3 14.7 7.9 14.8 7.6 14.9H7.5C7.5 14.9 7.5 14.9 7.4 14.9C7.3 14.9 7.2 15 7.2 15C7.2 15 7.1 15 7.1 15.1C7.1 15.1 7.1 15.1 7 15.1V15C7 15 7.1 15 7.1 14.9C7.1 14.9 7.2 14.9 7.2 14.8C7.2 14.8 7.3 14.7 7.4 14.7H7.5C7.8 14.6 8.3 14.4 9 14.2C9 14.5 9 14.6 9 14.6Z" fill="#FDFE1F"/>
<path d="M7.00002 8.69995C7.00002 8.79995 6.90002 8.79995 6.90002 8.99995V8.79995C6.90002 8.69995 6.90002 8.69995 7.00002 8.69995C6.90002 8.69995 6.90002 8.69995 7.00002 8.69995C6.90002 8.69995 6.90002 8.69995 7.00002 8.69995C6.90002 8.69995 6.90002 8.69995 7.00002 8.69995Z" fill="#FDFE1F"/>
<path d="M7.00001 9.59999C6.80001 10.2 6.50001 10.7 6.50001 11.3C6.40001 11.3 6.30001 11.4 6.20001 11.5C6.30001 10.8 6.40001 10.1 6.80001 9.59999C6.80001 9.59999 6.80001 9.59999 6.90001 9.59999C6.90001 9.49999 7.00001 9.59999 7.00001 9.59999Z" fill="#FDFE1F"/>
<path d="M6.79998 14.9C6.69998 14.8 6.69998 14.8 6.79998 14.9C6.69998 14.8 6.69998 14.8 6.79998 14.9C6.69998 14.8 6.69998 14.8 6.79998 14.9Z" fill="#FDFE1F"/>
<path d="M6.7 14.6C6.3 13.9 6 13.1 6 12.2C6 12.2 6 12.2 6.1 12.2C6.1 13 6.4 13.8 6.7 14.6Z" fill="#FDFE1F"/>
<path d="M6.7 9.5C6.4 10.1 6.2 10.7 6.1 11.4H6C6 10.8 6.2 10.2 6.5 9.6C6.5 9.7 6.6 9.6 6.7 9.5C6.6 9.5 6.6 9.5 6.7 9.5Z" fill="#FDFE1F"/>
<path d="M8.69999 14.1C7.99999 14.2 7.59999 14.3 7.19999 14.4V14.4C7.09999 14.4 6.99999 14.5 6.89999 14.6C6.89999 14.6 6.79999 14.6 6.79999 14.7V14.6C6.79999 14.6 6.89999 14.6 6.89999 14.5C6.99999 14.4 7.09999 14.4 7.19999 14.3H7.29999C7.59999 14.2 8.09999 14 8.79999 13.8C8.69999 14 8.69999 14 8.69999 14.1Z" fill="#FDFE1F"/>
<path d="M8.4 11V11.3C7.7 11.4 7.2 11.5 6.6 11.8H6.5C6.4 11.9 6.3 12 6.1 12H6C6 12 6 12 6 11.9V11.8C6 11.7 6 11.7 6 11.7C6 11.7 6.1 11.7 6.1 11.6C6.2 11.5 6.3 11.5 6.4 11.4H6.5C6.8 11.3 7.3 11.2 7.7 11.1C7.8 11.1 7.8 11.1 7.9 11.1C8.3 11 8.3 11 8.4 11Z" fill="#FDFE1F"/>
<path d="M7.19998 14.4C6.69998 13.7 6.59998 12.9 6.59998 12C6.59998 12 6.59998 12 6.69998 12V12.1C6.69998 12.2 6.69998 12.3 6.69998 12.4C6.69998 12.5 6.69998 12.5 6.69998 12.6C6.69998 13.2 6.89998 13.8 7.19998 14.4Z" fill="#FDFE1F"/>
<path d="M8.4 9.99998C8.3 10.1 8.3 9.99998 8.2 9.99998C7.9 9.89998 7.7 9.69998 7.6 9.69998C7.5 9.69998 7.4 9.59998 7.3 9.59998C7.3 9.59998 7.3 9.59998 7.2 9.59998C7.2 9.59998 7.2 9.59998 7.1 9.59998C7 9.59998 6.9 9.59998 6.9 9.59998C6.9 9.59998 6.9 9.59998 6.8 9.59998C6.8 9.59998 6.8 9.59998 6.7 9.59998C6.7 9.59998 6.7 9.59998 6.6 9.59998C6.6 9.59998 6.6 9.59998 6.5 9.59998C6.5 9.59998 6.6 9.59998 6.7 9.59998H6.8C6.9 9.59998 7 9.59998 7.1 9.69998H7.2C7.6 9.59998 7.9 9.69998 8.4 9.99998Z" fill="#FDFE1F"/>
<path d="M6.6 9.5C6.6 9.6 6.5 9.6 6.5 9.7C6.5 9.7 6.5 9.6 6.6 9.5C6.5 9.5 6.5 9.6 6.6 9.5C6.5 9.5 6.5 9.5 6.6 9.5C6.5 9.5 6.5 9.5 6.6 9.5C6.6 9.5 6.5 9.5 6.6 9.5Z" fill="#FDFE1F"/>
<path d="M8.39998 10.9V11C8.29998 11 8.29998 11 8.19998 11C8.09998 11 8.09998 11 7.99998 11C7.49998 11.1 7.09998 11.2 6.79998 11.3H6.59998C6.49998 11.4 6.39998 11.4 6.29998 11.5C6.29998 11.5 6.19998 11.5 6.19998 11.6C6.19998 11.6 6.19998 11.6 6.09998 11.6C6.09998 11.6 6.09998 11.5 6.19998 11.4C6.19998 11.4 6.29998 11.4 6.29998 11.3C6.39998 11.2 6.49998 11.2 6.59998 11.1H6.69998C6.99998 11 7.39998 10.9 7.79998 10.8C7.89998 10.8 7.89998 10.8 7.99998 10.8C8.19998 10.9 8.29998 10.9 8.39998 10.9Z" fill="#FDFE1F"/>
</g>
<defs>
<clipPath id="clip0_110_303">
<rect width="24" height="24" fill="white"/>
</clipPath>
</defs>
</svg>
